<?xml version="1.0" encoding="UTF-8"?><svg id="_レイヤー_2" xmlns="http://www.w3.org/2000/svg" xmlns:xlink="http://www.w3.org/1999/xlink" viewBox="0 0 85.18 55.31"><defs><style>.cls-1{fill:none;}.cls-2{fill:#162242;}.cls-3{fill:url(#_新規パターンスウォッチ_9);}</style><pattern id="_新規パターンスウォッチ_9" x="0" y="0" width="44.97" height="44.97" patternTransform="translate(-60.51 -424.87)" patternUnits="userSpaceOnUse" viewBox="0 0 44.97 44.97"><g><rect class="cls-1" width="44.97" height="44.97"/><rect class="cls-2" x="0" width="44.97" height="44.97"/></g></pattern></defs><g id="_レイヤー_1-2"><g><path class="cls-3" d="M64.77,7.54h-19.04c-1.08,0-1.96-.81-1.96-1.81s.88-1.81,1.96-1.81h3.38c1.08,0,1.96-.88,1.96-1.96s-.88-1.96-1.96-1.96H28.6c-1.08,0-1.96,.88-1.96,1.96s.88,1.96,1.96,1.96h8.74c1.08,0,1.96,.81,1.96,1.81s-.88,1.81-1.96,1.81h-4.04c-1.08,0-1.96,.88-1.96,1.96s.88,1.96,1.96,1.96h9.02c1.08,0,1.95,.81,1.95,1.81s-.87,1.81-1.95,1.81H23.12c-1.08,0-1.96,.88-1.96,1.96s.88,1.96,1.96,1.96h5.39c1.08,0,1.96,.81,1.96,1.81s-.88,1.81-1.96,1.81H12.93c-1.08,0-1.96,.88-1.96,1.96s.88,1.96,1.96,1.96H49.1c1.08,0,1.96-.88,1.96-1.96s-.88-1.96-1.96-1.96h-14.56c-1.08,0-1.96-.81-1.96-1.81s.88-1.81,1.96-1.81h14.56c1.08,0,1.96-.88,1.96-1.96s-.87-1.96-1.95-1.96h.81c-1.08,0-1.96-.81-1.96-1.81s.87-1.81,1.95-1.81h14.86c1.08,0,1.96-.88,1.96-1.96s-.88-1.96-1.96-1.96Z"/><path class="cls-3" d="M42.05,43.85H16.85c-1.08,0-1.96-.81-1.96-1.81s.88-1.81,1.96-1.81h10.25c1.08,0,1.96-.88,1.96-1.96s-.88-1.96-1.96-1.96H6.6c-1.08,0-1.96,.88-1.96,1.96s.88,1.96,1.96,1.96h1.87c1.08,0,1.96,.81,1.96,1.81s-.88,1.81-1.96,1.81H1.96c-1.08,0-1.96,.88-1.96,1.96s.88,1.96,1.96,1.96H20.98c1.08,0,1.95,.81,1.95,1.81s-.87,1.81-1.95,1.81H12.8c-1.08,0-1.96,.88-1.96,1.96s.88,1.96,1.96,1.96h25.98c1.08,0,1.96-.88,1.96-1.96s-.88-1.96-1.96-1.96h-10.2c-1.08,0-1.95-.81-1.95-1.81s.87-1.81,1.95-1.81h13.47c1.08,0,1.96-.88,1.96-1.96s-.88-1.96-1.96-1.96Z"/><path class="cls-3" d="M83.22,30.58h-28.34c-1.08,0-1.96,.88-1.96,1.96s.88,1.96,1.96,1.96h4.82c1.08,0,1.96,.81,1.96,1.81s-.88,1.81-1.96,1.81h-9.47c-1.08,0-1.96,.88-1.96,1.96s.88,1.96,1.96,1.96h22.07c1.08,0,1.96-.88,1.96-1.96s-.88-1.96-1.96-1.96h-4.22c-1.08,0-1.96-.81-1.96-1.81s.88-1.81,1.96-1.81h15.13c1.08,0,1.96-.88,1.96-1.96s-.88-1.96-1.96-1.96Z"/></g></g></svg>