<?xml version="1.0" encoding="UTF-8"?><svg id="_レイヤー_2" xmlns="http://www.w3.org/2000/svg" viewBox="0 0 239.53 274.67"><defs><style>.cls-1{fill:#150f59;}</style></defs><g id="decoration_japan_001_02"><g><polygon class="cls-1" points="119.79 0 103.71 8.45 119.79 16.35 135.33 8.45 119.79 0 119.79 0"/><polygon class="cls-1" points=".72 68.37 0 86.52 14.87 76.54 15.81 59.14 .72 68.37 .72 68.37"/><polygon class="cls-1" points=".45 205.71 15.81 215.4 14.6 197.54 0 188.02 .45 205.71 .45 205.71"/><polygon class="cls-1" points="119.79 258.33 103.71 266.78 119.79 274.67 135.33 266.78 119.79 258.33 119.79 258.33"/><polygon class="cls-1" points="224.44 197.54 223.72 215.69 238.59 205.71 239.53 188.3 224.44 197.54 224.44 197.54"/><polygon class="cls-1" points="224.17 76.54 239.53 86.24 238.32 68.37 223.72 58.86 224.17 76.54 224.17 76.54"/></g></g></svg>