<?xml version="1.0" encoding="UTF-8"?><svg id="_レイヤー_2" xmlns="http://www.w3.org/2000/svg" xmlns:xlink="http://www.w3.org/1999/xlink" viewBox="0 0 63.75 52.34"><defs><style>.cls-1{fill:none;}.cls-2{fill:#fff;}.cls-3{fill:#c9bc9c;}.cls-4{fill:url(#_新規パターンスウォッチ_8);}</style><pattern id="_新規パターンスウォッチ_8" x="0" y="0" width="44.97" height="44.97" patternTransform="translate(-529.48 -491.14)" patternUnits="userSpaceOnUse" viewBox="0 0 44.97 44.97"><g><rect class="cls-1" width="44.97" height="44.97"/><rect class="cls-3" x="0" width="44.97" height="44.97"/></g></pattern></defs><g id="_レイヤー_1-2"><g><g><polygon class="cls-4" points="0 16.11 4.88 19.79 4.88 3.68 0 0 0 16.11"/><polygon class="cls-4" points="5.74 19.79 10.63 16.11 10.63 0 5.74 3.68 5.74 19.79"/><polygon class="cls-4" points="0 48.34 4.88 52.02 4.88 35.91 0 32.23 0 48.34"/><polygon class="cls-4" points="5.74 52.02 10.63 48.34 10.63 32.23 5.74 35.91 5.74 52.02"/><polygon class="cls-4" points="4.88 19.79 4.88 35.91 5.31 36.23 5.74 35.91 5.74 19.79 5.31 20.11 4.88 19.79"/><polygon class="cls-2" points="4.88 3.68 4.88 19.79 5.31 20.11 5.74 19.79 5.74 3.68 5.31 4 4.88 3.68"/><polygon class="cls-2" points="4.88 35.91 4.88 52.02 5.31 52.34 5.74 52.02 5.74 35.91 5.31 36.23 4.88 35.91"/></g><g><polygon class="cls-4" points="16.37 28.56 21.25 32.23 21.25 16.12 16.37 12.45 16.37 28.56"/><polygon class="cls-4" points="10.63 32.23 15.51 28.56 15.51 12.45 10.63 16.12 10.63 32.23"/><polygon class="cls-2" points="15.51 12.45 15.51 28.56 15.94 28.23 16.37 28.56 16.37 12.45 15.94 12.13 15.51 12.45"/></g><g><polygon class="cls-4" points="21.25 16.11 26.14 19.79 26.14 3.68 21.25 0 21.25 16.11"/><polygon class="cls-4" points="26.99 19.79 31.88 16.11 31.88 0 26.99 3.68 26.99 19.79"/><polygon class="cls-4" points="21.25 48.34 26.14 52.02 26.14 35.91 21.25 32.23 21.25 48.34"/><polygon class="cls-4" points="26.99 52.02 31.88 48.34 31.88 32.23 26.99 35.91 26.99 52.02"/><polygon class="cls-4" points="26.14 19.79 26.14 35.91 26.56 36.23 26.99 35.91 26.99 19.79 26.56 20.11 26.14 19.79"/><polygon class="cls-2" points="26.14 3.68 26.14 19.79 26.56 20.11 26.99 19.79 26.99 3.68 26.56 4 26.14 3.68"/><polygon class="cls-2" points="26.14 35.91 26.14 52.02 26.56 52.34 26.99 52.02 26.99 35.91 26.56 36.23 26.14 35.91"/></g><g><polygon class="cls-4" points="37.62 28.56 42.5 32.23 42.5 16.12 37.62 12.45 37.62 28.56"/><polygon class="cls-4" points="31.88 32.23 36.76 28.56 36.76 12.45 31.88 16.12 31.88 32.23"/><polygon class="cls-2" points="36.76 12.45 36.76 28.56 37.19 28.23 37.62 28.56 37.62 12.45 37.19 12.13 36.76 12.45"/></g><g><polygon class="cls-4" points="42.5 16.11 47.39 19.79 47.39 3.68 42.5 0 42.5 16.11"/><polygon class="cls-4" points="48.24 19.79 53.13 16.11 53.13 0 48.24 3.68 48.24 19.79"/><polygon class="cls-4" points="42.5 48.34 47.39 52.02 47.39 35.91 42.5 32.23 42.5 48.34"/><polygon class="cls-4" points="48.24 52.02 53.13 48.34 53.13 32.23 48.24 35.91 48.24 52.02"/><polygon class="cls-4" points="47.39 19.79 47.39 35.91 47.81 36.23 48.24 35.91 48.24 19.79 47.81 20.11 47.39 19.79"/><polygon class="cls-2" points="47.39 3.68 47.39 19.79 47.81 20.11 48.24 19.79 48.24 3.68 47.81 4 47.39 3.68"/><polygon class="cls-2" points="47.39 35.91 47.39 52.02 47.81 52.34 48.24 52.02 48.24 35.91 47.81 36.23 47.39 35.91"/></g><g><polygon class="cls-4" points="58.87 28.56 63.75 32.23 63.75 16.12 58.87 12.45 58.87 28.56"/><polygon class="cls-4" points="53.13 32.23 58.01 28.56 58.01 12.45 53.13 16.12 53.13 32.23"/><polygon class="cls-2" points="58.01 12.45 58.01 28.56 58.44 28.23 58.87 28.56 58.87 12.45 58.44 12.13 58.01 12.45"/></g></g></g></svg>