<?xml version="1.0" encoding="UTF-8"?><svg id="_レイヤー_2" xmlns="http://www.w3.org/2000/svg" viewBox="0 0 194.66 194.09"><defs><style>.cls-1{stroke:#150f59;}.cls-1,.cls-2{fill:none;stroke-miterlimit:10;stroke-width:3px;}.cls-2{stroke:#b05f6e;}</style></defs><g id="decoration_japan_001_02"><g><path class="cls-2" d="M125.46,125.2c-15.48-15.48-15.48-40.57,0-56.05h0c-15.48-15.48-40.57-15.48-56.05,0,15.48,15.48,15.48,40.57,0,56.05,15.48,15.48,40.57,15.48,56.05,0h0Z"/><path class="cls-1" d="M125.5,125.2c15.48-15.48,40.57-15.48,56.05,0h0c15.48-15.48,15.48-40.57,0-56.05-15.48,15.48-40.57,15.48-56.05,0-15.48,15.48-15.48,40.57,0,56.05h0Z"/><path class="cls-1" d="M69.43,69.13c15.48-15.48,40.57-15.48,56.05,0h0c15.48-15.48,15.48-40.57,0-56.05-15.48,15.48-40.57,15.48-56.05,0-15.48,15.48-15.48,40.57,0,56.05h0Z"/><path class="cls-1" d="M69.43,181.26c15.48-15.48,40.57-15.48,56.05,0h0c15.48-15.48,15.48-40.57,0-56.05-15.48,15.48-40.57,15.48-56.05,0-15.48,15.48-15.48,40.57,0,56.05h0Z"/><path class="cls-1" d="M13.11,125.2c15.48-15.48,40.57-15.48,56.05,0h0c15.48-15.48,15.48-40.57,0-56.05-15.48,15.48-40.57,15.48-56.05,0-15.48,15.48-15.48,40.57,0,56.05h0Z"/><path class="cls-2" d="M69.41,69.15c-15.48-15.48-15.48-40.57,0-56.05h0c-15.48-15.48-40.57-15.48-56.05,0,15.48,15.48,15.48,40.57,0,56.05,15.48,15.48,40.57,15.48,56.05,0h0Z"/><path class="cls-2" d="M69.41,180.98c-15.48-15.48-15.48-40.57,0-56.05h0c-15.48-15.48-40.57-15.48-56.05,0,15.48,15.48,15.48,40.57,0,56.05,15.48,15.48,40.57,15.48,56.05,0h0Z"/><path class="cls-2" d="M181.55,69.15c-15.48-15.48-15.48-40.57,0-56.05h0c-15.48-15.48-40.57-15.48-56.05,0,15.48,15.48,15.48,40.57,0,56.05,15.48,15.48,40.57,15.48,56.05,0h0Z"/><path class="cls-2" d="M181.55,180.98c-15.48-15.48-15.48-40.57,0-56.05h0c-15.48-15.48-40.57-15.48-56.05,0,15.48,15.48,15.48,40.57,0,56.05,15.48,15.48,40.57,15.48,56.05,0h0Z"/></g></g></svg>