<?xml version="1.0" encoding="UTF-8"?><svg id="_レイヤー_2" xmlns="http://www.w3.org/2000/svg" xmlns:xlink="http://www.w3.org/1999/xlink" viewBox="0 0 82.78 69.9"><defs><style>.cls-1{fill:none;}.cls-2{fill:#c9bc9c;}.cls-3{fill:#162242;}.cls-4{fill:url(#_新規パターンスウォッチ_9);}.cls-5{fill:url(#_新規パターンスウォッチ_8);}</style><pattern id="_新規パターンスウォッチ_8" x="0" y="0" width="44.97" height="44.97" patternTransform="translate(-563.81 -378.14)" patternUnits="userSpaceOnUse" viewBox="0 0 44.97 44.97"><g><rect class="cls-1" width="44.97" height="44.97"/><rect class="cls-2" x="0" width="44.97" height="44.97"/></g></pattern><pattern id="_新規パターンスウォッチ_9" x="0" y="0" width="44.97" height="44.97" patternTransform="translate(-591.73 -393.11)" patternUnits="userSpaceOnUse" viewBox="0 0 44.97 44.97"><g><rect class="cls-1" width="44.97" height="44.97"/><rect class="cls-3" x="0" width="44.97" height="44.97"/></g></pattern></defs><g id="_レイヤー_1-2"><g><path class="cls-5" d="M41.54,0C22.27,0,6.59,15.68,6.59,34.95s15.68,34.95,34.95,34.95,34.95-15.68,34.95-34.95S60.82,0,41.54,0Zm0,67.9c-18.17,0-32.95-14.78-32.95-32.95S23.38,2,41.54,2s32.95,14.78,32.95,32.95-14.78,32.95-32.95,32.95Z"/><path class="cls-4" d="M42.05,49.96H16.85c-1.08,0-1.96-.81-1.96-1.81s.88-1.81,1.96-1.81h10.25c1.08,0,1.96-.88,1.96-1.96s-.88-1.96-1.96-1.96H6.6c-1.08,0-1.96,.88-1.96,1.96s.88,1.96,1.96,1.96h1.87c1.08,0,1.96,.81,1.96,1.81s-.88,1.81-1.96,1.81H1.96c-1.08,0-1.96,.88-1.96,1.96s.88,1.96,1.96,1.96H20.98c1.08,0,1.95,.81,1.95,1.81s-.87,1.81-1.95,1.81H12.8c-1.08,0-1.96,.88-1.96,1.96s.88,1.96,1.96,1.96h25.98c1.08,0,1.96-.88,1.96-1.96s-.88-1.96-1.96-1.96h-10.2c-1.08,0-1.95-.81-1.95-1.81s.87-1.81,1.95-1.81h13.47c1.08,0,1.96-.88,1.96-1.96s-.88-1.96-1.96-1.96Z"/><path class="cls-4" d="M80.82,29.22h-31.34c-1.08,0-1.96,.88-1.96,1.96s.88,1.96,1.96,1.96h4.82c1.08,0,1.96,.81,1.96,1.81s-.88,1.81-1.96,1.81h-9.47c-1.08,0-1.96,.88-1.96,1.96s.88,1.96,1.96,1.96h22.07c1.08,0,1.96-.88,1.96-1.96s-.88-1.96-1.96-1.96h-4.22c-1.08,0-1.96-.81-1.96-1.81s.88-1.81,1.96-1.81h18.13c1.08,0,1.96-.88,1.96-1.96s-.88-1.96-1.96-1.96Z"/></g></g></svg>