<?xml version="1.0" encoding="UTF-8"?><svg id="_レイヤー_2" xmlns="http://www.w3.org/2000/svg" xmlns:xlink="http://www.w3.org/1999/xlink" viewBox="0 0 414.34 157.22"><defs><style>.cls-1{fill:url(#_名称未設定グラデーション_2-9);}.cls-2{fill:url(#_名称未設定グラデーション_2-8);}.cls-3{fill:url(#_名称未設定グラデーション_2-3);}.cls-4{fill:url(#_名称未設定グラデーション_2-6);}.cls-5{fill:url(#_名称未設定グラデーション_2-7);}.cls-6{fill:url(#_名称未設定グラデーション_2-2);}.cls-7{fill:url(#_名称未設定グラデーション_2-4);}.cls-8{fill:url(#_名称未設定グラデーション_2-5);}.cls-9{fill:url(#_名称未設定グラデーション_2);}</style><linearGradient id="_名称未設定グラデーション_2" x1="-1065.79" y1="-668.11" x2="873.59" y2="659.72" gradientUnits="userSpaceOnUse"><stop offset=".03" stop-color="#fbe1b6"/><stop offset=".59" stop-color="#c19a3d"/><stop offset=".74" stop-color="#c89f3f"/><stop offset=".95" stop-color="#dbaf46"/><stop offset="1" stop-color="#e1b448"/></linearGradient><linearGradient id="_名称未設定グラデーション_2-2" x1="-1070.16" y1="-661.73" x2="869.23" y2="666.1" xlink:href="#_名称未設定グラデーション_2"/><linearGradient id="_名称未設定グラデーション_2-3" x1="-1075.58" y1="-653.81" x2="863.8" y2="674.03" xlink:href="#_名称未設定グラデーション_2"/><linearGradient id="_名称未設定グラデーション_2-4" x1="-994.29" y1="-772.54" x2="945.09" y2="555.29" xlink:href="#_名称未設定グラデーション_2"/><linearGradient id="_名称未設定グラデーション_2-5" x1="-998.67" y1="-766.17" x2="940.72" y2="561.67" xlink:href="#_名称未設定グラデーション_2"/><linearGradient id="_名称未設定グラデーション_2-6" x1="-1004.09" y1="-758.24" x2="935.29" y2="569.59" xlink:href="#_名称未設定グラデーション_2"/><linearGradient id="_名称未設定グラデーション_2-7" x1="-995.66" y1="-770.55" x2="943.73" y2="557.28" xlink:href="#_名称未設定グラデーション_2"/><linearGradient id="_名称未設定グラデーション_2-8" x1="-1000.03" y1="-764.18" x2="939.36" y2="563.66" xlink:href="#_名称未設定グラデーション_2"/><linearGradient id="_名称未設定グラデーション_2-9" x1="-1005.45" y1="-756.25" x2="933.93" y2="571.59" xlink:href="#_名称未設定グラデーション_2"/></defs><g id="_アートボードのガイド"><g><g><path class="cls-9" d="M93.89,74.79c-37.29-.45-70.4,24.35-89.59,62.01-1.42-.37-2.85-.73-4.3-1.02,19.77-40.13,54.63-66.68,93.95-66.2,39.32,.48,73.52,27.87,92.31,68.47-1.45,.26-2.89,.58-4.32,.92-18.27-38.12-50.76-63.72-88.05-64.18Z"/><path class="cls-6" d="M93.62,96.97c-29.33-.36-55.57,17.95-71.97,46.32-1.3-.65-2.63-1.24-3.95-1.82,17.09-30.39,44.87-50.09,75.98-49.71,31.11,.38,58.41,20.75,74.75,51.55-1.34,.55-2.68,1.11-4,1.72-15.7-28.76-41.48-47.7-70.82-48.05Z"/><path class="cls-3" d="M93.41,113.93c23.97,.29,45.16,15.17,58.64,38.02-1.22,.8-2.43,1.63-3.62,2.48-12.77-21.23-32.64-35.02-55.08-35.29s-42.64,13.02-55.93,33.94c-1.17-.88-2.36-1.74-3.56-2.57,14.03-22.52,35.58-36.88,59.55-36.58Z"/></g><g><path class="cls-7" d="M321.97,77.57c-37.29-.45-70.4,24.35-89.59,62.01-1.42-.37-2.85-.73-4.3-1.02,19.77-40.13,54.63-66.68,93.95-66.2,39.32,.48,73.52,27.87,92.31,68.47-1.45,.26-2.89,.58-4.32,.92-18.27-38.12-50.76-63.72-88.05-64.18Z"/><path class="cls-8" d="M321.7,99.75c-29.33-.36-55.57,17.95-71.97,46.32-1.3-.65-2.63-1.24-3.95-1.82,17.09-30.39,44.87-50.09,75.98-49.71,31.11,.38,58.41,20.75,74.75,51.55-1.34,.55-2.68,1.11-4,1.72-15.7-28.76-41.48-47.7-70.82-48.05Z"/><path class="cls-4" d="M321.49,116.71c23.97,.29,45.16,15.17,58.64,38.02-1.22,.8-2.43,1.63-3.62,2.48-12.77-21.23-32.64-35.02-55.08-35.29-22.44-.27-42.64,13.02-55.93,33.94-1.17-.88-2.36-1.74-3.56-2.57,14.03-22.52,35.58-36.88,59.55-36.58Z"/></g><g><path class="cls-5" d="M212.03,5.22c-37.29-.45-70.4,24.35-89.59,62.01-1.42-.37-2.85-.73-4.3-1.02C137.92,26.08,172.77-.47,212.09,0c39.32,.48,73.52,27.87,92.31,68.47-1.45,.26-2.89,.58-4.32,.92C281.81,31.27,249.32,5.68,212.03,5.22Z"/><path class="cls-2" d="M211.76,27.4c-29.33-.36-55.57,17.95-71.97,46.32-1.3-.65-2.63-1.24-3.95-1.82,17.09-30.39,44.87-50.09,75.98-49.71,31.11,.38,58.41,20.75,74.75,51.55-1.34,.55-2.68,1.11-4,1.72-15.7-28.76-41.48-47.7-70.82-48.05Z"/><path class="cls-1" d="M211.55,44.36c23.97,.29,45.16,15.17,58.64,38.02-1.22,.8-2.43,1.63-3.62,2.48-12.77-21.23-32.64-35.02-55.08-35.29-22.44-.27-42.64,13.02-55.93,33.94-1.17-.89-2.36-1.74-3.56-2.57,14.03-22.52,35.58-36.88,59.55-36.58Z"/></g></g></g></svg>