<?xml version="1.0" encoding="UTF-8"?><svg id="_レイヤー_2" xmlns="http://www.w3.org/2000/svg" xmlns:xlink="http://www.w3.org/1999/xlink" viewBox="0 0 283.86 121.18"><defs><style>.cls-1{fill:url(#_名称未設定グラデーション_2);}</style><linearGradient id="_名称未設定グラデーション_2" x1="-1056.13" y1="-792.25" x2="883.25" y2="535.58" gradientUnits="userSpaceOnUse"><stop offset=".03" stop-color="#fbe1b6"/><stop offset=".59" stop-color="#c19a3d"/><stop offset=".74" stop-color="#c89f3f"/><stop offset=".95" stop-color="#dbaf46"/><stop offset="1" stop-color="#e1b448"/></linearGradient></defs><g id="_アートボードのガイド"><path class="cls-1" d="M10.46,22.71c6.79-4.83,27.95-7.46,35.92-6.2,7.71,1.23,13.86,7.99,13.92,8.06,.33,.37,.82,.56,1.31,.49,.49-.06,.92-.36,1.16-.79,7.17-13.45,25.1-15.9,32.66-14.97,2.94,.36,8.49,4.1,13.42,10.57,5.81,7.62,8.53,16.06,7.48,23.17-1.11,7.49-6.36,13.46-13.71,15.57-6.89,1.98-13.77-.06-18.39-5.47-4.1-4.8-4.5-10.62-1.09-15.96,3.56-5.59,10.42-9.04,15.3-7.68,4.91,1.37,6.19,5.74,5.8,9.06-.44,3.66-3.05,7.43-7.91,7.59-.84,.03-1.49,.73-1.47,1.57,.03,.84,.75,1.48,1.57,1.47,6.66-.23,10.23-5.32,10.82-10.27,.58-4.87-1.67-10.58-8-12.35-6.17-1.71-14.37,2.22-18.67,8.97-4.12,6.45-3.61,13.77,1.35,19.57,5.42,6.34,13.47,8.73,21.54,6.41,8.37-2.41,14.6-9.49,15.87-18.05,1.17-7.91-1.77-17.19-8.07-25.46-2.35-3.09-4.99-5.75-7.57-7.78,2.62-2.72,9.5-8.73,19.27-8.73,12.35,0,19.62,16.03,19.69,16.19l1.96,4.41,.92-4.74c.09-.45,2.56-11.18,21.4-7.72,19.67,3.61,26.35,18.82,26.42,18.97l1.35,3.18,1.43-3.15c6.6-14.57,18.14-15.3,24.43-14.43,2.97,.41,6.75,3.83,10.75,7.45,8.02,7.26,18,16.3,30.55,10.54,12.81-5.88,19.2-22.23,21.99-32.24-.54,4.21-2.12,10.78-6,20.93-4.07,10.63-12.49,18.07-25.03,22.12-9.38,3.03-17.7,2.93-17.96,2.92h-.04l-.03,3.04c-.65-.02-.8-.51-.8-.52,.02,.08,.31,1.98-5.35,10.09-4.55,6.52-11.87,10.48-18.18,9.89-4.43-.42-7.86-3.01-9.94-7.45,.07-2.69-.24-5.33-1.1-7.77-1.84-5.25-5.98-8.92-11.96-10.62-2.15-.61-4.16-.88-6.03-.88-7.1,0-12.06,3.95-13.97,8.46-2.28,5.39-.85,12.99,7.49,17.8l1.52-2.63c-7.19-4.15-7.84-10.13-6.21-13.99,1.97-4.66,7.8-8.27,16.37-5.84,5.07,1.44,8.41,4.36,9.93,8.7,2.67,7.62-.73,18.34-5.48,24.98-3.88,5.44-12.35,9-20.13,8.49-5.25-.35-12.47-2.6-17.15-11.33-2.95-8.36-7.27-13.96-12.88-16.63-5.91-2.81-13.17-2.34-21.57,1.39-13.03,5.79-14.36,14.07-14,18.49,.53,6.35,5.14,12.22,10.72,13.67,6.27,1.62,13.1-.15,16.23-4.2,2.06-2.67,2.21-5.91,.41-9.14-1.59-2.86-3.66-4.6-6.15-5.18-3.78-.88-7.04,1.35-7.18,1.45l1.73,2.49s2.32-1.55,4.78-.98c1.61,.38,3.01,1.62,4.16,3.69,1.2,2.16,1.15,4.11-.16,5.8-2.35,3.03-8.09,4.41-13.07,3.12-3.79-.98-7.98-5.35-8.45-10.97-.52-6.24,3.82-11.73,12.2-15.46,7.55-3.36,13.96-3.84,19.03-1.42,5.68,2.7,9.91,9.06,12.57,18.88,2.09,7.7,.42,20.13-6.81,28.98-6.34,7.75-15.9,11.46-27.65,10.7-30.2-1.94-32.76-29.92-32.85-31.11l-.42-5.28-2.44,4.7c-.04,.08-4.12,7.79-11.04,9.7-3.53,.98-7.28,.27-11.13-2.1-3.54-2.18-5.66-5.03-6.31-8.48-1.49-7.88,4.91-16.47,4.97-16.55l2.59-3.43-4.17,1.04c-.1,.02-.28,.08-.54,.16-7.44,2.43-11.71,1.28-13.97-.12-2.67-1.65-4.35-4.69-5.01-9.05-2.44-16.26,8.72-22.78,9.2-23.05l-1.44-2.68c-10.17,5.2-17.02,.54-20.98-4.3-1.65-2.01-5.98-4.01-11.14-4.01-.11,0-.21,0-.32,0-2.44,.04-9.49,4.01-12.75,5.46,2.13-2.24,8.42-7.82,10.46-9.27Z"/></g></svg>