<?xml version="1.0" encoding="UTF-8"?><svg id="_レイヤー_2" xmlns="http://www.w3.org/2000/svg" viewBox="0 0 210.17 202.82"><defs><style>.cls-1{fill:#9e8f8f;}.cls-2{fill:#b05f6e;}.cls-3{fill:#e2c5c0;}</style></defs><g id="decoration_japan_001_02"><g><g><path class="cls-2" d="M72.86,82.38c0,1.55-1.26,2.81-2.81,2.81s-2.81-1.26-2.81-2.81,1.26-2.81,2.81-2.81,2.81,1.26,2.81,2.81Z"/><path class="cls-2" d="M74.73,72.48c0,2.51-2.61,4.84-3.93,6.1-.41,.39-1.08,.39-1.5,0-1.32-1.26-3.93-3.59-3.93-6.1,0-1.72,1.22-3.44,2.42-4.25,1.36-.93,3.16-.93,4.52,0,1.2,.81,2.42,2.53,2.42,4.25Z"/><path class="cls-2" d="M62.07,74.87c2.39,.78,3.8,3.98,4.59,5.62,.25,.52,.04,1.15-.46,1.43-1.6,.87-4.63,2.63-7.01,1.85-1.64-.53-2.89-2.23-3.29-3.61-.46-1.58,.1-3.29,1.4-4.3,1.14-.89,3.15-1.52,4.79-.99Z"/><path class="cls-2" d="M60.44,87.65c1.48-2.03,4.96-2.39,6.76-2.62,.57-.07,1.11,.32,1.21,.88,.33,1.79,1.07,5.21-.41,7.24-1.01,1.39-3.01,2.06-4.46,2.02-1.64-.05-3.1-1.11-3.66-2.66-.49-1.36-.47-3.47,.54-4.86Z"/><path class="cls-2" d="M72.09,93.15c-1.48-2.03-.74-5.45-.41-7.24,.1-.56,.65-.96,1.21-.88,1.81,.24,5.29,.59,6.76,2.62,1.01,1.39,1.03,3.5,.54,4.86-.56,1.55-2.01,2.61-3.66,2.66-1.45,.04-3.44-.62-4.46-2.02Z"/><path class="cls-2" d="M80.92,83.77c-2.39,.78-5.41-.98-7.01-1.85-.5-.27-.71-.91-.46-1.43,.79-1.65,2.2-4.85,4.59-5.62,1.64-.53,3.65,.1,4.79,.99,1.3,1.01,1.86,2.72,1.4,4.3-.4,1.39-1.66,3.08-3.29,3.61Z"/></g><g><path class="cls-2" d="M142.66,82.38c0,1.55-1.26,2.81-2.81,2.81s-2.81-1.26-2.81-2.81,1.26-2.81,2.81-2.81,2.81,1.26,2.81,2.81Z"/><path class="cls-2" d="M144.53,72.48c0,2.51-2.61,4.84-3.93,6.1-.41,.39-1.08,.39-1.5,0-1.32-1.26-3.93-3.59-3.93-6.1,0-1.72,1.22-3.44,2.42-4.25,1.36-.93,3.16-.93,4.52,0,1.2,.81,2.42,2.53,2.42,4.25Z"/><path class="cls-2" d="M131.88,74.87c2.39,.78,3.8,3.98,4.59,5.62,.25,.52,.04,1.15-.46,1.43-1.6,.87-4.63,2.63-7.01,1.85-1.64-.53-2.89-2.23-3.29-3.61-.46-1.58,.1-3.29,1.4-4.3,1.14-.89,3.15-1.52,4.79-.99Z"/><path class="cls-2" d="M130.24,87.65c1.48-2.03,4.96-2.39,6.76-2.62,.57-.07,1.11,.32,1.21,.88,.33,1.79,1.07,5.21-.41,7.24-1.01,1.39-3.01,2.06-4.46,2.02-1.64-.05-3.1-1.11-3.66-2.66-.49-1.36-.47-3.47,.54-4.86Z"/><path class="cls-2" d="M141.89,93.15c-1.48-2.03-.74-5.45-.41-7.24,.1-.56,.65-.96,1.21-.88,1.81,.24,5.29,.59,6.76,2.62,1.01,1.39,1.03,3.5,.54,4.86-.56,1.55-2.01,2.61-3.66,2.66-1.45,.04-3.44-.62-4.46-2.02Z"/><path class="cls-2" d="M150.72,83.77c-2.39,.78-5.41-.98-7.01-1.85-.5-.27-.71-.91-.46-1.43,.79-1.65,2.2-4.85,4.59-5.62,1.64-.53,3.65,.1,4.79,.99,1.3,1.01,1.86,2.72,1.4,4.3-.4,1.39-1.66,3.08-3.29,3.61Z"/></g><g><circle class="cls-2" cx="105.08" cy="142.2" r="2.81"/><path class="cls-2" d="M109.76,132.3c0,2.51-2.61,4.84-3.93,6.1-.41,.39-1.08,.39-1.5,0-1.32-1.26-3.93-3.59-3.93-6.1,0-1.72,1.22-3.44,2.42-4.25,1.36-.93,3.16-.93,4.52,0,1.2,.81,2.42,2.53,2.42,4.25Z"/><path class="cls-2" d="M97.11,134.69c2.39,.78,3.8,3.98,4.59,5.62,.25,.52,.04,1.15-.46,1.43-1.6,.87-4.63,2.63-7.01,1.85-1.64-.53-2.89-2.23-3.29-3.61-.46-1.58,.1-3.29,1.4-4.3,1.14-.89,3.15-1.52,4.79-.99Z"/><path class="cls-2" d="M95.48,147.47c1.48-2.03,4.96-2.39,6.76-2.62,.57-.07,1.11,.32,1.21,.88,.33,1.79,1.07,5.21-.41,7.24-1.01,1.39-3.01,2.06-4.46,2.02-1.64-.05-3.1-1.11-3.66-2.66-.49-1.36-.47-3.47,.54-4.86Z"/><path class="cls-2" d="M107.12,152.97c-1.48-2.03-.74-5.45-.41-7.24,.1-.56,.65-.96,1.21-.88,1.81,.24,5.29,.59,6.76,2.62,1.01,1.39,1.03,3.5,.54,4.86-.56,1.55-2.01,2.61-3.66,2.66-1.45,.04-3.44-.62-4.46-2.02Z"/><path class="cls-2" d="M115.95,143.59c-2.39,.78-5.41-.98-7.01-1.85-.5-.27-.71-.91-.46-1.43,.79-1.65,2.2-4.85,4.59-5.62,1.64-.53,3.65,.1,4.79,.99,1.3,1.01,1.86,2.72,1.4,4.3-.4,1.39-1.66,3.08-3.29,3.61Z"/></g><g><g><path class="cls-1" d="M84.49,73.92l20.72-12.26c-.31-.43-.52-.92-.64-1.44l-20.77,12.29c.32,.42,.56,.9,.69,1.42Z"/><path class="cls-3" d="M70.32,1.81l34.51,19.69c.24-.48,.58-.9,1.01-1.23L70.32,0,34.77,20.53V61.58l21.31,12.31c.3-.44,.62-.86,.97-1.26l-20.71-11.96V21.43L70.32,1.81Z"/><path class="cls-1" d="M104.89,20.28c-.19,.03-.38,.04-.59,.04,0,0,0,0,0,0V62.06c.13-.01,.26-.02,.4-.02,.43,0,.82,.06,1.17,.17V20.3c-.12,.01-.25,.02-.38,.02-.21,0-.41-.02-.6-.04Z"/><path class="cls-3" d="M105.12,21.25c-.29-.28-.56-.58-.81-.89l-33.99,19.78L35.94,20.3l-.79,1.36,34.37,19.85v23.43c.21-.02,.42-.03,.64-.03,.32,0,.63,.03,.93,.06v-23.46l34.2-19.91c-.06-.12-.13-.23-.19-.35Z"/><path class="cls-3" d="M104.84,22.55c.06-.55,.23-1.09,.49-1.57H35.55l27.23,47.16c.48-.23,.97-.43,1.46-.61L38.27,22.55H104.84Z"/><path class="cls-3" d="M103.69,19.21l-26.79,47.45c.55,.12,1.04,.31,1.5,.55l26.49-46.93c-.49-.26-.9-.63-1.2-1.07Z"/></g><g><path class="cls-1" d="M127.33,73.06l-22.19-12.84c-.07,.54-.24,1.06-.5,1.52l21.35,12.36c.34-.44,.79-.8,1.34-1.04Z"/><path class="cls-3" d="M139.85,0l-36.1,20.6c.46,.31,.82,.72,1.09,1.19L139.85,1.81l33.98,19.62V60.67l-19.08,11.01c.59,.23,1.12,.53,1.57,.9l19.07-11.01V20.53L139.85,0Z"/><path class="cls-3" d="M104.89,20.28c-.19,.03-.38,.04-.59,.04,0,0,0,0,0,0V62.06c.13-.01,.26-.02,.4-.02,.43,0,.82,.06,1.17,.17V20.3c-.12,.01-.25,.02-.38,.02-.21,0-.41-.02-.6-.04Z"/><path class="cls-3" d="M139.07,64.52c.29-.07,.61-.11,.95-.11,.22,0,.43,.02,.62,.05v-22.96l34.37-19.85-.79-1.36-34.37,19.85-34.61-19.82c-.28,.46-.57,.9-.87,1.31l34.69,19.87v23.02Z"/><path class="cls-3" d="M133.12,66.39l-26.5-46.37c-.42,.28-.91,.47-1.49,.56l26.77,46.84c.31-.42,.72-.78,1.22-1.02Z"/><path class="cls-3" d="M146.2,67.05c.52,.2,.96,.5,1.3,.88l27.11-46.95H105.4c-.01,.52-.07,1.05-.15,1.57h66.64l-25.69,44.5Z"/></g><g><path class="cls-3" d="M105.09,158.17c-.27,0-.54-.01-.79-.04v23.25l-33.98,19.62-33.98-19.62v-39.24l33.98-19.62,18.81,10.86c.25-.47,.59-.9,1.03-1.22l-19.84-11.45-35.55,20.53v41.05l35.55,20.53,35.55-20.53v-24.16c-.25,.03-.51,.04-.78,.04Z"/><path class="cls-3" d="M90.05,149.46l-19.74,11.39-34.37-19.85-.79,1.36,34.37,19.85v39.69h1.57v-39.69l19.27-11.13c-.17-.53-.28-1.07-.32-1.63Z"/><path class="cls-3" d="M70.32,198.77l-32.05-55.5h51.65c-.25-.48-.4-1.02-.45-1.57H35.55l34.77,60.22,25.52-44.19c-.57-.07-1.1-.21-1.58-.4l-23.93,41.45Z"/></g><g><path class="cls-3" d="M139.85,120.71l-20.65,11.92c.36,.39,.67,.82,.92,1.28l19.73-11.39,33.98,19.62v39.24l-33.98,19.62-33.98-19.62v-23.25c-.25,.03-.51,.04-.78,.04s-.54-.01-.79-.04v24.16l35.55,20.53,35.55-20.53v-41.05l-35.55-20.53Z"/><path class="cls-3" d="M174.22,141.01l-34.37,19.85-20.92-12.08c-.11,.25-.25,.48-.37,.72,.02,.29,.02,.59,0,.88l20.51,11.84v39.69h1.57v-39.69l34.37-19.85-.79-1.36Z"/><path class="cls-3" d="M120.1,141.69c.05,.52,.08,1.05,.07,1.57h51.72l-32.05,55.5-24.58-42.58c-.41,.3-.87,.55-1.38,.75l25.96,44.97,34.77-60.22h-54.51Z"/></g><g><path class="cls-3" d="M84.49,73.92l20.72-12.26c-.31-.43-.52-.92-.64-1.44l-20.77,12.29c.32,.42,.56,.9,.69,1.42Z"/><path class="cls-3" d="M127.33,73.06l-22.19-12.84c-.07,.54-.24,1.06-.5,1.52l21.35,12.36c.34-.44,.79-.8,1.34-1.04Z"/><path class="cls-3" d="M105.2,102.05l20.9-12.01c-.14-.43-.24-.88-.3-1.33-.03-.08-.07-.17-.1-.25l-20.96,12.04c.25,.48,.4,1.01,.45,1.55Z"/><path class="cls-3" d="M105.64,100.49l-20.42-11.59c-.03,.56-.12,1.12-.27,1.66l20.24,11.49c.05-.54,.2-1.08,.45-1.56Z"/><path class="cls-3" d="M105.09,100.06c-.28,0-.54-.03-.79-.07v26.42c.52-.12,1.04-.2,1.57-.22v-26.2c-.24,.04-.5,.07-.78,.07Z"/><path class="cls-3" d="M112.6,128.4l18.21-31.54c-.49-.23-.93-.53-1.31-.86l-18.26,31.62c.46,.24,.92,.5,1.36,.78Z"/><path class="cls-3" d="M99.33,128.3l-18.49-32.03c-.38,.35-.81,.65-1.29,.9l18.33,31.74c.48-.18,.97-.39,1.46-.61Z"/><path class="cls-3" d="M124.08,82.77c-.09-.39-.12-.79-.1-1.19-.03-.13-.07-.25-.09-.38h-37.08c.04,.52,.02,1.05-.05,1.57h37.33Z"/></g><g><path class="cls-3" d="M69.53,98.63v22.26l-33.98,19.62L1.57,120.89v-39.24l33.98-19.62,20.53,11.85c.3-.44,.62-.86,.97-1.26l-21.49-12.41L0,80.74v41.05l35.55,20.53,35.55-20.53v-23.45c-.48,.15-1.01,.25-1.57,.29Z"/><path class="cls-3" d="M54.18,89.6l-18.63,10.76L1.18,80.51l-.79,1.36,34.37,19.85v39.69h1.57v-39.69l18.68-10.78c-.33-.41-.61-.86-.83-1.33Z"/><path class="cls-3" d="M60.77,96.15s0,0,0,0c-.24-.1-.47-.22-.69-.35l-24.52,42.47L3.51,82.77H53.67c-.04-.51-.05-1.04-.03-1.57H.79l34.77,60.22,25.98-45h0c-.26-.07-.52-.16-.76-.26Z"/></g><g><path class="cls-3" d="M174.62,60.22l-19.86,11.47c.59,.23,1.12,.53,1.57,.9l18.29-10.56,33.98,19.62v39.24l-33.98,19.62-33.98-19.62v-22.99c-.2,.03-.41,.05-.62,.05-.34,0-.65-.04-.95-.11v23.95l35.55,20.53,35.55-20.53v-41.05l-35.55-20.53Z"/><path class="cls-3" d="M208.99,80.51l-34.37,19.85-21.55-12.44c-.08,.08-.17,.15-.26,.22,.14,.52,.24,1.06,.27,1.6l20.75,11.98v39.69h1.57v-39.69l34.37-19.85-.79-1.36Z"/><path class="cls-3" d="M157.82,81.2c-.31,.58-.7,1.11-1.19,1.57h50.03l-32.05,55.5-24.52-42.46c-.44,.26-.93,.46-1.46,.61l25.98,44.99,34.77-60.22h-51.56Z"/></g></g></g></g></svg>