<?xml version="1.0" encoding="UTF-8"?><svg id="_レイヤー_2" xmlns="http://www.w3.org/2000/svg" viewBox="0 0 197.36 198.88"><defs><style>.cls-1{fill:none;stroke:#150f59;stroke-miterlimit:10;stroke-width:3px;}</style></defs><g id="decoration_japan_001_02"><g><g><polygon class="cls-1" points="50.64 1.73 2.6 29.47 2.6 84.94 50.64 112.68 98.68 84.94 98.68 29.47 50.64 1.73"/><polygon class="cls-1" points="50.64 57.2 2.6 29.47 50.64 57.2 50.64 112.68 50.64 57.2 98.68 29.47 50.64 57.2"/><polygon class="cls-1" points="2.6 29.47 50.64 112.68 98.68 29.47 2.6 29.47"/></g><g><polygon class="cls-1" points="146.72 1.73 98.68 29.47 98.68 84.94 146.72 112.68 194.76 84.94 194.76 29.47 146.72 1.73"/><polygon class="cls-1" points="146.72 57.2 98.68 29.47 146.72 57.2 146.72 112.68 146.72 57.2 194.76 29.47 146.72 57.2"/><polygon class="cls-1" points="98.68 29.47 146.72 112.68 194.76 29.47 98.68 29.47"/></g><g><polygon class="cls-1" points="98.68 84.94 50.64 112.68 50.64 168.15 98.68 195.88 146.72 168.15 146.72 112.68 98.68 84.94"/><polygon class="cls-1" points="98.68 140.41 50.64 112.68 98.68 140.41 98.68 195.88 98.68 140.41 146.72 112.68 98.68 140.41"/><polygon class="cls-1" points="50.64 112.68 98.68 195.88 146.72 112.68 50.64 112.68"/></g></g></g></svg>