<?xml version="1.0" encoding="UTF-8"?><svg id="_レイヤー_2" xmlns="http://www.w3.org/2000/svg" xmlns:xlink="http://www.w3.org/1999/xlink" viewBox="0 0 157.3 153.89"><defs><style>.cls-1{fill:url(#_名称未設定グラデーション_2);}</style><linearGradient id="_名称未設定グラデーション_2" x1="-952.79" y1="-622.27" x2="986.59" y2="705.56" gradientUnits="userSpaceOnUse"><stop offset=".03" stop-color="#fbe1b6"/><stop offset=".59" stop-color="#c19a3d"/><stop offset=".74" stop-color="#c89f3f"/><stop offset=".95" stop-color="#dbaf46"/><stop offset="1" stop-color="#e1b448"/></linearGradient></defs><g id="_アートボードのガイド"><path class="cls-1" d="M157.3,69.5c-.12-10.81-4.44-20.92-12.17-28.48-7.52-7.36-17.38-11.44-27.87-11.54C112.4,12.12,96.08-.12,77.89,0c-18.52,.2-34.24,12.88-38.73,30.34-10.48,.33-20.26,4.62-27.62,12.15C3.98,50.21-.12,60.42,0,71.23c.15,13.89,7.5,26.67,19.13,33.91-.61,2.88-.91,5.8-.88,8.73,.25,22.16,18.36,40.02,40.46,40.02h.44c7.25-.08,14.2-2.07,20.35-5.78,6.22,3.58,12.94,5.4,20.46,5.33,10.81-.12,20.92-4.44,28.49-12.17,7.56-7.73,11.65-17.93,11.54-28.74-.03-2.93-.39-5.84-1.07-8.72,11.46-7.49,18.53-20.42,18.37-34.31Zm-70.7,9.87c0,.31-.02,.64-.06,.96l12.28,5.69c1.15-1.15,2.71-1.82,4.37-1.84h.08c3.44,0,6.25,2.78,6.29,6.23,.03,3.46-2.76,6.31-6.23,6.36h-.07c-1.65,0-3.22-.64-4.4-1.8-1.2-1.17-1.88-2.75-1.9-4.43,0-.14,0-.28,.01-.42l-12.33-5.72c-.83,.89-1.86,1.56-3.02,1.94l.15,13.94c2.35,.91,3.96,3.17,4,5.78,.03,3.47-2.76,6.32-6.23,6.36h-.07c-1.65,0-3.22-.64-4.4-1.8-1.2-1.18-1.88-2.75-1.9-4.43-.02-2.69,1.66-5.04,4.1-5.94l-.15-13.87c-1.16-.36-2.21-1-3.06-1.87l-13.44,6.6v.17c.02,1.69-.62,3.27-1.8,4.47-1.17,1.2-2.75,1.87-4.43,1.89h-.07c-3.44,0-6.25-2.78-6.3-6.22-.04-3.47,2.75-6.33,6.23-6.37h.07c1.7,0,3.33,.71,4.51,1.93l13.24-6.49c-.05-.32-.07-.64-.08-.96,0-.31,.02-.64,.06-.96l-14.26-6.61c-1.11,.96-2.52,1.5-4.01,1.52h-.06c-3.45,0-6.27-2.78-6.3-6.23-.04-3.47,2.75-6.33,6.23-6.37h.06c3.44,0,6.26,2.78,6.31,6.23,0,.3-.01,.6-.06,.9l13.99,6.49c.83-.89,1.86-1.55,3.02-1.94l-.16-14.25c-2.38-.89-4.07-3.19-4.11-5.82-.03-3.47,2.77-6.33,6.23-6.36h.07c1.65,0,3.22,.64,4.4,1.8,1.2,1.18,1.88,2.75,1.89,4.43,.02,2.63-1.62,4.96-3.99,5.9l.16,14.25c1.16,.36,2.21,1,3.05,1.87l12.76-6.26v-.04c-.02-1.68,.62-3.27,1.8-4.47,1.17-1.2,2.75-1.87,4.43-1.89h.07c3.44,0,6.25,2.78,6.29,6.22,.04,3.47-2.75,6.33-6.23,6.37-1.79-.02-3.46-.73-4.66-2.01l-12.47,6.12c.05,.33,.07,.64,.08,.96Z"/></g></svg>