<?xml version="1.0" encoding="utf-8"?>
<!-- Generator: Adobe Illustrator 27.0.1, SVG Export Plug-In . SVG Version: 6.00 Build 0)  -->
<svg version="1.1" id="_レイヤー_2" xmlns="http://www.w3.org/2000/svg" xmlns:xlink="http://www.w3.org/1999/xlink" x="0px"
	 y="0px" viewBox="0 0 274.2 274.2" style="enable-background:new 0 0 274.2 274.2;" xml:space="preserve">
<style type="text/css">
	.st0{fill-rule:evenodd;clip-rule:evenodd;fill:#B05F6E;}
	.st1{fill-rule:evenodd;clip-rule:evenodd;fill:#150F59;}
	.st2{fill:#FFFFFF;}
	.st3{font-family:'TsukuAOldMinPr6N-L-83pv-RKSJ-H';}
	.st4{font-size:36px;}
</style>
<g id="decoration_japan_001_02">
	<g>
		<path class="st0" d="M155.5,274.1c-1.6,0.2-3.3-0.5-4.2-1.9c-0.9-1.4-1-3.1-0.2-4.6c9.8-18,28.9-30.2,50.8-30.2
			c5.9,0,11.5,0.9,16.9,2.5c1.6,0.5,2.8,1.8,3.1,3.4s-0.4,3.3-1.7,4.3C201.6,261.6,179.5,270.9,155.5,274.1L155.5,274.1L155.5,274.1
			z"/>
		<path class="st1" d="M54.1,247.7c-1.3-1-2-2.7-1.7-4.3c0.3-1.6,1.5-3,3-3.4c5.3-1.6,11-2.5,16.9-2.5c21.9,0,41,12.2,50.8,30.2
			c0.8,1.5,0.7,3.2-0.2,4.6c-0.9,1.4-2.6,2.1-4.2,1.9C94.7,270.9,72.6,261.6,54.1,247.7L54.1,247.7L54.1,247.7z"/>
		<path class="st1" d="M267.7,151.1c1.5-0.8,3.2-0.7,4.6,0.2s2.1,2.6,1.9,4.2c-3.2,24-12.6,46.1-26.5,64.6c-1,1.3-2.6,2-4.3,1.7
			c-1.6-0.3-3-1.5-3.4-3.1c-1.6-5.3-2.5-11-2.5-16.9C237.4,179.9,249.7,160.8,267.7,151.1L267.7,151.1L267.7,151.1z"/>
		<path class="st0" d="M0,155.5c-0.2-1.6,0.5-3.3,1.9-4.2c1.4-0.9,3.1-1,4.6-0.2c18,9.8,30.2,28.9,30.2,50.8
			c0,5.9-0.9,11.5-2.5,16.9c-0.5,1.6-1.8,2.8-3.4,3.1s-3.3-0.4-4.3-1.7C12.6,201.6,3.2,179.5,0,155.5L0,155.5z"/>
		<path class="st0" d="M239.9,55.5c0.5-1.6,1.8-2.8,3.4-3.1s3.3,0.3,4.3,1.7c13.9,18.5,23.3,40.6,26.5,64.6c0.2,1.6-0.5,3.3-1.9,4.2
			c-1.4,0.9-3.1,1-4.6,0.2c-18-9.8-30.2-28.9-30.2-50.8C237.4,66.5,238.3,60.8,239.9,55.5L239.9,55.5L239.9,55.5z"/>
		<path class="st1" d="M26.5,54.1c1-1.3,2.7-2,4.3-1.7c1.6,0.3,3,1.5,3.4,3c1.6,5.3,2.5,11,2.5,16.9c0,21.9-12.2,41-30.2,50.8
			c-1.5,0.8-3.2,0.7-4.6-0.2c-1.4-0.9-2.1-2.6-1.9-4.2C3.2,94.7,12.6,72.6,26.5,54.1L26.5,54.1L26.5,54.1z"/>
		<path class="st0" d="M118.7,0c1.6-0.2,3.3,0.5,4.2,1.9c0.9,1.4,1,3.1,0.2,4.6c-9.8,18-28.9,30.2-50.8,30.2
			c-5.9,0-11.5-0.9-16.9-2.5c-1.6-0.5-2.8-1.8-3.1-3.4s0.4-3.3,1.7-4.3C72.6,12.6,94.7,3.2,118.7,0L118.7,0z"/>
		<path class="st1" d="M151.1,6.5c-0.8-1.5-0.7-3.2,0.2-4.6s2.6-2.1,4.2-1.9c24,3.2,46.1,12.6,64.6,26.5c1.3,1,2,2.7,1.7,4.3
			c-0.3,1.6-1.5,3-3.1,3.4c-5.3,1.6-11,2.5-16.9,2.5C179.9,36.8,160.8,24.5,151.1,6.5C151.1,6.5,151.1,6.5,151.1,6.5z"/>
	</g>
</g>
<text transform="matrix(1 0 0 1 65.0948 135.1852)" class="st2 st3 st4">参加登録</text>
<polygon class="st2" points="173.3,170.8 143.8,162.6 143.8,168.3 111.9,168.3 111.9,173.3 143.8,173.3 143.8,179 "/>
</svg>
