<?xml version="1.0" encoding="UTF-8"?><svg id="_レイヤー_2" xmlns="http://www.w3.org/2000/svg" viewBox="0 0 274.19 274.19"><defs><style>.cls-1{fill:#150f59;}.cls-1,.cls-2{fill-rule:evenodd;}.cls-2{fill:#b05f6e;}</style></defs><g id="decoration_japan_001_02"><g><path class="cls-2" d="M155.5,274.14c-1.64,.21-3.26-.51-4.2-1.88-.93-1.36-1.03-3.14-.24-4.59,9.78-18.01,28.86-30.24,50.78-30.24,5.86,0,11.52,.87,16.86,2.5,1.59,.48,2.77,1.81,3.06,3.44,.29,1.63-.35,3.29-1.67,4.29-18.49,13.9-40.57,23.27-64.58,26.47h0Z"/><path class="cls-1" d="M54.1,247.66c-1.32-1-1.96-2.66-1.67-4.28,.29-1.63,1.47-2.96,3.05-3.44,5.33-1.63,10.99-2.51,16.86-2.51,21.92,0,41,12.23,50.79,30.24,.79,1.46,.7,3.23-.24,4.6-.94,1.37-2.56,2.09-4.2,1.88-24.02-3.21-46.1-12.59-64.58-26.49h0Z"/><path class="cls-1" d="M267.67,151.06c1.46-.79,3.23-.7,4.6,.24,1.37,.94,2.09,2.56,1.88,4.2-3.21,24.02-12.59,46.1-26.49,64.58-1,1.32-2.65,1.96-4.28,1.67-1.63-.29-2.96-1.47-3.44-3.05-1.63-5.33-2.51-10.99-2.51-16.86,0-21.92,12.23-41,30.24-50.79h0Z"/><path class="cls-2" d="M.04,155.5c-.21-1.64,.51-3.26,1.88-4.2,1.36-.93,3.14-1.03,4.59-.24,18.01,9.78,30.24,28.86,30.24,50.78,0,5.86-.88,11.52-2.5,16.86-.48,1.59-1.81,2.77-3.44,3.06-1.63,.29-3.29-.36-4.29-1.68C12.62,201.6,3.24,179.52,.04,155.5H.04Z"/><path class="cls-2" d="M239.93,55.48c.48-1.59,1.81-2.77,3.44-3.06,1.63-.29,3.29,.35,4.29,1.68,13.9,18.49,23.27,40.57,26.48,64.58,.21,1.64-.51,3.26-1.88,4.2-1.36,.93-3.14,1.03-4.59,.24-18.01-9.78-30.24-28.86-30.24-50.78,0-5.86,.88-11.52,2.5-16.86h0Z"/><path class="cls-1" d="M26.52,54.1c1-1.32,2.66-1.96,4.28-1.67,1.63,.29,2.96,1.47,3.44,3.05,1.63,5.33,2.51,10.99,2.51,16.86,0,21.92-12.23,41-30.24,50.79-1.46,.79-3.23,.7-4.6-.24-1.37-.94-2.09-2.56-1.88-4.2,3.21-24.02,12.59-46.1,26.49-64.58h0Z"/><path class="cls-2" d="M118.69,.04c1.64-.21,3.26,.51,4.2,1.88,.93,1.36,1.03,3.14,.24,4.59-9.78,18.01-28.86,30.24-50.78,30.24-5.86,0-11.52-.88-16.86-2.5-1.59-.48-2.77-1.81-3.06-3.44-.29-1.63,.36-3.29,1.68-4.29C72.59,12.62,94.67,3.24,118.69,.04h0Z"/><path class="cls-1" d="M151.06,6.52c-.79-1.46-.7-3.23,.24-4.6,.94-1.37,2.56-2.09,4.2-1.88,24.02,3.21,46.1,12.58,64.58,26.49,1.32,1,1.96,2.66,1.67,4.28s-1.47,2.96-3.05,3.44c-5.33,1.63-10.99,2.51-16.86,2.51-21.92,0-41-12.23-50.78-30.24h0Z"/></g></g></svg>