<?xml version="1.0" encoding="UTF-8"?><svg id="_レイヤー_2" xmlns="http://www.w3.org/2000/svg" xmlns:xlink="http://www.w3.org/1999/xlink" viewBox="0 0 271.66 326.86"><defs><style>.cls-1{fill:url(#_名称未設定グラデーション_2);}</style><linearGradient id="_名称未設定グラデーション_2" x1="-1075.17" y1="-682.09" x2="864.21" y2="645.75" gradientUnits="userSpaceOnUse"><stop offset=".03" stop-color="#fbe1b6"/><stop offset=".59" stop-color="#c19a3d"/><stop offset=".74" stop-color="#c89f3f"/><stop offset=".95" stop-color="#dbaf46"/><stop offset="1" stop-color="#e1b448"/></linearGradient></defs><g id="_アートボードのガイド"><path class="cls-1" d="M260.08,8.3c-7.16-5.35-16.6-8.3-26.56-8.3h0l-46.79,.04c-.3,0-.6-.04-.9-.04h0l-25.93,.06h-11.47c-1.9,0-3.45,1.55-3.45,3.45s1.54,3.45,3.45,3.45h7.39s0,0,.04,0h4.04s26.42-.03,26.42-.03c17,.19,30.76,10.17,30.76,22.46,0,5.79-3.13,11.32-8.81,15.57-5.98,4.47-13.95,6.94-22.44,6.94l-80.94,.04c-.53,0-1.06,.12-1.53,.36-10.57,5.25-16.88,14.16-16.88,23.83,0,11.29,8.71,21.5,22.18,25.99,.35,.12,.72,.18,1.09,.18h44.54s.01-.01,.01-.01c18.01,0,32.66,10.57,32.66,23.56,0,6.07-3.27,11.87-9.22,16.32-6.25,4.67-14.57,7.25-23.44,7.25l-140.47,.04c-.72,0-1.42,.23-2,.64C4.3,155.44,0,163.02,0,170.87,0,178.73,4.31,186.3,11.81,191.66c.58,.41,1.28,.64,2,.64H61.46s.03,0,.04,0h21.6c16.09,.07,29.64,9.84,29.65,21.42,0,11.82-13.38,21.44-29.83,21.45H17.12c-.87,.01-1.71,.34-2.34,.94-5.45,5.07-8.45,11.49-8.45,18.06,0,10.32,7.31,19.83,19.07,24.82,.43,.18,.88,.27,1.35,.27l47.54-.03c.06,0,.11,.03,.16,.03l50.17-.04c6.96,.15,7.56,2.36,12.8,6.28,5.15,3.85,7.98,8.84,7.98,14.07s-2.83,10.22-7.97,14.07c-5.44,4.07-12.7,6.32-20.44,6.32l-44.41,.02c-1.9,0-3.45,1.54-3.45,3.44s1.54,3.45,3.45,3.45h13.22s.02,0,.02,0l78.87-.02c19.47,0,35.31-12.24,35.31-27.28,0-15.04-15.84-27.27-35.31-27.27h0l-40.06,.03c-.26,0-.47-.03-.75-.03h0l-48.77,.03c-8.76-3.94-14.18-10.86-14.18-18.17,0-4.33,1.83-8.49,5.31-12.09h64.39c9.59-.02,18.67-2.86,25.57-8.01,7.19-5.38,11.16-12.61,11.15-20.34,0-15.62-16.48-28.33-36.72-28.33h-47.34c-.12,.01-.24,0-.36,0h-20.29c-5.19-4.01-8.04-9.13-8.04-14.51s2.86-10.52,8.07-14.54l139.33-.04c10.35,0,20.14-3.06,27.57-8.62,7.73-5.78,11.99-13.54,11.98-21.83,0-8.3-4.26-16.05-11.99-21.83-7.43-5.56-17.22-8.62-27.56-8.62h-43.97c-10.31-3.6-16.95-11.13-16.95-19.27,0-6.8,4.6-13.21,12.35-17.3l80.11-.04c9.97,0,19.4-2.95,26.56-8.31,7.46-5.58,11.57-13.07,11.57-21.08,0-8.01-4.11-15.5-11.58-21.08Zm-95.41,270.88h0c15.41,0,28.42,9.33,28.42,20.38,0,11.05-13.01,20.39-28.42,20.39h-24.44c.42-.28,.9-.5,1.31-.8,6.92-5.18,10.74-12.14,10.74-19.59,0-7.45-3.82-14.41-10.74-19.59-.37-.27-.67-.51-1.01-.77l24.13-.02Zm-101.98-6.85l-35.23,.02c-8.8-3.94-14.24-10.87-14.24-18.21,0-4.33,1.83-8.49,5.31-12.09H57.71c-2.32,3.76-3.68,7.87-3.68,12.09,0,6.77,3.19,13.16,8.67,18.18Zm67.92-80.06h0c16.17,0,29.83,9.82,29.83,21.44,0,5.51-2.98,10.77-8.39,14.82-5.71,4.27-13.33,6.63-21.44,6.63h-23.78c7.82-5.2,12.8-12.88,12.8-21.45,0-8.56-4.97-16.23-12.78-21.43h23.75Zm-115.66-6.88c-5.2-4.01-8.06-9.14-8.06-14.53,0-5.39,2.85-10.52,8.06-14.54H52.99c-3.4,4.36-5.29,9.38-5.29,14.54s1.88,10.16,5.27,14.52H14.95ZM201.98,102.28c8.86,0,17.18,2.57,23.43,7.24,5.95,4.45,9.23,10.24,9.23,16.31s-3.27,11.87-9.22,16.32c-6.25,4.67-14.57,7.25-23.44,7.25h-22.95c.94-.58,1.94-1.08,2.82-1.73,7.73-5.78,11.99-13.54,11.99-21.83,0-9.48-5.67-17.96-14.53-23.55h22.66s.01,0,.01,0Zm-67.81-26.16c0,7.31,3.68,14.13,9.91,19.27h-33.77c-10.31-3.61-16.95-11.13-16.95-19.27,0-6.8,4.6-13.22,12.35-17.3l36.18-.02c-4.92,4.89-7.73,10.92-7.72,17.32Zm121.79-31.17c-5.98,4.47-13.95,6.94-22.44,6.94h-23.46c.77-.48,1.6-.88,2.32-1.42,7.46-5.58,11.57-13.07,11.57-21.08,0-9.02-5.31-17.08-13.62-22.48l23.18-.02h.01c8.48,0,16.45,2.46,22.43,6.93,5.68,4.25,8.81,9.77,8.81,15.56s-3.13,11.32-8.81,15.57Z"/></g></svg>