<?xml version="1.0" encoding="UTF-8"?><svg id="_レイヤー_2" xmlns="http://www.w3.org/2000/svg" xmlns:xlink="http://www.w3.org/1999/xlink" viewBox="0 0 636.95 164.34"><defs><style>.cls-1{fill:url(#_名称未設定グラデーション_2);}</style><linearGradient id="_名称未設定グラデーション_2" x1="-1377.99" y1="-1050.77" x2="561.4" y2="277.07" gradientUnits="userSpaceOnUse"><stop offset=".03" stop-color="#fbe1b6"/><stop offset=".59" stop-color="#c19a3d"/><stop offset=".74" stop-color="#c89f3f"/><stop offset=".95" stop-color="#dbaf46"/><stop offset="1" stop-color="#e1b448"/></linearGradient></defs><g id="_アートボードのガイド"><path class="cls-1" d="M161.71,164.34c-10.61,0-19.25-6.51-19.25-14.51,0-4.04,2.12-7.78,5.98-10.54,3.59-2.56,8.3-3.98,13.26-3.98h15.79c2.41-1.8,3.74-4.04,3.74-6.38,0-2.49-1.55-4.92-4.26-6.75H19.98c-11.02,.01-19.98-6.73-19.98-15.02,0-8.29,8.96-15.04,19.98-15.04H163.63c2.32-1.79,3.58-3.99,3.58-6.27,0-2.28-1.27-4.48-3.59-6.26h-28.55s0,0,0,0c-5.55,0-10.81-1.57-14.81-4.44-4.28-3.06-6.64-7.19-6.64-11.65,0-4.45,2.35-8.59,6.63-11.65,4.01-2.86,9.27-4.44,14.82-4.44l94.12-.02c4.91-1.68,8.06-5.04,8.06-8.62,0-2.94-2.14-5.76-5.74-7.63h-47.1s0,0,0,0c-5.35,0-10.42-1.52-14.29-4.28-4.14-2.96-6.42-6.96-6.42-11.28,0-4.32,2.28-8.32,6.42-11.28C173.97,1.57,179.05,.05,184.4,.05l287.24-.05c11.42,0,20.72,6.98,20.72,15.56,0,8.58-9.29,15.56-20.72,15.56l-102.39,.02c-3.61,1.87-5.74,4.69-5.74,7.63,0,3.59,3.15,6.94,8.06,8.62h125.85c11.83,0,21.46,7.21,21.46,16.08,0,4.46-2.35,8.59-6.63,11.65-4.01,2.86-9.27,4.44-14.82,4.44l-207.56,.02c-2.32,1.78-3.58,3.98-3.58,6.26s1.27,4.47,3.58,6.26h115.94s0-.01,0-.01c11.01,0,19.97,6.74,19.98,15.03,0,8.29-8.96,15.04-19.98,15.04h-96.09c-1.13,1.2-2.23,2.91-2.23,5.05,0,3.2,2.55,6.27,6.7,8.08l303.5-.03c10.61,0,19.25,6.51,19.25,14.51,0,4.04-2.12,7.78-5.98,10.54-3.59,2.56-8.3,3.97-13.26,3.98l-455.99,.06Z"/></g></svg>