<?xml version="1.0" encoding="UTF-8"?><svg id="_レイヤー_2" xmlns="http://www.w3.org/2000/svg" xmlns:xlink="http://www.w3.org/1999/xlink" viewBox="0 0 68.41 55.18"><defs><style>.cls-1{fill:none;}.cls-2{fill:#162242;}.cls-3{fill:url(#_新規パターンスウォッチ_9);}.cls-4{fill:url(#_新規パターンスウォッチ_9-3);}.cls-5{fill:url(#_新規パターンスウォッチ_9-6);}.cls-6{fill:url(#_新規パターンスウォッチ_9-9);}.cls-7{fill:url(#_新規パターンスウォッチ_9-4);}.cls-8{fill:url(#_新規パターンスウォッチ_9-7);}.cls-9{fill:url(#_新規パターンスウォッチ_9-8);}.cls-10{fill:url(#_新規パターンスウォッチ_9-5);}.cls-11{fill:url(#_新規パターンスウォッチ_9-2);}.cls-12{fill:url(#_新規パターンスウォッチ_9-15);}.cls-13{fill:url(#_新規パターンスウォッチ_9-16);}.cls-14{fill:url(#_新規パターンスウォッチ_9-13);}.cls-15{fill:url(#_新規パターンスウォッチ_9-14);}.cls-16{fill:url(#_新規パターンスウォッチ_9-17);}.cls-17{fill:url(#_新規パターンスウォッチ_9-18);}.cls-18{fill:url(#_新規パターンスウォッチ_9-12);}.cls-19{fill:url(#_新規パターンスウォッチ_9-11);}.cls-20{fill:url(#_新規パターンスウォッチ_9-19);}.cls-21{fill:url(#_新規パターンスウォッチ_9-10);}.cls-22{fill:url(#_新規パターンスウォッチ_9-23);}.cls-23{fill:url(#_新規パターンスウォッチ_9-20);}.cls-24{fill:url(#_新規パターンスウォッチ_9-21);}.cls-25{fill:url(#_新規パターンスウォッチ_9-22);}.cls-26{fill:url(#_新規パターンスウォッチ_9-24);}.cls-27{fill:url(#_新規パターンスウォッチ_9-25);}</style><pattern id="_新規パターンスウォッチ_9" x="0" y="0" width="44.97" height="44.97" patternTransform="translate(-16179.19 -460.54) rotate(-180) scale(1 -1)" patternUnits="userSpaceOnUse" viewBox="0 0 44.97 44.97"><g><rect class="cls-1" width="44.97" height="44.97"/><rect class="cls-2" x="0" width="44.97" height="44.97"/></g></pattern><pattern id="_新規パターンスウォッチ_9-2" patternTransform="translate(-16179.19 -476.88) rotate(-180) scale(1 -1)" xlink:href="#_新規パターンスウォッチ_9"/><pattern id="_新規パターンスウォッチ_9-3" patternTransform="translate(-16179.19 -476.88) rotate(-180) scale(1 -1)" xlink:href="#_新規パターンスウォッチ_9"/><pattern id="_新規パターンスウォッチ_9-4" patternTransform="translate(-16179.19 -476.88) rotate(-180) scale(1 -1)" xlink:href="#_新規パターンスウォッチ_9"/><pattern id="_新規パターンスウォッチ_9-5" patternTransform="translate(-16179.19 -493.21) rotate(-180) scale(1 -1)" xlink:href="#_新規パターンスウォッチ_9"/><pattern id="_新規パターンスウォッチ_9-6" patternTransform="translate(-16179.19 -493.21) rotate(-180) scale(1 -1)" xlink:href="#_新規パターンスウォッチ_9"/><pattern id="_新規パターンスウォッチ_9-7" patternTransform="translate(-16179.19 -493.21) rotate(-180) scale(1 -1)" xlink:href="#_新規パターンスウォッチ_9"/><pattern id="_新規パターンスウォッチ_9-8" patternTransform="translate(-16157.73 -469.07) rotate(-180) scale(1 -1)" xlink:href="#_新規パターンスウォッチ_9"/><pattern id="_新規パターンスウォッチ_9-9" patternTransform="translate(-16157.73 -469.07) rotate(-180) scale(1 -1)" xlink:href="#_新規パターンスウォッチ_9"/><pattern id="_新規パターンスウォッチ_9-10" patternTransform="translate(-16157.73 -469.07) rotate(-180) scale(1 -1)" xlink:href="#_新規パターンスウォッチ_9"/><pattern id="_新規パターンスウォッチ_9-11" patternTransform="translate(-16157.73 -485.41) rotate(-180) scale(1 -1)" xlink:href="#_新規パターンスウォッチ_9"/><pattern id="_新規パターンスウォッチ_9-12" patternTransform="translate(-16157.73 -485.41) rotate(-180) scale(1 -1)" xlink:href="#_新規パターンスウォッチ_9"/><pattern id="_新規パターンスウォッチ_9-13" patternTransform="translate(-16157.73 -485.41) rotate(-180) scale(1 -1)" xlink:href="#_新規パターンスウォッチ_9"/><pattern id="_新規パターンスウォッチ_9-14" patternTransform="translate(-16157.73 -501.74) rotate(-180) scale(1 -1)" xlink:href="#_新規パターンスウォッチ_9"/><pattern id="_新規パターンスウォッチ_9-15" patternTransform="translate(-16157.73 -501.74) rotate(-180) scale(1 -1)" xlink:href="#_新規パターンスウォッチ_9"/><pattern id="_新規パターンスウォッチ_9-16" patternTransform="translate(-16157.73 -501.74) rotate(-180) scale(1 -1)" xlink:href="#_新規パターンスウォッチ_9"/><pattern id="_新規パターンスウォッチ_9-17" patternTransform="translate(-16167.27 -469.07) rotate(-180) scale(1 -1)" xlink:href="#_新規パターンスウォッチ_9"/><pattern id="_新規パターンスウォッチ_9-18" patternTransform="translate(-16167.27 -469.07) rotate(-180) scale(1 -1)" xlink:href="#_新規パターンスウォッチ_9"/><pattern id="_新規パターンスウォッチ_9-19" patternTransform="translate(-16167.27 -469.07) rotate(-180) scale(1 -1)" xlink:href="#_新規パターンスウォッチ_9"/><pattern id="_新規パターンスウォッチ_9-20" patternTransform="translate(-16167.27 -485.41) rotate(-180) scale(1 -1)" xlink:href="#_新規パターンスウォッチ_9"/><pattern id="_新規パターンスウォッチ_9-21" patternTransform="translate(-16167.27 -485.41) rotate(-180) scale(1 -1)" xlink:href="#_新規パターンスウォッチ_9"/><pattern id="_新規パターンスウォッチ_9-22" patternTransform="translate(-16167.27 -485.41) rotate(-180) scale(1 -1)" xlink:href="#_新規パターンスウォッチ_9"/><pattern id="_新規パターンスウォッチ_9-23" patternTransform="translate(-16167.27 -501.74) rotate(-180) scale(1 -1)" xlink:href="#_新規パターンスウォッチ_9"/><pattern id="_新規パターンスウォッチ_9-24" patternTransform="translate(-16167.27 -501.74) rotate(-180) scale(1 -1)" xlink:href="#_新規パターンスウォッチ_9"/><pattern id="_新規パターンスウォッチ_9-25" patternTransform="translate(-16167.27 -501.74) rotate(-180) scale(1 -1)" xlink:href="#_新規パターンスウォッチ_9"/></defs><g id="_レイヤー_1-2"><g><g><g><path class="cls-3" d="M34.2,45.45c-3.29,0-6.21,1.6-8.05,4.05-.41,.54-.76,1.12-1.05,1.74,.59,.38,1.14,.76,1.67,1.14,.27-.63,.62-1.22,1.03-1.75,1.48-1.92,3.79-3.17,6.39-3.17s4.92,1.25,6.39,3.17c.41,.54,.77,1.12,1.03,1.75,.53-.37,1.08-.75,1.67-1.14-.29-.62-.64-1.2-1.05-1.74-1.84-2.45-4.76-4.05-8.05-4.05Z"/><path class="cls-3" d="M34.2,49.71c-1.86,0-3.51,.88-4.58,2.24-.42,.54-.75,1.15-.97,1.82,.65,.5,1.24,.98,1.76,1.42,.07-.75,.34-1.43,.78-1.99,.7-.9,1.78-1.49,3-1.49s2.31,.59,3,1.49c.43,.56,.71,1.24,.78,1.99,.52-.44,1.11-.92,1.76-1.42-.21-.67-.54-1.28-.97-1.82-1.07-1.36-2.72-2.24-4.58-2.24Z"/><path class="cls-3" d="M34.2,41.2c-4.83,0-9.11,2.41-11.7,6.09-.39,.55-.74,1.13-1.04,1.73,.6,.33,1.17,.67,1.73,1.01,.3-.61,.66-1.19,1.05-1.73,2.24-3.08,5.87-5.1,9.96-5.1s7.72,2.02,9.96,5.1c.4,.55,.75,1.12,1.05,1.73,.56-.34,1.13-.67,1.73-1.01-.31-.6-.66-1.18-1.04-1.73-2.59-3.68-6.87-6.09-11.7-6.09Z"/></g><g><path class="cls-11" d="M34.2,29.12c-3.29,0-6.21,1.6-8.05,4.05-.41,.54-.76,1.12-1.05,1.74,.59,.38,1.14,.76,1.67,1.14,.27-.63,.62-1.22,1.03-1.75,1.48-1.92,3.79-3.17,6.39-3.17s4.92,1.25,6.39,3.17c.41,.54,.77,1.12,1.03,1.75,.53-.37,1.08-.75,1.67-1.14-.29-.62-.64-1.2-1.05-1.74-1.84-2.45-4.76-4.05-8.05-4.05Z"/><path class="cls-4" d="M34.2,33.37c-1.86,0-3.51,.88-4.58,2.24-.42,.54-.75,1.15-.97,1.82,.65,.5,1.24,.98,1.76,1.42,.07-.75,.34-1.43,.78-1.99,.7-.9,1.78-1.49,3-1.49s2.31,.59,3,1.49c.43,.56,.71,1.24,.78,1.99,.52-.44,1.11-.92,1.76-1.42-.21-.67-.54-1.28-.97-1.82-1.07-1.36-2.72-2.24-4.58-2.24Z"/><path class="cls-7" d="M34.2,24.87c-4.83,0-9.11,2.41-11.7,6.09-.39,.55-.74,1.13-1.04,1.73,.6,.33,1.17,.67,1.73,1.01,.3-.61,.66-1.19,1.05-1.73,2.24-3.08,5.87-5.1,9.96-5.1s7.72,2.02,9.96,5.1c.4,.55,.75,1.12,1.05,1.73,.56-.34,1.13-.67,1.73-1.01-.31-.6-.66-1.18-1.04-1.73-2.59-3.68-6.87-6.09-11.7-6.09Z"/></g><g><path class="cls-10" d="M34.2,12.78c-3.29,0-6.21,1.6-8.05,4.05-.41,.54-.76,1.12-1.05,1.74,.59,.38,1.14,.76,1.67,1.14,.27-.63,.62-1.22,1.03-1.75,1.48-1.92,3.79-3.17,6.39-3.17s4.92,1.25,6.39,3.17c.41,.54,.77,1.12,1.03,1.75,.53-.37,1.08-.75,1.67-1.14-.29-.62-.64-1.2-1.05-1.74-1.84-2.45-4.76-4.05-8.05-4.05Z"/><path class="cls-5" d="M34.2,17.04c-1.86,0-3.51,.88-4.58,2.24-.42,.54-.75,1.15-.97,1.82,.65,.5,1.24,.98,1.76,1.42,.07-.75,.34-1.43,.78-1.99,.7-.9,1.78-1.49,3-1.49s2.31,.59,3,1.49c.43,.56,.71,1.24,.78,1.99,.52-.44,1.11-.92,1.76-1.42-.21-.67-.54-1.28-.97-1.82-1.07-1.36-2.72-2.24-4.58-2.24Z"/><path class="cls-8" d="M34.2,8.53c-4.83,0-9.11,2.41-11.7,6.09-.39,.55-.74,1.13-1.04,1.73,.6,.33,1.17,.67,1.73,1.01,.3-.61,.66-1.19,1.05-1.73,2.24-3.08,5.87-5.1,9.96-5.1s7.72,2.02,9.96,5.1c.4,.55,.75,1.12,1.05,1.73,.56-.34,1.13-.67,1.73-1.01-.31-.6-.66-1.18-1.04-1.73-2.59-3.68-6.87-6.09-11.7-6.09Z"/></g></g><g><g><path class="cls-9" d="M55.66,36.92c-3.29,0-6.21,1.6-8.05,4.05-.41,.54-.76,1.12-1.05,1.74,.59,.38,1.14,.76,1.67,1.14,.27-.63,.62-1.22,1.03-1.75,1.48-1.92,3.79-3.17,6.39-3.17s4.92,1.25,6.39,3.17c.41,.54,.77,1.12,1.03,1.75,.53-.37,1.08-.75,1.67-1.14-.29-.62-.64-1.2-1.05-1.74-1.84-2.45-4.76-4.05-8.05-4.05Z"/><path class="cls-6" d="M55.66,41.17c-1.86,0-3.51,.88-4.58,2.24-.42,.54-.75,1.15-.97,1.82,.65,.5,1.24,.98,1.76,1.42,.07-.75,.34-1.43,.78-1.99,.7-.9,1.78-1.49,3-1.49s2.31,.59,3,1.49c.43,.56,.71,1.24,.78,1.99,.52-.44,1.11-.92,1.76-1.42-.21-.67-.54-1.28-.97-1.82-1.07-1.36-2.72-2.24-4.58-2.24Z"/><path class="cls-21" d="M55.66,32.67c-4.83,0-9.11,2.41-11.7,6.09-.39,.55-.74,1.13-1.04,1.73,.6,.33,1.17,.67,1.73,1.01,.3-.61,.66-1.19,1.05-1.73,2.24-3.08,5.87-5.1,9.96-5.1s7.72,2.02,9.96,5.1c.4,.55,.75,1.12,1.05,1.73,.56-.34,1.13-.67,1.73-1.01-.31-.6-.66-1.18-1.04-1.73-2.59-3.68-6.87-6.09-11.7-6.09Z"/></g><g><path class="cls-19" d="M55.66,20.59c-3.29,0-6.21,1.6-8.05,4.05-.41,.54-.76,1.12-1.05,1.74,.59,.38,1.14,.76,1.67,1.14,.27-.63,.62-1.22,1.03-1.75,1.48-1.92,3.79-3.17,6.39-3.17s4.92,1.25,6.39,3.17c.41,.54,.77,1.12,1.03,1.75,.53-.37,1.08-.75,1.67-1.14-.29-.62-.64-1.2-1.05-1.74-1.84-2.45-4.76-4.05-8.05-4.05Z"/><path class="cls-18" d="M55.66,24.84c-1.86,0-3.51,.88-4.58,2.24-.42,.54-.75,1.15-.97,1.82,.65,.5,1.24,.98,1.76,1.42,.07-.75,.34-1.43,.78-1.99,.7-.9,1.78-1.49,3-1.49s2.31,.59,3,1.49c.43,.56,.71,1.24,.78,1.99,.52-.44,1.11-.92,1.76-1.42-.21-.67-.54-1.28-.97-1.82-1.07-1.36-2.72-2.24-4.58-2.24Z"/><path class="cls-14" d="M55.66,16.33c-4.83,0-9.11,2.41-11.7,6.09-.39,.55-.74,1.13-1.04,1.73,.6,.33,1.17,.67,1.73,1.01,.3-.61,.66-1.19,1.05-1.73,2.24-3.08,5.87-5.1,9.96-5.1s7.72,2.02,9.96,5.1c.4,.55,.75,1.12,1.05,1.73,.56-.34,1.13-.67,1.73-1.01-.31-.6-.66-1.18-1.04-1.73-2.59-3.68-6.87-6.09-11.7-6.09Z"/></g><g><path class="cls-15" d="M55.66,4.25c-3.29,0-6.21,1.6-8.05,4.05-.41,.54-.76,1.12-1.05,1.74,.59,.38,1.14,.76,1.67,1.14,.27-.63,.62-1.22,1.03-1.75,1.48-1.92,3.79-3.17,6.39-3.17s4.92,1.25,6.39,3.17c.41,.54,.77,1.12,1.03,1.75,.53-.37,1.08-.75,1.67-1.14-.29-.62-.64-1.2-1.05-1.74-1.84-2.45-4.76-4.05-8.05-4.05Z"/><path class="cls-12" d="M55.66,8.5c-1.86,0-3.51,.88-4.58,2.24-.42,.54-.75,1.15-.97,1.82,.65,.5,1.24,.98,1.76,1.42,.07-.75,.34-1.43,.78-1.99,.7-.9,1.78-1.49,3-1.49s2.31,.59,3,1.49c.43,.56,.71,1.24,.78,1.99,.52-.44,1.11-.92,1.76-1.42-.21-.67-.54-1.28-.97-1.82-1.07-1.36-2.72-2.24-4.58-2.24Z"/><path class="cls-13" d="M55.66,0c-4.83,0-9.11,2.41-11.7,6.09-.39,.55-.74,1.13-1.04,1.73,.6,.33,1.17,.67,1.73,1.01,.3-.61,.66-1.19,1.05-1.73,2.24-3.08,5.87-5.1,9.96-5.1s7.72,2.02,9.96,5.1c.4,.55,.75,1.12,1.05,1.73,.56-.34,1.13-.67,1.73-1.01-.31-.6-.66-1.18-1.04-1.73-2.59-3.68-6.87-6.09-11.7-6.09Z"/></g><g><path class="cls-16" d="M12.75,36.92c-3.29,0-6.21,1.6-8.05,4.05-.41,.54-.76,1.12-1.05,1.74,.59,.38,1.14,.76,1.67,1.14,.27-.63,.62-1.22,1.03-1.75,1.48-1.92,3.79-3.17,6.39-3.17s4.92,1.25,6.39,3.17c.41,.54,.77,1.12,1.03,1.75,.53-.37,1.08-.75,1.67-1.14-.29-.62-.64-1.2-1.05-1.74-1.84-2.45-4.76-4.05-8.05-4.05Z"/><path class="cls-17" d="M12.75,41.17c-1.86,0-3.51,.88-4.58,2.24-.42,.54-.75,1.15-.97,1.82,.65,.5,1.24,.98,1.76,1.42,.07-.75,.34-1.43,.78-1.99,.7-.9,1.78-1.49,3-1.49s2.31,.59,3,1.49c.44,.56,.71,1.24,.78,1.99,.52-.44,1.11-.92,1.76-1.42-.21-.67-.54-1.28-.97-1.82-1.07-1.36-2.72-2.24-4.58-2.24Z"/><path class="cls-20" d="M12.75,32.67c-4.83,0-9.11,2.41-11.7,6.09-.39,.55-.74,1.13-1.04,1.73,.6,.33,1.17,.67,1.73,1.01,.3-.61,.66-1.19,1.05-1.73,2.24-3.08,5.87-5.1,9.96-5.1s7.72,2.02,9.96,5.1c.4,.55,.75,1.12,1.05,1.73,.56-.34,1.13-.67,1.73-1.01-.31-.6-.66-1.18-1.04-1.73-2.59-3.68-6.87-6.09-11.7-6.09Z"/></g><g><path class="cls-23" d="M12.75,20.59c-3.29,0-6.21,1.6-8.05,4.05-.41,.54-.76,1.12-1.05,1.74,.59,.38,1.14,.76,1.67,1.14,.27-.63,.62-1.22,1.03-1.75,1.48-1.92,3.79-3.17,6.39-3.17s4.92,1.25,6.39,3.17c.41,.54,.77,1.12,1.03,1.75,.53-.37,1.08-.75,1.67-1.14-.29-.62-.64-1.2-1.05-1.74-1.84-2.45-4.76-4.05-8.05-4.05Z"/><path class="cls-24" d="M12.75,24.84c-1.86,0-3.51,.88-4.58,2.24-.42,.54-.75,1.15-.97,1.82,.65,.5,1.24,.98,1.76,1.42,.07-.75,.34-1.43,.78-1.99,.7-.9,1.78-1.49,3-1.49s2.31,.59,3,1.49c.44,.56,.71,1.24,.78,1.99,.52-.44,1.11-.92,1.76-1.42-.21-.67-.54-1.28-.97-1.82-1.07-1.36-2.72-2.24-4.58-2.24Z"/><path class="cls-25" d="M12.75,16.33c-4.83,0-9.11,2.41-11.7,6.09-.39,.55-.74,1.13-1.04,1.73,.6,.33,1.17,.67,1.73,1.01,.3-.61,.66-1.19,1.05-1.73,2.24-3.08,5.87-5.1,9.96-5.1s7.72,2.02,9.96,5.1c.4,.55,.75,1.12,1.05,1.73,.56-.34,1.13-.67,1.73-1.01-.31-.6-.66-1.18-1.04-1.73-2.59-3.68-6.87-6.09-11.7-6.09Z"/></g><g><path class="cls-22" d="M12.75,4.25c-3.29,0-6.21,1.6-8.05,4.05-.41,.54-.76,1.12-1.05,1.74,.59,.38,1.14,.76,1.67,1.14,.27-.63,.62-1.22,1.03-1.75,1.48-1.92,3.79-3.17,6.39-3.17s4.92,1.25,6.39,3.17c.41,.54,.77,1.12,1.03,1.75,.53-.37,1.08-.75,1.67-1.14-.29-.62-.64-1.2-1.05-1.74-1.84-2.45-4.76-4.05-8.05-4.05Z"/><path class="cls-26" d="M12.75,8.5c-1.86,0-3.51,.88-4.58,2.24-.42,.54-.75,1.15-.97,1.82,.65,.5,1.24,.98,1.76,1.42,.07-.75,.34-1.43,.78-1.99,.7-.9,1.78-1.49,3-1.49s2.31,.59,3,1.49c.44,.56,.71,1.24,.78,1.99,.52-.44,1.11-.92,1.76-1.42-.21-.67-.54-1.28-.97-1.82-1.07-1.36-2.72-2.24-4.58-2.24Z"/><path class="cls-27" d="M12.75,0C7.91,0,3.64,2.41,1.04,6.09c-.39,.55-.74,1.13-1.04,1.73,.6,.33,1.17,.67,1.73,1.01,.3-.61,.66-1.19,1.05-1.73,2.24-3.08,5.87-5.1,9.96-5.1s7.72,2.02,9.96,5.1c.4,.55,.75,1.12,1.05,1.73,.56-.34,1.13-.67,1.73-1.01-.31-.6-.66-1.18-1.04-1.73C21.86,2.41,17.58,0,12.75,0Z"/></g></g></g></g></svg>