<?xml version="1.0" encoding="UTF-8"?><svg id="_レイヤー_2" xmlns="http://www.w3.org/2000/svg" viewBox="0 0 205.14 274.86"><defs><style>.cls-1{fill:#bd3527;}.cls-2{fill:#233162;}</style></defs><g id="_レイヤー_1-2"><g><path class="cls-2" d="M93.35,54.54c-2.38,3.91-.55,9.35,3.38,11.49,2.22,1.21,4.83,1.4,7.26,.81,1.09-.26,2.16-.71,3.14-1.27,1.24-.71,2.7-1.73,3.07-3.19s-.41-2.99-1.76-3.69c-1.21-.63-2.51-.54-3.8-.33-2.1,.33-4.13,1.26-5.82,2.54-3.47,2.62-6.42,7.27-5.68,11.79,.5,3.05,3.32,4.44,6.17,4.47,3.04,.03,6.05-.86,8.81-2.05,1.24-.53,1.52-2.36,.9-3.42-.75-1.28-2.17-1.43-3.42-.9-2.05,.88-4.79,1.67-7.05,1.32,.43,.07-.23-.08-.31-.11-.26-.09-.31-.1-.15-.05,.15,.06,.11,.03-.12-.09,.23,.47-.07-.43,.09,.06,.05,.16-.05-.43-.03-.21-.02-.31,0-.63,.05-.93-.06,.42,.07-.29,.08-.37,.12-.55,.29-1.1,.5-1.63,.06-.16,.06-.16,0,0,.05-.12,.11-.24,.17-.35,.12-.23,.24-.46,.38-.69,.28-.47,.58-.9,.75-1.1,.66-.79,1.41-1.47,2.02-1.89,.92-.62,1.64-.97,2.46-1.22,.5-.15,1.01-.28,1.53-.35-.5,.07,.56-.17,.23-.03-.18-.04-.14-.03,.11,.03-.71-.24-1.05-.86-1.03-1.86l.64-1.1c-1.5,1.9-4.94,2.51-6.77,1.42-.14-.08-.28-.17-.41-.26-.32-.22,.22,.21-.07-.06-.12-.11-.23-.22-.35-.34-.03-.03-.33-.37-.2-.21s-.14-.2-.16-.24c-.09-.14-.17-.28-.25-.42-.02-.04-.23-.45-.14-.25s-.08-.22-.09-.27c-.05-.15-.09-.31-.13-.46-.01-.05-.1-.52-.07-.26s-.01-.21-.01-.26c0-.16,0-.32,0-.47,0-.39-.08,.34,0-.04,.03-.15,.07-.3,.11-.46,.01-.05,.18-.47,.08-.25-.11,.24,.22-.35,.21-.34,1.68-2.76-2.64-5.27-4.32-2.52h0Z"/><g><path class="cls-1" d="M18.69,37.44c-3.96-.08-7.1-3.35-7.09-7.31l-2.5,2.5,2.83,.06-2.5-2.5c.03,3.99,2.61,7.64,6.39,8.96s8-.32,11.04-2.62,5.54-5.36,7.27-8.78c.94-1.85,1.71-3.81,2.24-5.82s1.02-4.19,.64-6.24c-.5-2.74-2.72-3.36-5.2-3.46-2.76-.11-5.55,.24-8.23,.91l3.08,1.75-.71-2.74-1.75,3.08c2.11-.53,4.23-.83,6.4-.84,1.25,0,3.42-.18,4.02,.9s.35,2.87,.1,4.18c-.34,1.76-.84,3.48-1.49,5.15-2.27,5.82-7.74,12.72-14.54,12.84-3.21,.06-3.22,5.06,0,5,7.46-.13,13.72-5.89,17.26-12.05,1.77-3.08,3.04-6.51,3.66-10.01s.57-7.5-2.65-9.74c-1.87-1.29-4.41-1.3-6.6-1.27-2.52,.04-5.05,.4-7.5,1.01-1.32,.33-2.08,1.79-1.75,3.08l.71,2.74c.34,1.33,1.78,2.07,3.08,1.75,2.12-.53,4.24-.79,6.42-.74,.25,0,1.39,.22,1.56,.09-.37-.16-.63-.4-.78-.73l.06,.28c-.2,.56-.12,1.51-.25,2.17-.71,3.57-2.17,7.01-4.39,9.9-1.93,2.51-4.35,4.75-7.5,5.51-2.82,.69-5.57-1.24-5.6-4.25-.01-1.37-1.14-2.47-2.5-2.5l-2.83-.06c-1.35-.03-2.5,1.17-2.5,2.5-.01,6.71,5.43,12.17,12.09,12.31,3.22,.07,3.22-4.93,0-5Z"/><path class="cls-1" d="M24.55,16.59c1.88-.47,3.76-.75,5.7-.79,.87-.02,1.79-.04,2.65,.07,.53,.07,.47,.02,.59,.41,.36,1.19-.11,2.78-.38,3.94-.36,1.53-.83,3.05-1.46,4.49-1.29,2.92-3.1,5.58-5.45,7.75-2.14,1.98-5.11,3.87-8.16,3.54-2.89-.31-5.01-3.02-5.02-5.84,0-3.22-5.01-3.22-5,0,.01,4.34,2.67,8.38,6.68,10.06,4.37,1.84,9.31,.23,12.93-2.49s6.23-6.05,8.09-9.96c.97-2.05,1.76-4.2,2.26-6.42,.47-2.06,.88-4.32,.34-6.4-.75-2.9-3.16-3.94-5.92-4.11-3.08-.19-6.19,.18-9.17,.92s-1.8,5.6,1.33,4.82h0Z"/><path class="cls-1" d="M39.19,38.95c-2.11-1.57-4.21-3.14-6.32-4.7l-.9-.67,.9,3.42,1.69-2.27-3.42,.9c2.11,1.57,4.21,3.14,6.32,4.7l.9,.67-.9-3.42-1.69,2.27c-.36,.49-.41,1.37-.25,1.93s.61,1.21,1.15,1.49c.58,.31,1.28,.46,1.93,.25s1.08-.6,1.49-1.15l1.69-2.27c.35-.47,.43-1.39,.25-1.93-.21-.66-.6-1.08-1.15-1.49-2.11-1.57-4.21-3.14-6.32-4.7l-.9-.67c-.47-.35-1.39-.43-1.93-.25-.66,.21-1.08,.6-1.49,1.15l-1.69,2.27c-.35,.47-.43,1.39-.25,1.93,.21,.66,.6,1.08,1.15,1.49,2.11,1.57,4.21,3.14,6.32,4.7l.9,.67c.49,.36,1.37,.41,1.93,.25s1.21-.61,1.49-1.15c.31-.58,.46-1.28,.25-1.93s-.6-1.08-1.15-1.49Z"/><path class="cls-1" d="M30.3,36.75c2.4,1.79,4.81,3.58,7.21,5.37,.49,.36,1.37,.41,1.93,.25s1.21-.61,1.49-1.15c.31-.58,.46-1.28,.25-1.93s-.6-1.08-1.15-1.49c-2.4-1.79-4.81-3.58-7.21-5.37-.49-.36-1.37-.41-1.93-.25s-1.21,.61-1.49,1.15c-.31,.58-.46,1.28-.25,1.93s.6,1.08,1.15,1.49h0Z"/><path class="cls-1" d="M29.4,59.74c-.25-8.1-.18-16.2,.22-24.29l-2.5,2.5,2.83,.14-2.5-2.5c-.39,8.01-.47,16.04-.22,24.06l2.5-2.5-2.83,.09c-3.21,.1-3.22,5.1,0,5l2.83-.09c1.32-.04,2.54-1.11,2.5-2.5-.25-8.02-.18-16.05,.22-24.06,.07-1.4-1.2-2.44-2.5-2.5l-2.83-.14c-1.4-.07-2.44,1.2-2.5,2.5-.4,8.09-.47,16.2-.22,24.29,.1,3.21,5.1,3.22,5,0Z"/><path class="cls-1" d="M26.03,35.52c-.4,8.05-.47,16.12-.22,24.18,.1,3.21,5.1,3.22,5,0-.25-8.06-.18-16.12,.22-24.18,.16-3.22-4.84-3.21-5,0h0Z"/><path class="cls-1" d="M47.81,27.67c-.42-5.86-.84-11.72-1.26-17.58l-.18-2.52-2.5,2.5,2.83-.2-2.5-2.5c.42,5.86,.84,11.72,1.26,17.58l.18,2.52,2.5-2.5-2.83,.2c-1.35,.1-2.5,1.08-2.5,2.5,0,1.28,1.15,2.6,2.5,2.5l2.83-.2c1.27-.09,2.6-1.07,2.5-2.5-.42-5.86-.84-11.72-1.26-17.58l-.18-2.52c-.09-1.27-1.07-2.6-2.5-2.5l-2.83,.2c-1.27,.09-2.6,1.07-2.5,2.5,.42,5.86,.84,11.72,1.26,17.58l.18,2.52c.1,1.35,1.08,2.5,2.5,2.5,1.28,0,2.6-1.15,2.5-2.5Z"/><path class="cls-1" d="M42.79,7.46c.48,6.7,.96,13.4,1.44,20.11,.1,1.35,1.08,2.5,2.5,2.5,1.28,0,2.6-1.15,2.5-2.5-.48-6.7-.96-13.4-1.44-20.11-.1-1.35-1.08-2.5-2.5-2.5-1.28,0-2.6,1.15-2.5,2.5h0Z"/><path class="cls-1" d="M71.77,25.08l-2.81-.4,1.75,3.08c.4-2.82,.8-5.64,1.21-8.45l.73-5.1c.19-1.36,.51-2.79,.45-4.17-.08-1.65-.77-3.2-2.46-3.73-.68-.21-1.42-.2-2.13-.2-1,0-2.01,0-3.01,0h-11.32c-2.74,0-5.49,0-8.23,0l2.5,2.5v-2.83c-.83,.83-1.67,1.67-2.5,2.5,6.2,0,12.4,0,18.6,0h3.67c.96,0,2.08-.22,2.55,.81,.18,.4,.17,.76,.18,1.2,0,.29,0,.58-.03,.87,0,.05-.09,.92-.02,.29-.04,.3-.08,.59-.13,.88l-.66,4.61c-.47,3.3-.94,6.6-1.41,9.89-.19,1.33,.33,2.69,1.75,3.08,1.17,.32,2.88-.4,3.08-1.75,.43-3.02,.86-6.04,1.29-9.06l.73-5.14c.22-1.53,.5-3.05,.33-4.6-.44-3.88-3.28-6.07-7.09-6.09-.73,0-1.47,0-2.2,0h-11.68c-2.99,0-5.97,0-8.96,0-1.35,0-2.5,1.15-2.5,2.5v2.83c0,1.35,1.15,2.5,2.5,2.5,5.71,0,11.43,0,17.14,0h4.28c.36,0,.72,0,1.08,0,.08,0,.17,0,.25,0,.02,0,.05,0,.07,0h.01c.94,.12,.71-.26-.72-1.14,.03-.03,.01,.89-.01,1.29-.04,.6,.04-.29,0,.1s-.12,.81-.17,1.21l-.67,4.68c-.44,3.06-.87,6.12-1.31,9.18-.17,1.2,.28,2.87,1.75,3.08l2.81,.4c1.33,.19,2.69-.33,3.08-1.75,.32-1.17-.4-2.88-1.75-3.08Z"/><path class="cls-1" d="M45.93,9.69c7.45,0,14.9-.02,22.34,0,.33,0,.72,.07,1.04,.01,.15-.03,.37,.13,.19-.04-.24-.23,.02,.11,0,.23-.04,.22,.02,.55,.01,.76-.05,1.57-.39,3.15-.61,4.71-.54,3.76-1.07,7.52-1.61,11.27-.19,1.33,.33,2.69,1.75,3.08,1.17,.32,2.88-.4,3.08-1.75,.61-4.25,1.21-8.5,1.82-12.74,.5-3.47,1.67-8.69-2.72-10.2-1.82-.62-4.02-.33-5.91-.33h-6.46c-4.3,0-8.61,0-12.91,0-3.22,0-3.22,5,0,5h0Z"/><path class="cls-1" d="M50.12,29.17l-.33-2.82-2.5,2.5c7.03-.82,14.11-1.04,21.17-.65l-2.5-2.5-.16,2.83,2.5-2.5c-6.9-.37-13.82-.16-20.68,.64-1.34,.16-2.5,1.04-2.5,2.5,0,1.23,1.15,2.66,2.5,2.5,6.86-.8,13.78-1.01,20.68-.64,1.4,.08,2.43-1.21,2.5-2.5l.16-2.83c.08-1.4-1.21-2.43-2.5-2.5-7.06-.38-14.14-.16-21.17,.65-1.22,.14-2.67,1.04-2.5,2.5l.33,2.82c.16,1.34,1.04,2.5,2.5,2.5,1.23,0,2.66-1.15,2.5-2.5Z"/><path class="cls-1" d="M47.45,30.26c6.95-.81,13.94-1.02,20.92-.65,1.35,.07,2.5-1.2,2.5-2.5,0-1.41-1.15-2.43-2.5-2.5-6.98-.38-13.98-.16-20.92,.65-1.34,.16-2.5,1.04-2.5,2.5,0,1.23,1.15,2.66,2.5,2.5h0Z"/><path class="cls-1" d="M44.42,58.06c-3.46-.12-5.43-3.94-5.42-7.01l-2.5,2.5,2.83,.07-2.5-2.5c.02,3.79,2.26,7.88,6.13,8.91,4.4,1.17,7.23-3.1,8.71-6.55,3.03-7.07,3.58-14.94,3.39-22.55l-2.5,2.5,2.83-.08-2.5-2.5c.14,5.58-.09,11.21-1.46,16.64-.56,2.21-1.27,4.42-2.34,6.44-1,1.9-2.37,4.04-4.67,4.13-3.21,.12-3.22,5.12,0,5,6.73-.26,9.82-7.28,11.46-12.88,1.82-6.24,2.18-12.87,2.01-19.33-.03-1.32-1.12-2.54-2.5-2.5l-2.83,.08c-1.32,.04-2.54,1.12-2.5,2.5,.16,6.01-.13,12.11-1.95,17.88-.62,1.96-1.66,5.19-3.25,6.2-1.73,1.1-3.02-2.57-3.03-3.89s-1.14-2.47-2.5-2.5l-2.83-.07c-1.35-.03-2.5,1.17-2.5,2.5-.02,5.9,4.21,11.78,10.42,12.01,3.22,.11,3.21-4.89,0-5Z"/><path class="cls-1" d="M51.47,30.89c.19,7.21-.12,15.04-3.28,21.66-.61,1.28-1.34,2.73-2.5,3.6-.77,.58-1.29,.6-2.1,.32-.69-.24-1.59-.98-2.15-1.83-.72-1.08-1.02-2.27-1.02-3.56,0-3.22-4.99-3.22-5,0,0,3.84,1.96,7.84,5.47,9.64,3.83,1.96,7.58,.37,10.02-2.92,2.59-3.5,3.87-8.15,4.63-12.38,.86-4.8,1.07-9.67,.94-14.54-.08-3.21-5.08-3.22-5,0h0Z"/><path class="cls-1" d="M69.15,58.03c-1.35,0-2.84-.04-3.93-.95-1.3-1.08-1.54-2.94-1.6-4.52s.05-3.03,.11-4.54l.55-13.59,.16-4-2.5,2.5,2.83,.12-2.5-2.5c-.26,6.53-.54,13.05-.79,19.58-.12,3.13-.09,7.21,2.96,9.05,2.05,1.24,4.57,1.02,6.88,1.01l6.41-.05c2.27-.02,4.89,0,6.65-1.66,2.45-2.32,1.21-5.73,.14-8.42-.74-1.86-1.49-3.73-2.23-5.59l-1.75,3.08,2.63-1.05-3.08-1.75,1.85,4.63c.79,1.98,2.45,4.75,1.49,6.82-.37,.8-1.15,1.25-1.85,1.43-.29,.08-.57,.15-.86,.22-.15,.03-.71,.1-.27,.05-.47,.05-.94,.07-1.41,.08-1.44,.02-2.88,.02-4.32,.03-1.86,.01-3.72,.03-5.58,.04-3.22,.01-3.22,5.01,0,5,3.4-.01,6.81,.03,10.22-.07,3.04-.09,6.15-.99,7.97-3.6,2.19-3.14,1.21-6.85-.09-10.11l-2.33-5.84c-.46-1.14-1.71-2.29-3.08-1.75l-2.63,1.05c-1.14,.46-2.29,1.71-1.75,3.08l1.72,4.31c.28,.7,.56,1.41,.84,2.11,.17,.42,.33,.84,.48,1.27,.13,.37,.29,.78,.33,1.17,.04,.45-.15,.76,.11,.18-.15,.33-.14,.12,.08-.05-.15,.12-.13,.3,.13-.06-.03,.04-.2,.14-.25,.15-.23,.05,.02,0,.07-.02-.12,.05-.26,.09-.39,.12-.3,.06-.56,.12-.87,.14-.6,.05-1.21,.03-1.81,.04l-5.83,.04c-1.31,0-3.61,.38-4.79-.17-1.32-.62-.83-3.86-.78-5.05,.13-3.23,.26-6.47,.39-9.7s.26-6.47,.39-9.71c.06-1.39-1.19-2.45-2.5-2.5l-2.83-.12c-1.39-.06-2.45,1.19-2.5,2.5-.15,3.77-.31,7.54-.46,11.31-.17,4.28-.78,8.93-.13,13.18,.38,2.5,1.56,4.81,3.63,6.33,1.93,1.42,4.33,1.76,6.66,1.77,3.22,.02,3.22-4.98,0-5Z"/><path class="cls-1" d="M60.87,30.49c-.21,5.08-.41,10.16-.62,15.24-.16,4.02-1.07,9.22,1.45,12.73,2.86,3.98,8.24,3.15,12.53,3.12,3.69-.03,8.65,.66,11.43-2.38,1.88-2.04,1.87-4.93,1.04-7.43-.87-2.66-2.06-5.25-3.1-7.85-.5-1.25-1.67-2.13-3.08-1.75-1.19,.33-2.25,1.81-1.75,3.08,.76,1.9,1.52,3.8,2.27,5.7,.49,1.24,1.73,3.41,1.04,4.73-.27,.52-1.46,.76-2.2,.82-1.88,.14-3.79,.06-5.68,.07s-3.8,.09-5.7,.02c-1.2-.04-2.42-.22-2.98-1.41-.61-1.29-.54-2.89-.51-4.28,.05-1.98,.16-3.95,.24-5.93l.59-14.5c.13-3.22-4.87-3.21-5,0h0Z"/><path class="cls-1" d="M31.32,8.6h-2.83l2.5,2.5V2.69l-2.5,2.5h2.83l-2.5-2.5V11.1c0,1.31,1.15,2.56,2.5,2.5s2.5-1.1,2.5-2.5V2.69c0-1.35-1.15-2.5-2.5-2.5h-2.83c-1.35,0-2.5,1.15-2.5,2.5V11.1c0,1.35,1.15,2.5,2.5,2.5h2.83c1.31,0,2.56-1.15,2.5-2.5s-1.1-2.5-2.5-2.5Z"/><path class="cls-1" d="M27.4,2.69V11.1c0,1.31,1.15,2.56,2.5,2.5s2.5-1.1,2.5-2.5V2.69c0-1.31-1.15-2.56-2.5-2.5s-2.5,1.1-2.5,2.5h0Z"/></g><path class="cls-1" d="M103.75,147.19c-1.89,0-3.78-.01-5.67-.02l2.5,2.5c.01-5.15,.03-10.29,.04-15.44l.06-24.49c0-1.9,0-3.79,.01-5.69l-2.5,2.5c1.89,0,3.78,0,5.67,.01l-2.5-2.5c-.01,5.15-.03,10.29-.04,15.44-.02,8.16-.04,16.33-.06,24.49,0,1.9,0,3.79-.01,5.69,0,3.22,4.99,3.22,5,0,.01-5.15,.03-10.29,.04-15.44,.02-8.16,.04-16.33,.06-24.49,0-1.9,0-3.79,.01-5.69,0-1.35-1.15-2.5-2.5-2.5-1.89,0-3.78,0-5.67-.01-1.35,0-2.5,1.15-2.5,2.5-.01,5.15-.03,10.29-.04,15.44l-.06,24.49c0,1.9,0,3.79-.01,5.69,0,1.35,1.15,2.5,2.5,2.5,1.89,0,3.78,.01,5.67,.02,3.22,0,3.22-4.99,0-5Z"/><path class="cls-1" d="M98.53,104.06c-.04,15.21-.08,30.41-.12,45.62,0,3.22,4.99,3.22,5,0,.04-15.21,.08-30.41,.12-45.62,0-3.22-4.99-3.22-5,0h0Z"/><path class="cls-1" d="M45.75,145.07l-5.66-.28,2.5,2.5c.4-8.24,.64-16.62-.88-24.77-1.26-6.8-4.51-14.02-10.76-17.6-2.83-1.63-5.94-1.99-9.1-2.49l1.75,3.08c.3-1.87,.6-3.73,.9-5.6l-3.08,1.75c2.7,.42,5.41,.73,7.97,1.75,2.81,1.13,5.61,3.53,7.6,6.11,4.86,6.33,6.05,14.56,6.42,22.31,.25,5.24,.1,10.49-.16,15.73-.16,3.22,4.84,3.21,5,0,.45-9.4,.72-19.09-1.46-28.31-1.87-7.95-6.46-16.02-14.02-19.77-3.2-1.59-6.53-2.1-10.02-2.65-1.22-.19-2.84,.3-3.08,1.75-.3,1.87-.6,3.73-.9,5.6-.19,1.21,.3,2.85,1.75,3.08,2.24,.35,5.02,.63,6.86,1.45,2.73,1.21,4.78,3.54,6.32,6.04,3.43,5.56,3.93,12.7,4.11,19.07,.13,4.5-.02,8.99-.23,13.48-.07,1.4,1.2,2.44,2.5,2.5l5.66,.28c3.22,.16,3.21-4.84,0-5Z"/><path class="cls-1" d="M20.98,104.46c2.45,.39,4.94,.63,7.27,1.54,2.79,1.08,5.39,3.61,7.19,6.23,4.14,6.01,4.94,13.75,5.19,20.85,.17,4.79,.01,9.58-.22,14.36-.16,3.22,4.84,3.21,5,0,.42-8.78,.69-17.76-1.12-26.41-1.57-7.51-5.61-15.47-12.79-19.01-2.94-1.45-6.01-1.86-9.2-2.37-1.33-.21-2.69,.34-3.08,1.75-.33,1.19,.4,2.86,1.75,3.08h0Z"/><path class="cls-1" d="M52.59,117.27l-.52-5.65-2.5,2.5c26.48-2.42,53.08-3.51,79.67-3.26,7.53,.07,15.07,.25,22.6,.53l-2.5-2.5c-.07,1.89-.14,3.78-.21,5.67l2.5-2.5c-26.47-1-52.99-.67-79.42,1-7.38,.47-14.75,1.04-22.11,1.71-1.34,.12-2.5,1.06-2.5,2.5,0,1.26,1.15,2.62,2.5,2.5,26.38-2.41,52.88-3.49,79.37-3.24,7.39,.07,14.78,.25,22.16,.53,1.39,.05,2.45-1.19,2.5-2.5,.07-1.89,.14-3.78,.21-5.67,.05-1.39-1.19-2.45-2.5-2.5-26.57-1-53.18-.67-79.72,.99-7.52,.47-15.04,1.05-22.54,1.74-1.25,.11-2.63,1.06-2.5,2.5l.52,5.65c.12,1.34,1.06,2.5,2.5,2.5,1.26,0,2.62-1.15,2.5-2.5Z"/><path class="cls-1" d="M49.83,116.94c26.47-2.42,53.05-3.51,79.62-3.25,7.43,.07,14.85,.25,22.27,.53,3.22,.12,3.21-4.88,0-5-26.55-1-53.15-.68-79.67,1-7.42,.47-14.82,1.04-22.22,1.72-1.34,.12-2.5,1.06-2.5,2.5,0,1.26,1.15,2.62,2.5,2.5h0Z"/><path class="cls-1" d="M19.74,170.62c-.79-1.72-1.58-3.43-2.37-5.15l-.9,3.42c21.68-9.9,46.44-6.13,69.42-4.97,22.02,1.11,44.55,1.06,66.05-4.41,11.82-3,23.26-7.77,33.32-14.72l-3.42-.9c1.08,1.55,2.16,3.1,3.23,4.66l.9-3.42c-18.18,12.57-40.04,17.81-61.82,19.39-11.15,.81-22.35,.74-33.51,.29s-22.54-1.53-33.83-1.77c-13.79-.3-27.79,.89-40.49,6.68-1.23,.56-1.53,2.34-.9,3.42,.74,1.26,2.19,1.46,3.42,.9,11.01-5.02,23.3-6.13,35.26-6.04s22.76,1.19,34.14,1.71c22.14,1.01,44.76,.68,66.32-5.01,12.04-3.18,23.66-8.15,33.93-15.25,1.04-.72,1.71-2.24,.9-3.42-1.08-1.55-2.16-3.1-3.23-4.66-.72-1.04-2.24-1.71-3.42-.9-17.97,12.43-39.73,17.2-61.25,18.54-11.05,.69-22.14,.53-33.2,.02-11.36-.52-22.71-1.61-34.09-1.71-13.77-.11-27.6,1.47-40.24,7.24-1.31,.6-1.41,2.3-.9,3.42,.79,1.72,1.58,3.43,2.37,5.15,.57,1.23,2.34,1.53,3.42,.9,1.26-.74,1.46-2.19,.9-3.42Z"/><path class="cls-1" d="M17.65,171.47c10.71-4.89,22.59-6.23,34.24-6.3s23.37,1.08,35.06,1.64c22.17,1.08,44.87,.94,66.49-4.71,11.87-3.1,23.32-7.99,33.43-14.98,1.11-.77,1.62-2.19,.9-3.42-.64-1.1-2.3-1.67-3.42-.9-18.04,12.47-39.71,17.53-61.32,18.98-11.18,.75-22.4,.63-33.59,.14s-23.23-1.64-34.87-1.75c-13.48-.13-27.06,1.32-39.44,6.97-1.23,.56-1.53,2.34-.9,3.42,.74,1.26,2.19,1.46,3.42,.9h0Z"/><path class="cls-1" d="M66.07,208.63c-3.33-.09-6.25-3.21-5.71-6.6l-3.08,1.75c1.86,.34,3.72,.67,5.58,1.01l-1.84-2.41c-.34,3.2,2.99,6.39,6.21,5.4,2.93-.89,4.75-4.24,6.01-6.78,1.57-3.18,3.04-6.53,3.98-9.96,.78-2.86,1.54-6.72,.49-9.62-.39-1.09-1.24-1.78-2.41-1.84-1.64-.07-3.54,.44-5.16,.68l-9.18,1.38c-7.24,1.09-14.48,2.17-21.72,3.26-1.71,.26-3.42,.51-5.12,.77l3.08,1.75c-.28-1.87-.56-3.74-.84-5.61l-1.75,3.08c7.92-1.19,15.83-2.38,23.75-3.56l13.36-2c.76-.11,1.52-.23,2.28-.34,.4-.06-.53,.03,.15-.02,.32-.02,.63-.05,.95-.05,.64,0,1.08,.03,1.71,.34,1.62,.79,1.86,2.86,1.94,4.32,.33,5.5-1.7,10.75-3.93,15.68-1.62,3.58-4.12,9.23-8.75,9.38-3.21,.1-3.22,5.1,0,5,5.37-.17,9.11-4.26,11.52-8.69s4.42-9.17,5.48-13.99,1.7-11.59-2.4-15.07c-2.39-2.03-5.28-2.13-8.22-1.7-9.44,1.4-18.89,2.83-28.33,4.25-3.61,.54-7.23,1.08-10.84,1.63-1.44,.22-1.93,1.88-1.75,3.08,.28,1.87,.56,3.74,.84,5.61,.22,1.44,1.88,1.93,3.08,1.75,11.65-1.75,23.29-3.5,34.94-5.24l3.34-.5c.29-.04,.58-.09,.87-.13,.07,0,.14-.02,.21-.03-.5,.07,.26-.01,.5,0l-2.41-1.84c.62,1.73,.19,4.09-.22,5.85-.55,2.41-1.44,4.74-2.43,7-.91,2.07-1.82,4.27-3.17,6.09-.23,.3-.48,.6-.76,.86-.12,.11-.26,.2-.36,.31-.17,.18-.75,.25-.04,.18,.58-.06,.14-.1,.15-.14-.02,.11-.06-.33-.04-.53,.11-1-.85-2.23-1.84-2.41-1.86-.34-3.72-.67-5.58-1.01-1.21-.22-2.85,.32-3.08,1.75-.5,3.17,.12,6.2,2.13,8.74s5.11,4.1,8.4,4.19,3.22-4.92,0-5Z"/><path class="cls-1" d="M35.03,187.69c11.82-1.77,23.63-3.55,35.45-5.32,1.31-.2,2.63-.45,3.94-.59,.71-.07,.99-.25,1.26,.35,.4,.91,.29,2.17,.27,3.13-.03,1.39-.23,2.75-.55,4.11-.61,2.62-1.59,5.15-2.67,7.61-.96,2.19-1.95,4.45-3.38,6.39-.6,.81-1.31,1.57-2.19,2.07-.31,.18-.72,.34-.92,.36-.29,.03-.49,0-.82-.11-1.2-.4-2.5-1.65-2.27-3.16,.2-1.33-.33-2.69-1.75-3.08-1.18-.32-2.87,.4-3.08,1.75-.42,2.8,.31,5.55,2.49,7.48,1.94,1.73,4.71,2.61,7.25,1.81,5.73-1.81,8.29-9.09,10.3-14.1,1.26-3.14,2.21-6.37,2.51-9.75,.27-3.01,.22-7.24-2.65-9.07-1.24-.79-2.72-.92-4.14-.75-1.81,.21-3.62,.53-5.42,.8l-10.83,1.63c-8.04,1.21-16.08,2.41-24.13,3.62-1.34,.2-2.07,1.89-1.75,3.08,.39,1.43,1.73,1.95,3.08,1.75h0Z"/><path class="cls-1" d="M19.13,220.81c-6.32-.08-10.23-4.18-12.24-9.86-1.85-5.22-3.45-12.72,.58-17.15H3.93c1.38,1.29,2.76,2.59,4.13,3.88v-3.54c-4.02,4.5-2.37,11.95-.38,17.01,.95,2.42,2.21,4.82,4.25,6.51,2.4,1.98,5.44,2.72,8.52,2.42,9.49-.94,17.67-8.26,22.61-15.98,3.69-5.76,5.92-12.39,6.94-19.13l-3.08,1.75,5.61,.82-1.75-3.08c-1.95,13.02-8.48,26.08-20.22,32.84-3.5,2.01-7.38,3.47-11.46,3.52-3.22,.04-3.22,5.04,0,5,7.78-.09,15.18-4.12,20.84-9.23,5.49-4.96,9.53-11.33,12.27-18.17,1.63-4.06,2.73-8.31,3.38-12.63,.18-1.2-.29-2.86-1.75-3.08l-5.61-.82c-1.21-.18-2.86,.29-3.08,1.75-1.44,9.55-5.37,18.74-12.66,25.26-1.4,1.25-2.55,2.11-4.2,3.13-.68,.42-1.38,.81-2.09,1.17-.36,.18-.72,.35-1.09,.52-.04,.02-.75,.32-.26,.12-.25,.1-.51,.2-.77,.3-2.11,.77-4.54,1.4-6.77,.83-1.82-.46-2.85-1.52-3.76-3-1.49-2.44-2.26-5.37-2.72-8.17-.2-1.21-.3-2.71-.16-3.8,.03-.25,.09-.49,.15-.73,.03-.1,.26-.84,.15-.59,.07-.16,.15-.32,.24-.47,.08-.15,.17-.29,.27-.43-.14,.17-.11,.15,.08-.08,.88-.98,1.03-2.57,0-3.54-1.38-1.29-2.76-2.59-4.13-3.88-.95-.89-2.6-1.02-3.54,0-5.53,6.06-4.37,15.25-1.74,22.37,1.22,3.32,2.96,6.56,5.62,8.95,3.15,2.82,7.11,4.17,11.32,4.22,3.22,.04,3.22-4.96,0-5Z"/><path class="cls-1" d="M48,184.04c-1.49,9.94-5.71,19.73-13.18,26.64-3.68,3.41-8.27,6.13-13.23,7.08-2.58,.5-5.34,.25-7.57-1.22-1.89-1.24-3.16-3.34-4.03-5.38-1.06-2.48-1.79-5.31-2.06-7.99-.26-2.53-.18-5.43,1.61-7.43,2.14-2.39-1.38-5.94-3.54-3.54-4.39,4.89-3.46,11.99-1.71,17.8s5.48,11.6,12,12.72,13.08-1.69,18.21-5.38c4.78-3.44,8.7-7.92,11.68-12.99,3.41-5.81,5.63-12.33,6.63-18.98,.2-1.33-.33-2.69-1.75-3.08-1.18-.32-2.87,.4-3.08,1.75h0Z"/><path class="cls-1" d="M126.39,209.6c-1.13-.02-2.26-.21-3.38-.34l2.5,2.5c.23-5.5,.39-11.01,.23-16.51-.15-4.99-.12-9.94,.16-14.93l-1.84,2.41c14.58-2.91,29.29-5.7,43.28-10.83l-3.08-1.75,1.96,5.32,1.75-3.08c-12.89,4.72-26.38,7.51-39.81,10.2-1.09,.22-1.8,1.37-1.84,2.41-.24,7.07,.19,14.16,.04,21.24-.04,1.79,1.62,2.64,3.16,2.41,4.16-.61,8.29-1.72,12.24-3.13,3.17-1.12,7.83-2.6,9.56-5.8l-3.42,.9,5.07,2.54-.9-3.42c-.12,.23-.26,.45-.39,.68-.07,.11-.15,.22-.23,.33,.18-.23,.18-.24,0-.02-.35,.39-.71,.76-1.1,1.1-.6,.53-1.56,1.17-2.6,1.76-2.5,1.43-4.9,2.34-7.65,3.22s-5.4,1.55-8.16,2.08c-.62,.12-1.24,.23-1.86,.33-.23,.04-.46,.07-.69,.11-.3,.04-.3,.04,0,0-.14,.02-.28,.04-.42,.05-.86,.1-1.73,.18-2.6,.19-3.22,.02-3.22,5.02,0,5,5.23-.03,10.72-1.5,15.64-3.13s11.76-4.13,14.39-9.19c.59-1.14,.36-2.79-.9-3.42l-5.07-2.54c-1.18-.59-2.74-.35-3.42,.9-.28,.51,.32-.21-.17,.25-.09,.08-.18,.17-.26,.25,0,0-.47,.38-.21,.19,.14-.11-.5,.33-.67,.44-.36,.22-.73,.43-1.11,.62-1.65,.86-3.26,1.46-5.08,2.07-3.67,1.23-7.47,2.24-11.31,2.8l3.16,2.41c.15-7.08-.28-14.17-.04-21.24l-1.84,2.41c13.43-2.69,26.92-5.48,39.81-10.2,1.19-.43,2.24-1.72,1.75-3.08l-1.96-5.32c-.44-1.19-1.72-2.24-3.08-1.75-14,5.13-28.71,7.91-43.28,10.83-1.11,.22-1.78,1.36-1.84,2.41-.28,4.99-.31,9.94-.16,14.93,.16,5.5,0,11.02-.23,16.51-.06,1.46,1.2,2.35,2.5,2.5,1.12,.13,2.25,.31,3.38,.34,3.22,.07,3.22-4.93,0-5Z"/><path class="cls-1" d="M167.01,169.75c-13.45,4.93-27.55,7.71-41.56,10.51-1.11,.22-1.78,1.36-1.84,2.41-.23,4.19-.15,8.35-.03,12.54,.14,4.67,.06,9.37-.13,14.03-.06,1.45,1.2,2.37,2.5,2.5,1.9,.19,3.94-.25,5.8-.58,2.82-.5,5.62-1.2,8.36-2.05s5.71-1.94,8.34-3.35c2.08-1.12,4.31-2.6,5.44-4.75,1.49-2.85-2.82-5.38-4.32-2.52-.1,.19-.22,.37-.33,.56-.19,.31,.32-.29-.17,.18-.33,.32-.66,.64-1.02,.93,.45-.36-.29,.19-.37,.25-.19,.13-.39,.25-.58,.37-.49,.3-.99,.58-1.5,.84-2.33,1.21-4.69,2.04-7.37,2.84-2.52,.76-5.09,1.39-7.68,1.85-.56,.1-1.11,.19-1.67,.27-.61,.09,.4-.04-.14,.02-.25,.03-.49,.06-.74,.08-.67,.06-1.36,.12-2.03,.05l2.5,2.5c.19-4.66,.26-9.36,.13-14.03-.12-4.19-.2-8.35,.03-12.54l-1.84,2.41c14.01-2.8,28.11-5.59,41.56-10.51,1.27-.46,2.12-1.7,1.75-3.08-.34-1.22-1.8-2.21-3.08-1.75h0Z"/><path class="cls-1" d="M186.54,220.01c-3.44-.06-6.76-1.88-9.56-3.73-3.03-2.01-5.68-4.52-8.17-7.16-5.44-5.77-10.38-12.07-15.02-18.5-2.77-3.84-5.41-7.77-7.93-11.77l-.9,3.42,4.8-3.01-3.42-.9c3.92,6.24,8.16,12.26,12.68,18.08,4.31,5.56,8.79,11.25,14.05,15.95,2.24,2,4.68,3.83,7.39,5.15s6.13,2.69,9.01,1.02c3.26-1.89,4.62-6.19,6.13-9.47,1.36-2.95,2.72-5.9,4.08-8.85l-3.42,.9c1.72,.79,3.43,1.58,5.15,2.37l-.9-3.42c-1.52,3.3-3.04,6.6-4.56,9.9-1.94,4.21-3.98,9.91-9.43,10.03-3.21,.07-3.22,5.07,0,5,4.47-.1,7.98-2.47,10.44-6.08,1.22-1.79,2.09-3.79,3-5.76,1.62-3.52,3.24-7.04,4.87-10.56,.52-1.13,.42-2.81-.9-3.42l-5.15-2.37c-1.13-.52-2.81-.42-3.42,.9-1.06,2.31-2.13,4.61-3.19,6.92-1.2,2.6-2.28,5.38-3.75,7.85-.44,.74-1.03,1.72-1.85,1.89,.39-.08-.53-.04-.51-.04-.04,0-2.18-.48-.38-.09-.7-.15-1.39-.42-2.04-.7-2.47-1.08-4.72-2.65-6.74-4.42-4.95-4.33-9.14-9.6-13.2-14.75-4.68-5.93-9.02-12.14-13.05-18.54-.7-1.12-2.24-1.64-3.42-.9l-4.8,3.01c-1.12,.7-1.64,2.25-.9,3.42,4.7,7.47,9.84,14.66,15.37,21.54,5.05,6.29,10.33,12.74,17.03,17.34,3.67,2.52,8.06,4.68,12.59,4.76,3.22,.06,3.22-4.94,0-5Z"/><path class="cls-1" d="M143.96,179.86c6.43,10.22,13.66,20,21.7,29.01,3.63,4.07,7.66,8,12.48,10.65,2.51,1.38,5.36,2.62,8.26,2.66,2.72,.04,5.26-1.21,7.02-3.26,1.95-2.26,3.09-5,4.33-7.68,1.51-3.27,3.01-6.54,4.52-9.81,.56-1.23,.35-2.69-.9-3.42-1.08-.63-2.85-.34-3.42,.9-1.23,2.68-2.47,5.35-3.7,8.03-1.07,2.31-2.03,4.72-3.33,6.91-.87,1.48-2.05,3.08-3.89,3.32-2.29,.3-4.83-1.08-6.74-2.16-4.25-2.41-7.74-5.9-10.97-9.51-3.63-4.05-7.07-8.28-10.35-12.62-3.79-5.02-7.36-10.21-10.7-15.53-1.71-2.72-6.04-.21-4.32,2.52h0Z"/><path class="cls-1" d="M45.67,256.92c-4.5-.09-9.02-4.37-8.17-9.08l-3.08,1.75c1.85,.38,3.7,.75,5.56,1.13l-1.75-3.08c-.54,3.82,2,7.5,5.81,8.41s6.6-1.61,8.49-4.53c4.06-6.25,4.83-14.1,4.99-21.37,.1-4.44-.06-8.88-.06-13.31l-2.5,2.5h5.67l-2.5-2.5c.01,8.3,.68,16.81-1.09,24.98-1.2,5.57-4.37,14.95-11.38,15.11-3.21,.07-3.22,5.07,0,5,8.99-.21,13.83-9.49,15.81-17.11,2.37-9.11,1.67-18.66,1.66-27.97,0-1.35-1.14-2.5-2.5-2.5h-5.67c-1.35,0-2.5,1.15-2.5,2.5,0,7.71,.67,15.66-.86,23.27-.67,3.32-1.75,6.86-3.86,9.57-.59,.76-1.36,1.72-2.37,1.55-.82-.14-2.46-1.24-2.32-2.26,.18-1.26-.29-2.78-1.75-3.08-1.85-.38-3.7-.75-5.56-1.13-1.23-.25-2.82,.35-3.08,1.75-1.44,7.93,5.02,15.25,12.99,15.41,3.22,.07,3.22-4.93,0-5Z"/><path class="cls-1" d="M55.3,216.83c0,7.69,.63,15.58-.78,23.19-.64,3.45-1.7,6.8-3.5,9.83-1.36,2.28-3.58,4.77-6.28,4.14-2.46-.58-4.9-3.09-4.46-5.59,.23-1.33-.36-2.69-1.75-3.08-1.21-.33-2.84,.41-3.08,1.75-1.48,8.42,8.61,15.4,15.72,10.11,3.53-2.63,5.61-6.95,6.96-11.04,1.43-4.33,1.95-8.95,2.15-13.48,.24-5.27,.02-10.55,.01-15.83,0-3.22-5-3.22-5,0h0Z"/><path class="cls-1" d="M146.82,254.18h-5.67l2.5,2.5v-39.45l-2.5,2.5h5.67l-2.5-2.5v39.45c0,3.22,5,3.22,5,0v-39.45c0-1.35-1.15-2.5-2.5-2.5h-5.67c-1.35,0-2.5,1.15-2.5,2.5v39.45c0,1.35,1.15,2.5,2.5,2.5h5.67c3.22,0,3.22-5,0-5Z"/><path class="cls-1" d="M141.49,217.23v39.45c0,3.22,5,3.22,5,0v-39.45c0-3.22-5-3.22-5,0h0Z"/><path class="cls-1" d="M126.59,97.63h-47.06c-1.32,0-2.64,0-3.96,0-3.24-.01-6.02-1.16-8.17-3.54-2.9-3.21-4.57-8.83-3.5-13.12,1.25-4.99,6.19-9.53,11.45-9.62l-2.5-2.5v5.67l2.5-2.5c-6.09,.18-11.5,6.29-11,12.3,.42,5.02,2.66,10.41,7.79,12.15,1.87,.63,3.92,.5,5.87,.5h33.64c4.95,0,9.91,.07,14.87,0,5.23-.07,8.82-3.68,10.3-8.48,.69-2.25,1.04-4.78,.64-7.11-.57-3.33-3.03-6.36-5.93-7.99-1.53-.85-3.2-1.32-4.94-1.37l2.5,2.5v-5.67l-2.5,2.5c5.34,.08,10.14,4.17,11.42,9.3,1.17,4.68-.62,10.66-4,14-1.99,1.97-4.57,2.95-7.42,2.98-3.22,.04-3.22,5.04,0,5,7.36-.09,12.95-4.9,15.39-11.66s1.46-14.63-3.97-19.82c-3.08-2.95-7.14-4.75-11.42-4.81-1.35-.02-2.5,1.16-2.5,2.5v5.67c0,1.38,1.15,2.46,2.5,2.5,2.45,.07,4.78,2.04,5.69,4.27,.35,.85,.39,1.69,.34,2.6-.01,.22-.03,.44-.05,.66,0,.06-.11,.81-.03,.27-.08,.53-.19,1.07-.32,1.59-.8,3.14-2.44,5.52-5.75,5.56-4.41,.05-8.82,0-13.23,0-12.47,0-24.95,.03-37.42,0-3.29,0-5-1.93-5.9-4.94-.54-1.8-1.07-3.6-.26-5.52,.5-1.18,1.42-2.24,2.42-3.04,.5-.4,1.15-.81,1.69-1.05,.28-.12,.58-.21,.87-.29,.49-.13,.42-.09,.73-.1,1.35-.04,2.5-1.11,2.5-2.5v-5.67c0-1.33-1.15-2.52-2.5-2.5-5.9,.1-11.28,3.82-14.32,8.74s-2.94,10.56-1.12,15.73c1.7,4.83,4.99,8.91,9.83,10.81,2.21,.87,4.55,1,6.89,1h49.95c3.22,0,3.22-5,0-5Z"/><path class="cls-1" d="M75.36,69.18c-4.71,.1-8.94,3.07-11.55,6.85-2.41,3.47-2.67,7.45-1.86,11.47,.71,3.5,2.38,7.07,5.18,9.38,1.53,1.26,3.31,2.2,5.27,2.6,2.65,.55,5.45,.31,8.14,.31h45.07c2.3,0,4.44-.25,6.55-1.2,3.49-1.58,5.77-4.85,7.07-8.34,1.52-4.08,1.78-8.73-.07-12.73-2.21-4.78-7.29-8.24-12.56-8.34-3.22-.06-3.22,4.94,0,5,3.42,.07,6.47,2.41,8.01,5.38,.73,1.41,.93,2.9,.85,4.46-.07,1.28-.22,2.24-.66,3.72-.74,2.51-2.11,4.88-4.39,6.14-1.29,.72-2.71,.9-4.31,.9-2.55,0-5.09,0-7.64,0h-39.16c-2.04,0-4.26,.24-6.18-.28-2.61-.7-4.35-2.68-5.46-5.3,.04,.1-.23-.64-.29-.82-.13-.39-.25-.78-.35-1.18s-.19-.79-.27-1.18c-.02-.12-.18-1.12-.14-.76-.21-1.66-.23-3.29,.43-4.85,1.36-3.2,4.88-6.17,8.32-6.24,3.21-.07,3.22-5.07,0-5h0Z"/><path class="cls-1" d="M158.12,147.86c-.42-8.69-.76-17.66,1.1-26.21,1.53-7.06,5.15-14.2,11.89-17.55,2.54-1.26,5.83-1.68,8.82-2.14l-3.08-1.75,.9,5.6,1.75-3.08c-2.78,.44-5.47,.77-8.06,1.95-3.28,1.51-5.8,4.33-7.76,7.29-4.02,6.07-4.82,13.95-5.1,21.03-.19,4.86-.04,9.73,.19,14.58l2.5-2.5-5.66,.28c-3.2,.16-3.22,5.16,0,5l5.66-.28c1.3-.06,2.57-1.09,2.5-2.5-.36-7.5-.7-15.22,.56-22.66,.98-5.81,3.25-12.4,8.73-15.46,2.17-1.21,5.11-1.49,7.77-1.91,1.43-.23,1.94-1.87,1.75-3.08l-.9-5.6c-.23-1.44-1.87-1.93-3.08-1.75-2.97,.46-5.86,.86-8.66,2.04-3.68,1.55-6.77,4.13-9.23,7.26-5.57,7.1-7.22,16.01-7.72,24.83-.31,5.53-.15,11.07,.11,16.6,.15,3.2,5.16,3.22,5,0Z"/><path class="cls-1" d="M179.06,99.92c-2.65,.42-5.29,.72-7.8,1.75-3.78,1.56-6.7,4.27-9.1,7.54-4.88,6.64-6.04,15.27-6.39,23.29-.22,5.07-.06,10.15,.18,15.22,.16,3.2,5.16,3.22,5,0-.39-8.06-.74-16.36,.79-24.32,1.26-6.59,4.29-13.65,10.65-16.79,2.26-1.12,5.32-1.44,8-1.86,1.33-.21,2.08-1.88,1.75-3.08-.39-1.42-1.74-1.96-3.08-1.75h0Z"/><path class="cls-1" d="M137.46,128.35h-19.91l2.5,2.5v-5.67l-2.5,2.5h19.91l-2.5-2.5v5.67c0,3.22,5,3.22,5,0v-5.67c0-1.35-1.15-2.5-2.5-2.5h-19.91c-1.35,0-2.5,1.15-2.5,2.5v5.67c0,1.35,1.15,2.5,2.5,2.5h19.91c3.22,0,3.22-5,0-5Z"/><path class="cls-1" d="M117.56,130.51h19.91c3.22,0,3.22-5,0-5h-19.91c-3.22,0-3.22,5,0,5h0Z"/><path class="cls-1" d="M137.46,139.73h-19.91l2.5,2.5v-5.67l-2.5,2.5h19.91l-2.5-2.5v5.67c0,3.22,5,3.22,5,0v-5.67c0-1.35-1.15-2.5-2.5-2.5h-19.91c-1.35,0-2.5,1.15-2.5,2.5v5.67c0,1.35,1.15,2.5,2.5,2.5h19.91c3.22,0,3.22-5,0-5Z"/><path class="cls-1" d="M117.56,141.9h19.91c3.22,0,3.22-5,0-5h-19.91c-3.22,0-3.22,5,0,5h0Z"/><path class="cls-1" d="M83.39,128.35h-19.91l2.5,2.5v-5.67l-2.5,2.5h19.91l-2.5-2.5v5.67c0,3.22,5,3.22,5,0v-5.67c0-1.35-1.15-2.5-2.5-2.5h-19.91c-1.35,0-2.5,1.15-2.5,2.5v5.67c0,1.35,1.15,2.5,2.5,2.5h19.91c3.22,0,3.22-5,0-5Z"/><path class="cls-1" d="M63.48,130.51h19.91c3.22,0,3.22-5,0-5h-19.91c-3.22,0-3.22,5,0,5h0Z"/><path class="cls-1" d="M83.39,139.73h-19.91l2.5,2.5v-5.67l-2.5,2.5h19.91l-2.5-2.5v5.67c0,3.22,5,3.22,5,0v-5.67c0-1.35-1.15-2.5-2.5-2.5h-19.91c-1.35,0-2.5,1.15-2.5,2.5v5.67c0,1.35,1.15,2.5,2.5,2.5h19.91c3.22,0,3.22-5,0-5Z"/><path class="cls-1" d="M63.48,141.9h19.91c3.22,0,3.22-5,0-5h-19.91c-3.22,0-3.22,5,0,5h0Z"/><path class="cls-1" d="M103.84,162.3h-5.67l2.5,2.5v-9.16l-2.5,2.5h5.67l-2.5-2.5v9.16c0,1.31,1.15,2.56,2.5,2.5s2.5-1.1,2.5-2.5v-9.16c0-1.35-1.15-2.5-2.5-2.5h-5.67c-1.35,0-2.5,1.15-2.5,2.5v9.16c0,1.35,1.15,2.5,2.5,2.5h5.67c1.31,0,2.56-1.15,2.5-2.5s-1.1-2.5-2.5-2.5Z"/><path class="cls-1" d="M98.5,155.64v9.16c0,1.31,1.15,2.56,2.5,2.5s2.5-1.1,2.5-2.5v-9.16c0-1.31-1.15-2.56-2.5-2.5s-2.5,1.1-2.5,2.5h0Z"/><path class="cls-1" d="M101.26,189.2c-.15,0-.36-.1-.43-.12-.62-.23,.08,.1-.22-.15-.67-.56-1.29-1.18-1.92-1.79-1.24-1.19-2.44-2.41-3.62-3.66-2.19-2.31-4.3-4.7-6.36-7.13v3.54c1.44-1.22,2.89-2.44,4.33-3.66h-3.54c3.19,3.77,6.5,7.45,10.09,10.85,1.04,.98,2.49,.9,3.54,0,4.2-3.59,7.78-7.84,12.13-11.26h-3.54c1.16,1.49,2.32,2.99,3.48,4.48v-3.54c-2.76,2.17-5.19,4.69-7.69,7.16-1.17,1.16-2.36,2.3-3.6,3.38-.74,.65-1.78,1.85-2.66,1.9-3.2,.19-3.22,5.19,0,5,3.62-.21,6.39-3.44,8.84-5.82,2.83-2.75,5.53-5.64,8.64-8.09,1.15-.91,.74-2.58,0-3.54-1.16-1.49-2.32-2.99-3.48-4.48-.89-1.15-2.59-.75-3.54,0-4.35,3.42-7.93,7.67-12.13,11.26h3.54c-3.58-3.4-6.9-7.08-10.09-10.85-.92-1.09-2.57-.81-3.54,0-1.44,1.22-2.89,2.44-4.33,3.66-1.09,.92-.81,2.58,0,3.54,2.35,2.77,4.76,5.49,7.29,8.1s5.08,6.03,8.79,6.21c3.22,.16,3.21-4.84,0-5Z"/><path class="cls-1" d="M87.34,178.06c2.13,2.51,4.3,4.97,6.58,7.35,1.14,1.19,2.29,2.36,3.48,3.49,1.28,1.22,2.66,2.86,4.63,2.33,1.53-.41,2.97-2,4.12-3.04s2.36-2.22,3.51-3.37c2.36-2.35,4.71-4.71,7.33-6.78,1.06-.83,.87-2.66,0-3.54-1.05-1.05-2.47-.84-3.54,0-2.39,1.88-4.56,4.01-6.71,6.15-1.04,1.04-2.08,2.08-3.15,3.08-.54,.51-1.09,1.01-1.65,1.49-.28,.25-.57,.49-.85,.73-.16,.13-.99,.57-.55,.47h1.33l-.25-.1,1.1,.64c-2.19-1.76-4.14-3.91-6.06-5.95s-3.91-4.3-5.79-6.52c-.87-1.03-2.64-.9-3.54,0-1.02,1.02-.88,2.5,0,3.54h0Z"/><path class="cls-1" d="M103.84,207.95h-5.67l2.5,2.5v-21.79l-2.5,2.5h5.67l-2.5-2.5v21.79c0,3.22,5,3.22,5,0v-21.79c0-1.35-1.15-2.5-2.5-2.5h-5.67c-1.35,0-2.5,1.15-2.5,2.5v21.79c0,1.35,1.15,2.5,2.5,2.5h5.67c3.22,0,3.22-5,0-5Z"/><path class="cls-1" d="M98.5,188.66c0,7.26,0,14.53,0,21.79,0,3.22,5,3.22,5,0,0-7.26,0-14.53,0-21.79,0-3.22-5-3.22-5,0h0Z"/><path class="cls-1" d="M143.19,222.62H61.3c-1.1,0-2.25-.1-3.34,0-.05,0-.1,0-.15,0l2.5,2.5v-5.67l-2.5,2.5h81.89c1.1,0,2.25,.1,3.34,0,.05,0,.1,0,.15,0l-2.5-2.5v5.67c0,3.22,5,3.22,5,0v-5.67c0-1.35-1.15-2.5-2.5-2.5H68.32c-3.45,0-6.92-.14-10.37,0-.05,0-.1,0-.15,0-1.35,0-2.5,1.15-2.5,2.5v5.67c0,1.35,1.15,2.5,2.5,2.5h74.87c3.45,0,6.92,.14,10.37,0,.05,0,.1,0,.15,0,3.22,0,3.22-5,0-5Z"/><path class="cls-1" d="M57.8,224.78h85.38c3.22,0,3.22-5,0-5H57.8c-3.22,0-3.22,5,0,5h0Z"/><path class="cls-1" d="M143.19,236H61.3c-1.1,0-2.25-.1-3.34,0-.05,0-.1,0-.15,0l2.5,2.5v-5.67l-2.5,2.5h81.89c1.1,0,2.25,.1,3.34,0,.05,0,.1,0,.15,0l-2.5-2.5v5.67c0,3.22,5,3.22,5,0v-5.67c0-1.35-1.15-2.5-2.5-2.5H68.32c-3.45,0-6.92-.14-10.37,0-.05,0-.1,0-.15,0-1.35,0-2.5,1.15-2.5,2.5v5.67c0,1.35,1.15,2.5,2.5,2.5h74.87c3.45,0,6.92,.14,10.37,0,.05,0,.1,0,.15,0,3.22,0,3.22-5,0-5Z"/><path class="cls-1" d="M57.8,238.17h85.38c3.22,0,3.22-5,0-5H57.8c-3.22,0-3.22,5,0,5h0Z"/><g><path class="cls-2" d="M86.29,260.69c-.11,3.2,.51,6.8,3.72,8.32s6.94,.49,10.15-.25c6-1.39,15.2-3.84,16.27-11.1,.24-1.65-1.09-3.86-3.08-3.08-2.25,.89-3.84,2.61-4.45,4.98-.53,2.03-.48,4.73,.24,6.7,.9,2.5,3.56,3.08,5.9,2.5s3.99-1.97,5.37-3.77c.82-1.07,.17-2.8-.9-3.42-1.29-.75-2.6-.18-3.42,.9-.41,.53-1.07,.99-1.68,1.25-.12,.05-1.09,.25-1.11,.28-.32,.05-.13,.25,.55,.61-.06-.22-.1-.45-.13-.68-.17-1.13-.5-3.94,.97-4.52l-3.08-3.08c-.33,2.25-1.9,3.62-3.85,4.63-2.35,1.22-5.01,1.98-7.57,2.64-2.21,.57-4.87,1.43-7.18,1.15-2-.24-1.78-2.5-1.72-4.06,.11-3.22-4.89-3.21-5,0h0Z"/><path class="cls-2" d="M97.32,256.5v15.86c0,1.31,1.15,2.56,2.5,2.5s2.5-1.1,2.5-2.5v-15.86c0-1.31-1.15-2.56-2.5-2.5s-2.5,1.1-2.5,2.5h0Z"/></g><path class="cls-1" d="M107.99,19.22c-.22,0-.43-.01-.65-.03-.18-.02-.17-.01,0,0l-.26-.05c-.22-.05-.43-.1-.64-.17-.06-.02-.55-.21-.28-.09-.74-.34-1.12-.67-1.53-1.35l-.9,3.42,2.46-1.4-3.42-.9c1.54,2.45,4.69,3.29,7.39,2.39,2.05-.68,3.87-2.33,5.34-3.86,3.57-3.7,6.8-9.01,6.26-14.35l-2.5,2.5,2.82-.33-2.5-2.5c.23,2.18-.04,3.79-.82,5.89-.63,1.7-1.8,3.66-3.04,5.26-.34,.44-1.17,1.38-1.74,1.97-.63,.65-1.3,1.27-2,1.85-.03,.03-.63,.47-.2,.17-.17,.13-.34,.25-.52,.37-.27,.19-.55,.37-.83,.53-.76,.44-1.44,.64-2.45,.67-3.21,.07-3.22,5.07,0,5,4.82-.11,8.67-3.7,11.5-7.3,3.17-4.05,5.64-9.13,5.1-14.4-.13-1.22-1.05-2.67-2.5-2.5l-2.82,.33c-1.24,.14-2.65,1.03-2.5,2.5,.19,1.84-.18,3.56-.89,5.12-.85,1.87-1.98,3.55-3.2,4.93-.61,.7-1.27,1.36-1.97,1.97-.17,.15-.35,.3-.53,.45-.35,.3,.12-.07-.1,.08-.3,.21-.6,.43-.91,.62-.15,.09-.33,.17-.47,.27-.36,.25,.43-.05-.03,.01-.16,.02-.32,.08-.47,.11-.25,.05,.39,.02-.08-.01-.22-.02-.45,0-.67-.02,.54,.08-.17-.08-.23-.1,.4,.13-.09-.08-.22-.15,.15,.09,.38,.47,.11,.03-.73-1.15-2.21-1.58-3.42-.9l-2.46,1.4c-1.16,.66-1.59,2.27-.9,3.42,1.65,2.73,4.54,4.1,7.67,4.16s3.22-4.95,0-5Z"/><path class="cls-1" d="M118.18,2.68c.06,.62,.09,1.25,.05,1.87,0,.1-.12,1.04-.04,.51-.05,.31-.11,.62-.18,.93-.13,.55-.28,1.09-.47,1.61-.03,.08-.36,.95-.19,.53-.12,.3-.27,.6-.41,.89-.54,1.1-1.18,2.15-1.88,3.14-.05,.07-.6,.81-.33,.46-.19,.25-.39,.49-.6,.73-.37,.44-.75,.86-1.15,1.27-.37,.39-.76,.76-1.16,1.13-.2,.18-.4,.36-.61,.53-.1,.08-.78,.6-.24,.2-.33,.24-.65,.47-1,.69-.18,.11-.35,.21-.53,.31-.2,.11-.74,.23-.09,.07-.22,.06-.44,.14-.66,.19-.12,.03-.24,.05-.36,.07,.36-.04,.39-.05,.1-.02-.19,0-.39,.02-.58,.02-.17,0-.95-.16-.32,0-.26-.06-.52-.13-.78-.2-.27-.1-.25-.09,.04,.02-.12-.06-.24-.12-.36-.19-.23-.16-.23-.14,0,.04-.11-.09-.21-.18-.31-.28-.19-.21-.19-.2-.02,.02-.09-.12-.17-.25-.24-.37-.7-1.15-2.24-1.59-3.42-.9s-1.6,2.26-.9,3.42c2.47,4.1,7.95,4.28,11.58,1.71s6.71-6.24,8.49-10.3c1.11-2.55,1.85-5.29,1.56-8.1-.14-1.34-1.05-2.5-2.5-2.5-1.24,0-2.64,1.15-2.5,2.5h0Z"/><path class="cls-1" d="M111.32,37.15c-2.46-.02-4.96-.38-6.93-1.51-.36-.21-.71-.44-1.05-.69-.25-.18,.29,.25-.06-.05-.14-.12-.29-.25-.43-.37-.47-.43-.9-.89-1.33-1.35v3.54l2.02-1.99h-3.54c1.62,1.69,3.32,3.02,5.57,3.78,3.85,1.3,8.2,1.08,11.73-.97,6.76-3.94,10.94-11.67,13.87-18.64,1.64-3.91,2.99-7.93,4.35-11.95,.53-1.56-.86-3.16-2.41-3.16-2.86,0-5.72-.02-8.57,0l2.5,2.5-.02-2.83-2.5,2.5c4.18-.02,8.37,0,12.55,0l-2.41-3.16c-3.58,10.57-6.73,22.26-15.03,30.23-2.22,2.14-4.97,4.06-8.3,4.13s-3.22,5.07,0,5c7.48-.16,13.2-6.18,17.11-11.96,4.12-6.1,6.66-13.14,9.01-20.07,.68-2,1.35-4,2.03-6,.53-1.56-.86-3.16-2.41-3.16-4.18,0-8.37-.02-12.55,0-1.34,0-2.51,1.14-2.5,2.5l.02,2.83c0,1.35,1.14,2.51,2.5,2.5,2.86-.02,5.72,0,8.57,0l-2.41-3.16c-2.15,6.39-4.26,12.87-7.76,18.67-1.74,2.87-3.83,5.53-6.4,7.71-2.4,2.04-5.17,2.71-8.28,2.05-1.27-.27-2.34-.73-3.06-1.25,.2,.15-.33-.29-.42-.36-.15-.14-.3-.28-.44-.42-.27-.27-.53-.55-.79-.82-.94-.98-2.59-.93-3.54,0l-2.02,1.99c-.98,.96-.93,2.57,0,3.54,1.23,1.29,2.52,2.5,4.1,3.36,2.83,1.54,6.05,2.05,9.24,2.07s3.22-4.97,0-5Z"/><path class="cls-1" d="M124.52,7.37c3.52-.02,7.04,0,10.56,0l-2.41-3.16c-2.42,7.12-4.64,14.41-8.57,20.88-1.87,3.09-4.17,6.05-7.02,8.3-.95,.75-2.5,1.67-3.88,2.06-1.69,.48-3.6,.35-5.31-.02-1.5-.32-2.36-.66-3.64-1.56,.41,.29-.14-.11-.27-.23-.18-.16-.35-.32-.52-.49-.32-.31-.62-.65-.93-.97-2.25-2.31-5.78,1.23-3.54,3.54,1.81,1.86,3.69,3.33,6.2,4.16,4.17,1.37,8.83,1.14,12.67-1.04,7.27-4.12,11.69-12.38,14.78-19.81,1.84-4.42,3.3-8.97,4.84-13.5,.53-1.56-.86-3.16-2.41-3.16-3.52,0-7.04-.02-10.56,0-3.22,.02-3.22,5.02,0,5h0Z"/><path class="cls-1" d="M150.25,18.13l-1.11-2.43-.39,3.03c4.12-3.25,7.93-6.92,11.6-10.67,1.51-1.54,.42-4.27-1.77-4.27h-13.83l2.5,2.5V3.45l-2.5,2.5h19.95l-1.77-4.27c-5.25,5.6-10.58,11.18-16.62,15.94-1.06,.84-.88,2.66,0,3.54,1.05,1.05,2.47,.84,3.54,0,6.04-4.76,11.38-10.34,16.62-15.94,1.46-1.56,.45-4.27-1.77-4.27h-19.95c-1.35,0-2.5,1.15-2.5,2.5v2.83c0,1.35,1.15,2.5,2.5,2.5h13.83l-1.77-4.27c-3.67,3.75-7.48,7.42-11.6,10.67-.92,.73-.82,2.1-.39,3.03l1.11,2.43c.56,1.23,2.34,1.53,3.42,.9,1.26-.74,1.46-2.19,.9-3.42Z"/><path class="cls-1" d="M144.77,7.37h16.92l-1.77-4.27c-4.42,4.71-9.06,9.3-14.14,13.31-1.06,.84-.88,2.66,0,3.54,1.05,1.05,2.47,.84,3.54,0,5.08-4,9.72-8.6,14.14-13.31,1.46-1.56,.45-4.27-1.77-4.27h-16.92c-1.35,0-2.5,1.15-2.5,2.5s1.14,2.5,2.5,2.5h0Z"/><path class="cls-1" d="M167.08,36.59c-1.62-.02-3.39-.27-4.73-.94-1.41-.71-2.59-1.8-3.75-2.85-2.94-2.68-5.55-5.74-7.91-8.93-3.35-4.52-6.35-9.3-9.42-14.01l-.9,3.42,2.38-1.55-3.42-.9c3.14,4.82,6.2,9.7,9.64,14.31,2.49,3.33,5.15,6.56,8.26,9.33,1.19,1.06,2.44,2.24,3.88,2.96,1.71,.86,3.6,1.26,5.51,1.32s3.92-.53,5.28-2.02c1.46-1.59,2.16-3.65,2.97-5.61l-3.67,1.49,2.61,1.1-1.15-2.82c-.17,.42-.34,.84-.51,1.26-.1,.24,.13-.28-.06,.14-.07,.15-.13,.3-.2,.44-.31,.66-.78,1.53-1.12,1.98-.88,1.18-2,1.84-3.7,1.87-3.21,.07-3.22,5.07,0,5,2.77-.06,5.37-1.12,7.18-3.27,1.52-1.82,2.33-3.93,3.22-6.1,.37-.9-.23-2.43-1.15-2.82l-2.61-1.1c-1.62-.68-3-.13-3.67,1.49-.46,1.12-1,2.63-1.68,3.4-.37,.42-.36,.4-.72,.5-.5,.13-1.29,.08-1.94,0-1.25-.16-1.94-.41-2.86-1.04-1.3-.89-2.47-2.04-3.59-3.13-5.13-5.03-9.04-11.14-12.94-17.13-.89-1.36-1.77-2.72-2.66-4.08-.71-1.09-2.24-1.66-3.42-.9l-2.38,1.55c-1.09,.71-1.66,2.24-.9,3.42,3.38,5.19,6.67,10.45,10.43,15.36,2.67,3.49,5.55,6.84,8.92,9.68,1.34,1.13,2.68,2.21,4.31,2.9,2.06,.89,4.23,1.24,6.47,1.27,3.22,.04,3.22-4.96,0-5Z"/><path class="cls-1" d="M138.14,11.6c4.5,6.9,8.84,14.03,14.38,20.16,1.26,1.4,2.59,2.73,4,3.97,1.22,1.07,2.49,2.23,3.95,2.96,3.07,1.55,7.31,2.2,10.46,.54,2.94-1.55,4.05-4.7,5.25-7.57,.52-1.25-.56-2.75-1.75-3.08-1.44-.4-2.55,.49-3.08,1.75-.86,2.06-1.6,4.59-3.92,4.82-3.8,.38-6.31-1.88-8.9-4.37-6.5-6.28-11.18-14.2-16.08-21.72-1.75-2.69-6.08-.18-4.32,2.52h0Z"/><path class="cls-1" d="M158.54,54.07c-.16,0-.33,0-.49-.02-.27-.03-.33-.03-.16,0,.17,.03,.12,.01-.16-.03-.16-.03-.32-.07-.48-.11-.21-.06-.41-.13-.61-.2-.58-.2,.43,.25-.11-.06-.17-.09-.34-.18-.5-.28-.06-.03-.68-.43-.38-.23s-.27-.24-.33-.29c-.14-.13-.27-.26-.4-.4s-.25-.28-.37-.43c.38,.47,.03,.02-.04-.1-.12-.18-.23-.37-.33-.57-.04-.08-.09-.17-.12-.25-.11-.25-.1-.23,.03,.08-.21-.21-.24-.78-.31-1.07-.13-.55,0,.45-.02-.07-.01-.25-.03-.5-.02-.75l-2.5,2.5,2.83,.08-2.5-2.5c0,3.04,2.19,5.85,5.12,6.63s6.01-.46,7.83-2.85l-3.42,.9,2.29,1.66-.9-3.42c.36-.49-.18,.18-.26,.26-.19,.19-.39,.37-.6,.54,.47-.38-.22,.13-.32,.19-.2,.12-.41,.23-.62,.34-.57,.28,.22-.03-.25,.1-.26,.07-.52,.17-.78,.23-.13,.03-.99,.14-.34,.08-.27,.02-.54,.04-.82,.04-1.31,.02-2.56,1.14-2.5,2.5s1.1,2.52,2.5,2.5c3.35-.04,6.3-1.59,8.3-4.26,.35-.47,.43-1.39,.25-1.93-.21-.65-.59-1.09-1.15-1.49l-2.29-1.66c-1.19-.86-2.67-.09-3.42,.9,.38-.5,.01-.08-.08,.03-.3,.35,.37-.22-.15,.11-.16,.1-.33,.18-.49,.27-.17,.08-.11,.06,.17-.06-.09,.03-.18,.06-.27,.09-.14,.04-.51,.21-.64,.16l.29-.03c-.13,.01-.25,.02-.38,.03-.13,0-.47,.06-.56-.01l.29,.04c-.12-.02-.24-.05-.36-.08-.15-.04-.61-.28-.13-.01-.17-.1-.34-.19-.51-.28-.5-.29,.29,.33-.11-.08-.14-.14-.27-.28-.4-.42,.39,.42,.02,.02-.06-.12-.06-.11-.13-.22-.18-.34l.1,.25c-.12-.15-.13-.45-.18-.63-.04-.19-.03-.12,.02,.2,0-.12-.01-.25,0-.37,0-1.38-1.15-2.46-2.5-2.5l-2.83-.08c-1.36-.04-2.48,1.18-2.5,2.5-.08,5.4,4.5,9.7,9.79,9.78,1.31,.02,2.56-1.16,2.5-2.5s-1.1-2.48-2.5-2.5Z"/><path class="cls-1" d="M150.17,49.33c-.05,3.65,2.55,6.96,6.02,7.99,1.62,.48,3.48,.43,5.07-.1,1.84-.61,3.28-1.7,4.43-3.24,.36-.49,.41-1.37,.25-1.93s-.61-1.21-1.15-1.49c-1.31-.69-2.58-.23-3.42,.9,.46-.61-.11,.09-.26,.23-.05,.04-.28,.19-.28,.25,.29-.22,.36-.27,.2-.16-.06,.05-.12,.09-.19,.13-.23,.16-.48,.3-.73,.42-.36,.18-.09,0,.1-.04-.13,.02-.31,.11-.44,.15-.25,.08-.5,.13-.75,.18-.53,.12,.59-.03,.05,0-.13,0-.26,.02-.39,.02-.28,0-.57-.05-.85-.04,.21,0,.53,.09,.13,0-.15-.03-.3-.07-.45-.11-.03,0-.35-.14-.37-.12,.33,.15,.41,.18,.23,.1-.07-.03-.14-.07-.21-.1-.23-.12-.45-.26-.67-.4-.45-.28,.4,.37,.01,.01-.09-.09-.19-.17-.29-.26s-.18-.18-.27-.28c-.05-.06-.1-.12-.15-.17-.12-.14-.07-.08,.15,.2,0-.12-.35-.52-.42-.65-.04-.08-.13-.36-.21-.41,.14,.34,.17,.42,.11,.25-.03-.07-.05-.14-.08-.21-.08-.24-.13-.49-.19-.73-.12-.51,.01,.58,.02,.06,0-.15,0-.3,0-.45,.02-1.31-1.16-2.56-2.5-2.5s-2.48,1.1-2.5,2.5h0Z"/><path class="cls-1" d="M125.38,23.75c-2.44-.08-4.89-.16-7.33-.24l-1.05-.04,2.5,2.5c.03-.94,.06-1.89,.09-2.83l-2.5,2.5c2.44,.08,4.89,.16,7.33,.24l1.05,.04-2.5-2.5c-.03,.94-.06,1.89-.09,2.83-.04,1.31,1.18,2.56,2.5,2.5,1.39-.06,2.45-1.1,2.5-2.5,.03-.94,.06-1.89,.09-2.83,.05-1.38-1.18-2.46-2.5-2.5-2.44-.08-4.89-.16-7.33-.24l-1.05-.04c-1.38-.05-2.46,1.18-2.5,2.5-.03,.94-.06,1.89-.09,2.83-.05,1.38,1.18,2.46,2.5,2.5,2.44,.08,4.89,.16,7.33,.24l1.05,.04c1.31,.04,2.56-1.18,2.5-2.5-.06-1.39-1.1-2.45-2.5-2.5Z"/><path class="cls-1" d="M117.04,27.05l8.38,.28c1.31,.04,2.56-1.18,2.5-2.5-.06-1.39-1.1-2.45-2.5-2.5l-8.38-.28c-1.31-.04-2.56,1.18-2.5,2.5,.06,1.39,1.1,2.45,2.5,2.5h0Z"/><path class="cls-1" d="M130.68,15.52c-2.44-.08-4.89-.16-7.33-.24l-1.05-.04,2.5,2.5c.03-.94,.06-1.89,.09-2.83l-2.5,2.5c2.44,.08,4.89,.16,7.33,.24l1.05,.04-2.5-2.5c-.03,.94-.06,1.89-.09,2.83-.04,1.31,1.18,2.56,2.5,2.5,1.39-.06,2.45-1.1,2.5-2.5,.03-.94,.06-1.89,.09-2.83,.05-1.38-1.18-2.46-2.5-2.5-2.44-.08-4.89-.16-7.33-.24l-1.05-.04c-1.38-.05-2.46,1.18-2.5,2.5-.03,.94-.06,1.89-.09,2.83-.05,1.38,1.18,2.46,2.5,2.5,2.44,.08,4.89,.16,7.33,.24l1.05,.04c1.31,.04,2.56-1.18,2.5-2.5-.06-1.39-1.1-2.45-2.5-2.5Z"/><path class="cls-1" d="M122.35,18.82l8.38,.28c1.31,.04,2.56-1.18,2.5-2.5-.06-1.39-1.1-2.45-2.5-2.5l-8.38-.28c-1.31-.04-2.56,1.18-2.5,2.5,.06,1.39,1.1,2.45,2.5,2.5h0Z"/><path class="cls-1" d="M141.82,28.12h-8.61l2.5,2.5v-2.83l-2.5,2.5h8.61l-2.5-2.5v2.83c0,1.31,1.15,2.56,2.5,2.5s2.5-1.1,2.5-2.5v-2.83c0-1.35-1.15-2.5-2.5-2.5h-8.61c-1.35,0-2.5,1.15-2.5,2.5v2.83c0,1.35,1.15,2.5,2.5,2.5h8.61c1.31,0,2.56-1.15,2.5-2.5s-1.1-2.5-2.5-2.5Z"/><path class="cls-1" d="M133.21,31.7h8.61c1.31,0,2.56-1.15,2.5-2.5s-1.1-2.5-2.5-2.5h-8.61c-1.31,0-2.56,1.15-2.5,2.5s1.1,2.5,2.5,2.5h0Z"/><path class="cls-1" d="M152.03,39.12h-27.37l2.5,2.5v-2.83l-2.5,2.5h27.37l-2.5-2.5v2.83c0,3.22,5,3.22,5,0v-2.83c0-1.35-1.15-2.5-2.5-2.5h-27.37c-1.35,0-2.5,1.15-2.5,2.5v2.83c0,1.35,1.15,2.5,2.5,2.5h27.37c3.22,0,3.22-5,0-5Z"/><path class="cls-1" d="M124.67,42.7h27.36c3.22,0,3.22-5,0-5h-27.36c-3.22,0-3.22,5,0,5h0Z"/><path class="cls-1" d="M138.93,60.18h-2.83l2.5,2.5v-20.14l-2.5,2.5h2.83l-2.5-2.5v20.14c0,3.22,5,3.22,5,0v-20.14c0-1.35-1.15-2.5-2.5-2.5h-2.83c-1.35,0-2.5,1.15-2.5,2.5v20.14c0,1.35,1.15,2.5,2.5,2.5h2.83c3.22,0,3.22-5,0-5Z"/><path class="cls-1" d="M135.02,42.54v20.14c0,3.22,5,3.22,5,0v-20.14c0-3.22-5-3.22-5,0h0Z"/><path class="cls-1" d="M118.22,54.07c-.27,0-.54-.02-.82-.04,.65,.05-.21-.05-.34-.08-.27-.06-.52-.16-.78-.23-.47-.13,.33,.18-.25-.1-.21-.1-.42-.22-.62-.34-.1-.06-.79-.57-.32-.19-.21-.17-.41-.35-.6-.54-.08-.08-.62-.75-.26-.26l-.9,3.42,2.29-1.66-3.42-.9c1.83,2.39,4.85,3.63,7.83,2.85s5.13-3.59,5.12-6.63l-2.5,2.5,2.83-.08-2.5-2.5c0,.22,0,.44-.02,.66-.05,.66,.11-.33-.02,.17-.02,.08-.26,1.08-.31,1.07,.14-.31,.15-.34,.03-.08l-.08,.17c-.1,.19-.21,.38-.32,.57-.07,.12-.49,.68-.09,.18-.12,.15-.24,.29-.37,.43-.26,.28-.53,.53-.83,.77,.49-.39-.08,.03-.19,.1-.19,.12-.39,.21-.58,.33-.44,.26,.42-.13-.11,.06-.2,.07-.4,.14-.61,.2-.24,.07-.48,.12-.72,.16,.48-.07-.46,0-.56,.01-1.31,.02-2.56,1.13-2.5,2.5s1.1,2.52,2.5,2.5c5.29-.09,9.87-4.39,9.79-9.78-.02-1.32-1.13-2.54-2.5-2.5l-2.83,.08c-1.35,.04-2.5,1.11-2.5,2.5,0,.12,0,.25,0,.37l.04-.29c.05,.16-.13,.48-.17,.63-.06,.17-.04,.12,.07-.16-.04,.09-.09,.17-.13,.25-.04,.07-.4,.57-.18,.3s-.28,.27-.33,.32c-.33,.35,.35-.16-.11,.08-.17,.09-.34,.2-.51,.28,.37-.19,.11-.05-.13,.01-.09,.02-.18,.04-.27,.06-.19,.03-.12,.03,.2-.02,0,0-.54,.02-.56,.01-.09,0-.19,0-.28-.02-.19-.02-.13,0,.19,.03-.12,.04-.42-.09-.55-.13-.12-.04-.24-.08-.36-.12l.25,.11c-.15-.02-.36-.18-.49-.26-.11-.06-.21-.13-.31-.21,.24,.19,.29,.22,.15,.1-.09-.11-.55-.62-.15-.09-.76-.99-2.22-1.77-3.42-.9l-2.29,1.66c-1,.72-1.77,2.26-.9,3.42,2,2.67,4.94,4.21,8.3,4.26,1.31,.02,2.56-1.16,2.5-2.5s-1.1-2.48-2.5-2.5Z"/><path class="cls-1" d="M121.6,49.33c0,.15,0,.3,0,.45-.01,.45,.09-.45,.03-.14-.06,.27-.11,.54-.2,.81l-.05,.14c-.1,.25-.07,.19,.08-.17-.07,.04-.13,.27-.17,.34-.13,.24-.33,.47-.45,.71,.09-.19,.31-.38,.05-.09-.09,.1-.17,.19-.27,.28-.11,.11-.23,.21-.34,.32-.33,.3,.33-.22,.08-.06s-.48,.31-.73,.44l-.14,.07c-.19,.09-.19,.09,0,0,.2-.08,.2-.09,0-.01-.07,.03-.15,.05-.22,.07-.12,.04-.25,.07-.38,.1-.08,.02-.15,.03-.23,.05-.19,.03-.1,.02,.28-.03-.21-.05-.55,.04-.77,.04-.16,0-.31-.01-.47-.02-.46-.03,.44,.09,.13,.02-.28-.06-.56-.11-.83-.2-.12-.04-.24-.09-.37-.13-.29-.09,.5,.25,.1,.04-.27-.14-.54-.28-.8-.45-.08-.05-.47-.27-.12-.07s-.01-.02-.1-.1c-.11-.1-.22-.21-.32-.32-.12-.13-.41-.53,0,.04-.4-.54-.82-.96-1.49-1.15-.6-.16-1.4-.09-1.93,.25-1.03,.67-1.73,2.3-.9,3.42,1.15,1.54,2.6,2.63,4.43,3.24,1.6,.53,3.46,.58,5.07,.1,3.46-1.03,6.06-4.34,6.02-7.99-.02-1.31-1.14-2.56-2.5-2.5s-2.52,1.1-2.5,2.5h0Z"/></g></g></svg>