<?xml version="1.0" encoding="UTF-8"?><svg id="_レイヤー_2" xmlns="http://www.w3.org/2000/svg" viewBox="0 0 480.07 480.07"><defs><style>.cls-1{fill:#e8c783;}.cls-2{fill:#e9c66b;}</style></defs><g id="_レイヤー_2-2"><path class="cls-1" d="M239.56,480.07L0,240.51,240.51,0l239.56,239.56-1.59,1.59-238.91,238.91ZM6.37,240.51l233.19,233.19,234.13-234.13L240.51,6.38,6.37,240.51Z"/><path class="cls-1" d="M239.56,462.68L17.4,240.51,240.51,17.4l222.17,222.17-223.11,223.11ZM20.58,240.51l218.98,218.98,219.92-219.92L240.51,20.58,20.58,240.51Z"/><g><g><path class="cls-2" d="M50.06,240.8c0-12.3-5.15-23.39-13.39-31.31l-1.19,1.19c7.93,7.61,12.89,18.29,12.89,30.12,0,11.83-4.96,22.5-12.89,30.11l1.19,1.19c8.23-7.91,13.38-19.01,13.38-31.3Z"/><path class="cls-2" d="M40.5,240.79c0-9.66-4.08-18.37-10.58-24.56l-1.2,1.2c6.2,5.87,10.09,14.16,10.09,23.36,0,9.2-3.89,17.48-10.09,23.35l1.2,1.2c6.5-6.18,10.57-14.89,10.57-24.55Z"/><path class="cls-2" d="M30.94,240.79c0-7.03-3.01-13.34-7.78-17.79l-1.22,1.22c4.47,4.14,7.32,10.01,7.32,16.57,0,6.56-2.84,12.42-7.31,16.56l1.22,1.22c4.77-4.44,7.78-10.76,7.78-17.78Z"/><path class="cls-2" d="M21.38,240.79c0-4.39-1.93-8.32-4.98-11.03l-1.2,1.2c2.74,2.41,4.49,5.91,4.49,9.83,0,3.92-1.75,7.42-4.48,9.83l1.2,1.2c3.04-2.71,4.97-6.64,4.97-11.02Z"/><path class="cls-2" d="M59.53,243.83c.06-1,.09-2.01,.09-3.03s-.04-2.03-.09-3.03c19.44-7.88,33.19-26.95,33.19-49.18,0-10.04-2.86-19.41-7.72-27.42l-1.23,1.23c4.58,7.68,7.26,16.62,7.26,26.2,0,21.34-13.08,39.67-31.64,47.42-.25-2.74-.7-5.42-1.35-8.02,14.82-6.94,25.11-21.99,25.11-39.4,0-7.39-1.86-14.35-5.13-20.45l-1.26,1.26c2.99,5.75,4.71,12.27,4.71,19.19,0,16.63-9.77,31.03-23.87,37.75-.73-2.57-1.65-5.06-2.74-7.46,11.09-5.59,18.73-17.05,18.73-30.29,0-4.72-.97-9.21-2.72-13.3l-1.3,1.3c1.49,3.71,2.34,7.76,2.34,12,0,12.57-7.25,23.45-17.76,28.77-1.17-2.37-2.52-4.64-4.02-6.79,8.21-3.93,13.91-12.29,13.91-21.98,0-1.98-.26-3.9-.71-5.75l-1.4,1.4c.27,1.41,.43,2.86,.43,4.34,0,9.12-5.43,16.99-13.21,20.59-1.68-2.25-3.54-4.36-5.54-6.32,5.11-1.41,9.08-5.51,10.38-10.66l-2.95,2.95c-1.15,1.98-2.8,3.63-4.78,4.78l-4.01,4.01c1.9,1.84,3.69,3.8,5.29,5.91,.35,.46,.69,.94,1.03,1.42,1.53,2.16,2.89,4.44,4.08,6.83,.25,.5,.48,1.01,.72,1.52,1.09,2.39,1.99,4.87,2.71,7.43,.15,.55,.3,1.1,.43,1.65,.63,2.58,1.05,5.24,1.27,7.96,.05,.59,.09,1.17,.12,1.76,.04,.79,.06,1.58,.06,2.38s-.02,1.59-.06,2.38c-.03,.59-.07,1.18-.12,1.76-.22,2.72-.65,5.38-1.27,7.96-.13,.55-.28,1.1-.43,1.65-.71,2.56-1.62,5.05-2.71,7.43-.23,.51-.47,1.02-.72,1.52-1.18,2.39-2.55,4.67-4.08,6.83-.34,.48-.67,.95-1.03,1.42-1.6,2.11-3.38,4.06-5.28,5.9l4.04,4.04c1.94,1.14,3.57,2.77,4.71,4.71l2.97,2.97c-1.31-5.14-5.27-9.23-10.38-10.64,2.01-1.96,3.87-4.07,5.54-6.32,7.78,3.6,13.21,11.46,13.21,20.59,0,1.48-.15,2.92-.42,4.32l1.4,1.4c.45-1.84,.71-3.75,.71-5.73,0-9.69-5.7-18.05-13.91-21.98,1.5-2.15,2.85-4.42,4.02-6.79,10.52,5.32,17.76,16.2,17.76,28.77,0,4.23-.84,8.27-2.33,11.98l1.31,1.31c1.74-4.08,2.71-8.57,2.71-13.28,0-13.24-7.64-24.71-18.73-30.3,1.09-2.4,2.01-4.89,2.74-7.46,14.1,6.73,23.87,21.12,23.87,37.76,0,6.91-1.71,13.42-4.7,19.17l1.26,1.26c3.26-6.1,5.12-13.05,5.12-20.44,0-17.41-10.29-32.46-25.11-39.41,.65-2.6,1.1-5.28,1.35-8.02,18.56,7.75,31.64,26.09,31.64,47.43,0,9.57-2.68,18.5-7.25,26.18l1.23,1.23c4.86-8.01,7.71-17.37,7.71-27.41,0-22.23-13.75-41.3-33.19-49.19Z"/></g><g><path class="cls-2" d="M239.28,430.01c12.3,0,23.39,5.15,31.31,13.39l-1.19,1.19c-7.61-7.93-18.29-12.89-30.12-12.89-11.83,0-22.5,4.96-30.11,12.89l-1.19-1.19c7.91-8.23,19.01-13.38,31.3-13.38Z"/><path class="cls-2" d="M239.28,439.57c9.66,0,18.37,4.08,24.56,10.58l-1.2,1.2c-5.87-6.2-14.16-10.09-23.36-10.09-9.2,0-17.48,3.89-23.35,10.09l-1.2-1.2c6.18-6.5,14.89-10.57,24.55-10.57Z"/><path class="cls-2" d="M239.28,449.13c7.03,0,13.34,3,17.79,7.78l-1.22,1.22c-4.14-4.47-10.01-7.32-16.57-7.32-6.56,0-12.42,2.84-16.56,7.31l-1.22-1.22c4.44-4.77,10.76-7.78,17.78-7.78Z"/><path class="cls-2" d="M239.28,458.7c4.39,0,8.32,1.93,11.03,4.98l-1.2,1.2c-2.41-2.74-5.91-4.49-9.83-4.49-3.92,0-7.42,1.75-9.83,4.48l-1.2-1.2c2.71-3.04,6.64-4.97,11.02-4.97Z"/><path class="cls-2" d="M236.24,420.54c1-.06,2.01-.09,3.03-.09s2.03,.04,3.03,.09c7.88-19.44,26.95-33.19,49.18-33.19,10.04,0,19.41,2.86,27.42,7.72l-1.23,1.23c-7.68-4.58-16.62-7.26-26.2-7.26-21.34,0-39.67,13.08-47.42,31.64,2.74,.25,5.42,.7,8.02,1.35,6.94-14.82,21.99-25.11,39.4-25.11,7.39,0,14.35,1.86,20.45,5.13l-1.26,1.26c-5.75-2.99-12.27-4.71-19.19-4.71-16.63,0-31.03,9.77-37.75,23.87,2.57,.73,5.06,1.65,7.46,2.74,5.59-11.09,17.05-18.73,30.29-18.73,4.72,0,9.21,.97,13.3,2.72l-1.3,1.3c-3.71-1.49-7.75-2.34-12-2.34-12.57,0-23.45,7.25-28.77,17.76,2.37,1.17,4.64,2.52,6.79,4.02,3.93-8.21,12.29-13.91,21.98-13.91,1.98,0,3.9,.26,5.75,.71l-1.4,1.4c-1.41-.27-2.86-.43-4.34-.43-9.12,0-16.99,5.43-20.59,13.21,2.25,1.68,4.36,3.54,6.32,5.54,1.41-5.11,5.51-9.08,10.66-10.38l-2.95,2.95c-1.98,1.15-3.63,2.8-4.78,4.78l-4.01,4.01c-1.84-1.9-3.8-3.69-5.91-5.29-.46-.35-.94-.69-1.42-1.03-2.16-1.53-4.44-2.89-6.83-4.08-.5-.25-1.01-.48-1.52-.72-2.39-1.09-4.87-1.99-7.43-2.71-.55-.15-1.1-.3-1.65-.43-2.58-.63-5.24-1.05-7.96-1.27-.59-.05-1.17-.09-1.76-.12-.79-.04-1.58-.06-2.38-.06s-1.59,.02-2.38,.06c-.59,.03-1.18,.07-1.76,.12-2.72,.22-5.38,.65-7.96,1.27-.55,.13-1.1,.28-1.65,.43-2.56,.71-5.05,1.62-7.43,2.71-.51,.23-1.02,.47-1.52,.72-2.39,1.18-4.67,2.55-6.83,4.08-.48,.34-.95,.67-1.42,1.03-2.11,1.6-4.06,3.38-5.9,5.28l-4.04-4.04c-1.14-1.94-2.77-3.57-4.71-4.71l-2.97-2.97c5.14,1.31,9.23,5.27,10.64,10.38,1.96-2.01,4.07-3.87,6.32-5.54-3.6-7.78-11.46-13.21-20.59-13.21-1.48,0-2.92,.15-4.32,.42l-1.4-1.4c1.84-.45,3.75-.71,5.73-.71,9.69,0,18.05,5.7,21.98,13.91,2.15-1.5,4.42-2.85,6.79-4.02-5.32-10.52-16.2-17.76-28.77-17.76-4.23,0-8.27,.84-11.98,2.33l-1.31-1.31c4.08-1.74,8.57-2.71,13.28-2.71,13.24,0,24.71,7.64,30.3,18.73,2.4-1.09,4.89-2.01,7.46-2.74-6.73-14.1-21.12-23.87-37.76-23.87-6.91,0-13.42,1.71-19.17,4.7l-1.26-1.26c6.1-3.26,13.05-5.12,20.44-5.12,17.41,0,32.46,10.29,39.41,25.11,2.6-.65,5.28-1.1,8.02-1.35-7.75-18.56-26.09-31.64-47.43-31.64-9.57,0-18.5,2.68-26.18,7.25l-1.23-1.23c8.01-4.86,17.37-7.71,27.41-7.71,22.23,0,41.3,13.75,49.19,33.19Z"/></g></g><g><g><path class="cls-2" d="M429.78,239.5c0,12.3,5.15,23.39,13.39,31.31l1.19-1.19c-7.93-7.61-12.89-18.29-12.89-30.12,0-11.83,4.96-22.5,12.89-30.11l-1.19-1.19c-8.23,7.91-13.38,19.01-13.38,31.3Z"/><path class="cls-2" d="M439.34,239.5c0,9.66,4.08,18.37,10.58,24.56l1.2-1.2c-6.2-5.87-10.09-14.16-10.09-23.36,0-9.2,3.89-17.48,10.09-23.35l-1.2-1.2c-6.5,6.18-10.57,14.89-10.57,24.55Z"/><path class="cls-2" d="M448.91,239.5c0,7.03,3,13.34,7.78,17.79l1.22-1.22c-4.47-4.14-7.32-10.01-7.32-16.57,0-6.56,2.84-12.42,7.31-16.56l-1.22-1.22c-4.77,4.44-7.78,10.76-7.78,17.78Z"/><path class="cls-2" d="M458.47,239.5c0,4.39,1.93,8.32,4.98,11.03l1.2-1.2c-2.74-2.41-4.49-5.91-4.49-9.83,0-3.92,1.75-7.42,4.48-9.83l-1.2-1.2c-3.04,2.71-4.97,6.64-4.97,11.02Z"/><path class="cls-2" d="M420.31,236.47c-.06,1-.09,2.01-.09,3.03s.04,2.03,.09,3.03c-19.44,7.88-33.19,26.95-33.19,49.18,0,10.04,2.86,19.41,7.72,27.42l1.23-1.23c-4.58-7.68-7.26-16.62-7.26-26.2,0-21.34,13.08-39.67,31.64-47.42,.25,2.74,.7,5.42,1.35,8.02-14.82,6.94-25.11,21.99-25.11,39.4,0,7.39,1.86,14.35,5.13,20.45l1.26-1.26c-2.99-5.75-4.71-12.27-4.71-19.19,0-16.63,9.77-31.03,23.87-37.76,.73,2.57,1.65,5.06,2.74,7.46-11.09,5.59-18.73,17.05-18.73,30.29,0,4.72,.97,9.21,2.72,13.3l1.3-1.3c-1.49-3.71-2.34-7.76-2.34-12,0-12.57,7.25-23.45,17.76-28.77,1.17,2.37,2.52,4.64,4.02,6.79-8.21,3.93-13.91,12.29-13.91,21.98,0,1.98,.26,3.9,.71,5.75l1.4-1.4c-.27-1.41-.43-2.86-.43-4.34,0-9.12,5.43-16.99,13.21-20.59,1.68,2.25,3.54,4.36,5.54,6.32-5.11,1.41-9.08,5.51-10.38,10.66l2.95-2.95c1.15-1.98,2.8-3.62,4.78-4.78l4.01-4.01c-1.9-1.84-3.69-3.8-5.29-5.91-.35-.46-.69-.94-1.03-1.42-1.53-2.16-2.89-4.44-4.08-6.83-.25-.5-.48-1.01-.72-1.52-1.09-2.39-1.99-4.87-2.71-7.43-.15-.55-.3-1.1-.43-1.65-.63-2.58-1.05-5.24-1.27-7.96-.05-.59-.09-1.17-.12-1.76-.04-.79-.06-1.58-.06-2.38s.02-1.59,.06-2.38c.03-.59,.07-1.18,.12-1.76,.22-2.72,.65-5.38,1.27-7.96,.13-.55,.28-1.1,.43-1.65,.71-2.56,1.62-5.05,2.71-7.43,.23-.51,.47-1.02,.72-1.52,1.18-2.39,2.55-4.67,4.08-6.83,.34-.48,.67-.95,1.03-1.42,1.6-2.11,3.38-4.06,5.28-5.9l-4.04-4.04c-1.94-1.14-3.57-2.77-4.71-4.71l-2.97-2.97c1.31,5.14,5.27,9.23,10.38,10.64-2.01,1.96-3.87,4.07-5.54,6.32-7.78-3.6-13.21-11.46-13.21-20.59,0-1.48,.15-2.92,.42-4.32l-1.4-1.4c-.45,1.84-.71,3.75-.71,5.73,0,9.69,5.7,18.05,13.91,21.98-1.5,2.15-2.85,4.42-4.02,6.79-10.52-5.32-17.76-16.2-17.76-28.77,0-4.23,.84-8.27,2.33-11.98l-1.31-1.31c-1.74,4.08-2.71,8.57-2.71,13.28,0,13.24,7.64,24.71,18.73,30.3-1.09,2.4-2.01,4.89-2.74,7.46-14.1-6.73-23.87-21.12-23.87-37.76,0-6.91,1.71-13.42,4.7-19.17l-1.26-1.26c-3.26,6.1-5.12,13.05-5.12,20.44,0,17.41,10.29,32.46,25.11,39.41-.65,2.6-1.1,5.28-1.35,8.02-18.56-7.75-31.64-26.09-31.64-47.43,0-9.57,2.68-18.5,7.25-26.18l-1.23-1.23c-4.86,8.01-7.71,17.37-7.71,27.41,0,22.23,13.75,41.3,33.19,49.19Z"/></g><g><path class="cls-2" d="M240.57,50.29c-12.3,0-23.39-5.15-31.31-13.39l1.19-1.19c7.61,7.93,18.29,12.89,30.12,12.89,11.83,0,22.5-4.96,30.11-12.89l1.19,1.19c-7.91,8.23-19.01,13.38-31.3,13.38Z"/><path class="cls-2" d="M240.57,40.73c-9.66,0-18.37-4.08-24.56-10.58l1.2-1.2c5.87,6.2,14.16,10.09,23.36,10.09,9.2,0,17.48-3.89,23.35-10.09l1.2,1.2c-6.18,6.5-14.89,10.57-24.55,10.57Z"/><path class="cls-2" d="M240.57,31.16c-7.03,0-13.34-3.01-17.79-7.78l1.22-1.22c4.14,4.47,10.01,7.32,16.57,7.32,6.56,0,12.42-2.84,16.56-7.31l1.22,1.22c-4.44,4.77-10.76,7.78-17.78,7.78Z"/><path class="cls-2" d="M240.57,21.6c-4.39,0-8.32-1.93-11.03-4.98l1.2-1.2c2.41,2.74,5.91,4.49,9.83,4.49,3.92,0,7.42-1.75,9.83-4.48l1.2,1.2c-2.71,3.04-6.64,4.97-11.02,4.97Z"/><path class="cls-2" d="M243.6,59.76c-1,.06-2.01,.09-3.03,.09s-2.03-.04-3.03-.09c-7.88,19.44-26.95,33.19-49.18,33.19-10.04,0-19.41-2.86-27.42-7.72l1.23-1.23c7.68,4.58,16.62,7.26,26.2,7.26,21.34,0,39.67-13.08,47.42-31.64-2.74-.25-5.42-.7-8.02-1.35-6.94,14.82-21.99,25.11-39.4,25.11-7.39,0-14.35-1.86-20.45-5.13l1.26-1.26c5.75,2.99,12.27,4.71,19.19,4.71,16.63,0,31.03-9.77,37.76-23.87-2.57-.73-5.06-1.65-7.46-2.74-5.59,11.09-17.05,18.73-30.29,18.73-4.72,0-9.21-.97-13.3-2.72l1.3-1.3c3.71,1.49,7.76,2.34,12,2.34,12.57,0,23.45-7.25,28.77-17.76-2.37-1.17-4.64-2.52-6.79-4.02-3.93,8.21-12.29,13.91-21.98,13.91-1.98,0-3.9-.26-5.75-.71l1.4-1.4c1.41,.27,2.86,.43,4.34,.43,9.12,0,16.99-5.43,20.59-13.21-2.25-1.68-4.36-3.54-6.32-5.54-1.41,5.11-5.51,9.08-10.66,10.38l2.95-2.95c1.98-1.15,3.62-2.8,4.78-4.78l4.01-4.01c1.84,1.9,3.8,3.69,5.91,5.29,.46,.35,.94,.69,1.42,1.03,2.16,1.53,4.44,2.89,6.83,4.08,.5,.25,1.01,.48,1.52,.72,2.39,1.09,4.87,1.99,7.43,2.71,.55,.15,1.1,.3,1.65,.43,2.58,.63,5.24,1.05,7.96,1.27,.59,.05,1.17,.09,1.76,.12,.79,.04,1.58,.06,2.38,.06s1.59-.02,2.38-.06c.59-.03,1.18-.07,1.76-.12,2.72-.22,5.38-.65,7.96-1.27,.55-.13,1.1-.28,1.65-.43,2.56-.71,5.05-1.62,7.43-2.71,.51-.23,1.02-.47,1.52-.72,2.39-1.18,4.67-2.55,6.83-4.08,.48-.34,.95-.67,1.42-1.03,2.11-1.6,4.06-3.38,5.9-5.28l4.04,4.04c1.14,1.94,2.77,3.57,4.71,4.71l2.97,2.97c-5.14-1.31-9.23-5.27-10.64-10.38-1.96,2.01-4.07,3.87-6.32,5.54,3.6,7.78,11.46,13.21,20.59,13.21,1.48,0,2.92-.15,4.32-.42l1.4,1.4c-1.84,.45-3.75,.71-5.73,.71-9.69,0-18.05-5.7-21.98-13.91-2.15,1.5-4.42,2.85-6.79,4.02,5.32,10.52,16.2,17.76,28.77,17.76,4.23,0,8.27-.84,11.98-2.33l1.31,1.31c-4.08,1.74-8.57,2.71-13.28,2.71-13.24,0-24.71-7.64-30.3-18.73-2.4,1.09-4.89,2.01-7.46,2.74,6.73,14.1,21.12,23.87,37.76,23.87,6.91,0,13.42-1.71,19.17-4.7l1.26,1.26c-6.1,3.26-13.05,5.12-20.43,5.12-17.41,0-32.46-10.29-39.41-25.11-2.6,.65-5.28,1.1-8.02,1.35,7.75,18.56,26.09,31.64,47.43,31.64,9.57,0,18.5-2.68,26.18-7.25l1.23,1.23c-8.01,4.86-17.37,7.71-27.41,7.71-22.23,0-41.3-13.75-49.19-33.19Z"/></g></g></g></svg>