<?xml version="1.0" encoding="UTF-8"?><svg id="_レイヤー_2" xmlns="http://www.w3.org/2000/svg" xmlns:xlink="http://www.w3.org/1999/xlink" viewBox="0 0 306.29 148.24"><defs><style>.cls-1{fill:url(#_名称未設定グラデーション_2);}</style><linearGradient id="_名称未設定グラデーション_2" x1="-912.28" y1="-632.9" x2="1027.1" y2="694.93" gradientUnits="userSpaceOnUse"><stop offset=".03" stop-color="#fbe1b6"/><stop offset=".59" stop-color="#c19a3d"/><stop offset=".74" stop-color="#c89f3f"/><stop offset=".95" stop-color="#dbaf46"/><stop offset="1" stop-color="#e1b448"/></linearGradient></defs><g id="_アートボードのガイド"><path class="cls-1" d="M38.74,48.68c-8.41,0-16.46,3.25-23.98,9.68C-4.19,74.57-3.32,105.29,8.47,125.64c11.46,19.77,30.64,27.17,51.29,19.8,51.84-18.5,89.36-17.3,93.47-17.1,.37,.02,.73,.11,1.05,.26,7.42-.37,43.12-1.02,92.8,16.08,20.75,7.13,39.84-.49,51.08-20.4,11.56-20.48,12.1-51.21-7.01-67.19h0c-8.66-7.25-18-10.34-27.67-9.17-21.6,2.59-38.47,25.13-38.64,25.36-.77,1.05-2.19,1.4-3.37,.83-1.18-.57-1.78-1.89-1.44-3.16,.07-.27,7.13-27.28-8-47.53C201.1,8.81,181.37,1.06,153.4,.4c-.5-.01-.96-.16-1.35-.4-28,.93-47.67,8.85-58.48,23.54-15.1,20.53-7.62,47.59-7.55,47.86,.36,1.26-.23,2.59-1.4,3.18-1.18,.58-2.59,.25-3.38-.79-.17-.23-17.34-22.59-38.92-24.92-1.2-.13-2.4-.19-3.58-.19ZM237.66,114.14c-1.88,0-3.55-.67-4.89-1.97h0c-1.58-1.54-2.31-3.59-2.11-5.93,1.28-14.51,43.58-43.55,48.4-46.81,1.05-.71,2.46-.6,3.39,.28,.93,.88,1.12,2.28,.46,3.37-3.02,5.02-29.91,49.14-44.17,51-.37,.05-.72,.07-1.08,.07Zm-174.76-1.43c-.39,0-.79-.03-1.2-.09-14.24-2.09-40.4-46.64-43.34-51.71-.64-1.1-.42-2.5,.51-3.36,.94-.86,2.36-.96,3.4-.22,4.76,3.34,46.59,33.07,47.63,47.59,.17,2.34-.59,4.38-2.2,5.9-1.33,1.25-2.97,1.89-4.8,1.89Zm108.35-22.09c-.85,0-1.69-.16-2.52-.49-2.04-.8-3.5-2.4-4.21-4.61-4.42-13.83,23.6-57.24,26.8-62.15,.7-1.07,2.04-1.5,3.24-1.05,1.19,.45,1.91,1.68,1.72,2.94-.87,5.82-8.89,57.09-21.35,64.31-1.2,.69-2.44,1.04-3.68,1.04Zm-40.1-.33c-1.28,0-2.55-.37-3.77-1.1-12.35-7.42-19.53-58.82-20.3-64.66-.17-1.27,.57-2.48,1.77-2.91,1.19-.44,2.54,.02,3.22,1.1,3.13,4.96,30.43,48.82,25.79,62.58-.75,2.21-2.23,3.78-4.28,4.54h0c-.8,.3-1.61,.45-2.42,.45Zm1.47-2.99h0Zm18.37-3.84h-.06c-2.19-.02-4.11-.99-5.55-2.81-8.98-11.33,2.17-62.01,3.47-67.75,.28-1.24,1.38-2.12,2.65-2.12h.02c1.28,.01,2.38,.91,2.64,2.16,1.21,5.76,11.52,56.61,2.36,67.8-1.46,1.78-3.37,2.72-5.53,2.72Z"/></g></svg>