<?xml version="1.0" encoding="UTF-8"?><svg id="_レイヤー_2" xmlns="http://www.w3.org/2000/svg" viewBox="0 0 198.54 198.54"><defs><style>.cls-1{fill:none;stroke:#150f59;stroke-miterlimit:10;stroke-width:3px;}.cls-1,.cls-2,.cls-3{fill-rule:evenodd;}.cls-2{fill:#150f59;}.cls-3{fill:#b05f6e;}</style></defs><g id="decoration_japan_001_02"><g><path class="cls-2" d="M48.28,50.08c-13.22,.24-25.17,5.7-33.88,14.41C5.7,73.2,.24,85.15,0,98.37c26.58-.2,48.08-21.7,48.28-48.28h0Z"/><path class="cls-1" d="M98.37,100.17c-13.22,.24-25.17,5.7-33.88,14.41-8.71,8.71-14.17,20.66-14.41,33.88,26.58-.2,48.08-21.71,48.28-48.28h0Z"/><path class="cls-1" d="M148.45,50.08c-13.22,.24-25.17,5.7-33.88,14.41-8.71,8.71-14.17,20.66-14.41,33.88,26.58-.2,48.08-21.7,48.28-48.28h0Z"/><path class="cls-2" d="M50.08,148.45c13.22-.24,25.17-5.7,33.88-14.41,8.71-8.71,14.17-20.66,14.41-33.88-26.58,.2-48.08,21.7-48.28,48.28h0Z"/><path class="cls-2" d="M50.08,48.28c13.22-.24,25.17-5.7,33.88-14.41,8.71-8.71,14.17-20.66,14.41-33.88-26.58,.2-48.08,21.71-48.28,48.28h0Z"/><path class="cls-2" d="M100.17,198.54c13.22-.24,25.17-5.7,33.88-14.41,8.71-8.71,14.17-20.66,14.41-33.88-26.58,.2-48.08,21.7-48.28,48.28h0Z"/><path class="cls-2" d="M100.17,98.37c13.22-.24,25.17-5.7,33.88-14.41,8.71-8.71,14.17-20.66,14.41-33.88-26.58,.2-48.08,21.71-48.28,48.28h0Z"/><path class="cls-2" d="M150.25,148.45c13.22-.24,25.17-5.7,33.88-14.41,8.71-8.71,14.17-20.66,14.41-33.88-26.58,.2-48.08,21.7-48.28,48.28h0Z"/><path class="cls-1" d="M98.37,98.37c-.24-13.22-5.7-25.17-14.41-33.88-8.71-8.71-20.66-14.17-33.88-14.41,.2,26.58,21.71,48.08,48.28,48.28h0Z"/><path class="cls-1" d="M148.45,148.45c-.24-13.22-5.7-25.17-14.41-33.88-8.71-8.71-20.66-14.17-33.88-14.41,.2,26.58,21.7,48.08,48.28,48.28h0Z"/><path class="cls-3" d="M198.54,98.37c-.24-13.22-5.7-25.17-14.41-33.88-8.71-8.71-20.66-14.17-33.88-14.41,.2,26.58,21.71,48.08,48.28,48.28h0Z"/><path class="cls-3" d="M0,100.17c.24,13.22,5.7,25.17,14.41,33.88,8.71,8.71,20.66,14.17,33.88,14.41-.2-26.58-21.7-48.08-48.28-48.28H0Z"/><path class="cls-3" d="M50.08,150.25c.24,13.22,5.7,25.17,14.41,33.88s20.66,14.17,33.88,14.41c-.2-26.58-21.71-48.08-48.28-48.28h0Z"/><path class="cls-3" d="M50.08,50.08c.24,13.22,5.7,25.17,14.41,33.88,8.71,8.71,20.66,14.17,33.88,14.41-.2-26.58-21.71-48.08-48.28-48.28h0Z"/><path class="cls-3" d="M100.17,100.17c.24,13.22,5.7,25.17,14.41,33.88s20.66,14.17,33.88,14.41c-.2-26.58-21.71-48.08-48.28-48.28h0Z"/><path class="cls-3" d="M100.17,0c.24,13.22,5.7,25.17,14.41,33.88,8.71,8.71,20.66,14.17,33.88,14.41C148.25,21.71,126.75,.2,100.17,0h0Z"/></g></g></svg>