<?xml version="1.0" encoding="UTF-8"?><svg id="_レイヤー_2" xmlns="http://www.w3.org/2000/svg" xmlns:xlink="http://www.w3.org/1999/xlink" viewBox="0 0 246.67 342.88"><defs><style>.cls-1,.cls-2{fill:none;}.cls-3{clip-path:url(#clippath);}.cls-2{stroke:#efefef;stroke-miterlimit:10;stroke-width:.25px;}</style><clipPath id="clippath"><rect class="cls-1" width="246.67" height="342.88"/></clipPath></defs><g id="_レイヤー_1-2"><g class="cls-3"><line class="cls-2" y1="333.53" x2="284.96" y2="48.58"/><line class="cls-2" x1="-2.21" y1="331.33" x2="282.75" y2="46.37"/><line class="cls-2" x1="-4.42" y1="329.12" x2="280.54" y2="44.16"/><line class="cls-2" x1="-6.63" y1="326.91" x2="278.33" y2="41.95"/><line class="cls-2" x1="-8.83" y1="324.7" x2="276.12" y2="39.74"/><line class="cls-2" x1="-11.04" y1="322.49" x2="273.91" y2="37.53"/><line class="cls-2" x1="-13.25" y1="320.28" x2="271.71" y2="35.32"/><line class="cls-2" x1="-15.46" y1="318.07" x2="269.5" y2="33.12"/><line class="cls-2" x1="-17.67" y1="315.86" x2="267.29" y2="30.91"/><line class="cls-2" x1="-19.88" y1="313.66" x2="265.08" y2="28.7"/><line class="cls-2" x1="-22.09" y1="311.45" x2="262.87" y2="26.49"/><line class="cls-2" x1="-24.29" y1="309.24" x2="260.66" y2="24.28"/><line class="cls-2" x1="-26.5" y1="307.03" x2="258.45" y2="22.07"/><line class="cls-2" x1="-28.71" y1="304.82" x2="256.25" y2="19.86"/><line class="cls-2" x1="-30.92" y1="302.61" x2="254.04" y2="17.66"/><line class="cls-2" x1="-33.13" y1="300.4" x2="251.83" y2="15.45"/><line class="cls-2" x1="-35.34" y1="298.2" x2="249.62" y2="13.24"/><line class="cls-2" x1="-37.55" y1="295.99" x2="247.41" y2="11.03"/></g></g></svg>