<?xml version="1.0" encoding="UTF-8"?><svg id="_レイヤー_2" xmlns="http://www.w3.org/2000/svg" xmlns:xlink="http://www.w3.org/1999/xlink" viewBox="0 0 66.74 50.32"><defs><style>.cls-1{fill:none;}.cls-2{fill:#c9bc9c;}.cls-3{fill:url(#_新規パターンスウォッチ_8);}</style><pattern id="_新規パターンスウォッチ_8" x="0" y="0" width="44.97" height="44.97" patternTransform="translate(-121.31 -538.14)" patternUnits="userSpaceOnUse" viewBox="0 0 44.97 44.97"><g><rect class="cls-1" width="44.97" height="44.97"/><rect class="cls-2" x="0" width="44.97" height="44.97"/></g></pattern></defs><g id="_レイヤー_1-2"><g><path class="cls-3" d="M54.31,26.52c-.29,.27-.53,.57-.7,.92-.91-.54-1.8-.59-2.62-.27-.5,.2-.93,.51-1.25,.96-.45-.29-.95-.43-1.46-.43s-1.01,.14-1.46,.43c-.33-.45-.75-.76-1.25-.96-.82-.32-1.71-.27-2.62,.27-.17-.34-.41-.65-.7-.92-1.59-1.46-4.19-1.22-7.62,2.52s-4.81,11.04-4.81,11.04c0,0,4.71-1.32,8.32-3.82-.97,5.03-.29,10.64-.29,10.64,0,0,4.07-3.45,6.78-7.64,.86,5.5,3.67,11.06,3.67,11.06,0,0,2.81-5.56,3.67-11.06,2.7,4.19,6.77,7.64,6.77,7.64,0,0,.68-5.62-.29-10.64,3.61,2.5,8.32,3.82,8.32,3.82,0,0-1.38-7.3-4.81-11.04-3.43-3.75-6.03-3.98-7.62-2.52Zm-17.86,6.4c-1.46,1.87-2.75,3.31-2.88,3.2-.13-.1,.94-1.71,2.4-3.58,1.46-1.87,2.75-3.31,2.88-3.2,.13,.1-.94,1.71-2.4,3.58Zm6.26,2.21c-.99,2.49-1.94,4.44-2.11,4.37-.18-.07,.48-2.14,1.48-4.63,.99-2.49,1.94-4.44,2.11-4.37,.18,.07-.48,2.14-1.48,4.63Zm5.56,6.06c-.21,0-.38-2.39-.38-5.35s.17-5.35,.38-5.35,.38,2.39,.38,5.35-.17,5.35-.38,5.35Zm7.67-1.69c-.18,.07-1.12-1.89-2.11-4.37-.99-2.49-1.65-4.56-1.48-4.63,.18-.07,1.12,1.89,2.11,4.37,.99,2.49,1.65,4.56,1.48,4.63Zm4.15-6.58c-1.46-1.87-2.53-3.48-2.4-3.58,.13-.1,1.42,1.33,2.88,3.2,1.46,1.87,2.53,3.48,2.4,3.58-.13,.1-1.42-1.33-2.88-3.2Z"/><path class="cls-3" d="M32.14,3.35C28.7-.39,26.11-.63,24.51,.83c-.29,.27-.53,.57-.7,.92-.91-.54-1.8-.59-2.62-.27-.5,.2-.93,.51-1.25,.96-.45-.29-.95-.43-1.46-.43s-1.01,.14-1.46,.43c-.33-.45-.75-.76-1.25-.96-.82-.32-1.71-.27-2.62,.27-.17-.34-.41-.65-.7-.92-1.59-1.46-4.19-1.22-7.62,2.52C1.38,7.1,0,14.4,0,14.4c0,0,4.71-1.32,8.32-3.82-.97,5.03-.29,10.64-.29,10.64,0,0,4.07-3.45,6.77-7.64,.86,5.5,3.67,11.06,3.67,11.06,0,0,2.81-5.56,3.67-11.06,2.7,4.19,6.78,7.64,6.78,7.64,0,0,.68-5.62-.29-10.64,3.61,2.5,8.32,3.82,8.32,3.82,0,0-1.38-7.3-4.81-11.04ZM6.65,7.24c-1.46,1.87-2.75,3.31-2.88,3.2-.13-.1,.94-1.71,2.4-3.58,1.46-1.87,2.75-3.31,2.88-3.2,.13,.1-.94,1.71-2.4,3.58Zm6.26,2.21c-.99,2.49-1.94,4.44-2.11,4.37-.18-.07,.48-2.14,1.48-4.63,.99-2.49,1.94-4.44,2.11-4.37,.18,.07-.48,2.14-1.48,4.63Zm5.56,6.06c-.21,0-.38-2.39-.38-5.35s.17-5.35,.38-5.35,.38,2.39,.38,5.35-.17,5.35-.38,5.35Zm7.67-1.69c-.18,.07-1.12-1.89-2.11-4.37-.99-2.49-1.65-4.56-1.48-4.63,.18-.07,1.12,1.89,2.11,4.37,.99,2.49,1.65,4.56,1.48,4.63Zm4.15-6.58c-1.46-1.87-2.53-3.48-2.4-3.58,.13-.1,1.42,1.33,2.88,3.2,1.46,1.87,2.53,3.48,2.4,3.58-.13,.1-1.42-1.33-2.88-3.2Z"/></g></g></svg>