<?xml version="1.0" encoding="UTF-8"?><svg id="_レイヤー_2" xmlns="http://www.w3.org/2000/svg" xmlns:xlink="http://www.w3.org/1999/xlink" viewBox="0 0 157.3 153.89"><defs><style>.cls-1{fill:url(#_名称未設定グラデーション_2-2);}.cls-2{fill:url(#_名称未設定グラデーション_2);}</style><linearGradient id="_名称未設定グラデーション_2" x1="-403.19" y1="-245.98" x2="1536.2" y2="1081.86" gradientUnits="userSpaceOnUse"><stop offset=".03" stop-color="#fbe1b6"/><stop offset=".59" stop-color="#c19a3d"/><stop offset=".74" stop-color="#c89f3f"/><stop offset=".95" stop-color="#dbaf46"/><stop offset="1" stop-color="#e1b448"/></linearGradient><linearGradient id="_名称未設定グラデーション_2-2" x1="-401.11" y1="-249.01" x2="1538.27" y2="1078.82" xlink:href="#_名称未設定グラデーション_2"/></defs><g id="_アートボードのガイド"><g><path class="cls-2" d="M18.25,113.86c-.03-2.94,.27-5.86,.88-8.73C7.51,97.9,.16,85.11,0,71.22c-.12-10.81,3.98-21.02,11.54-28.74,7.36-7.52,17.13-11.81,27.62-12.15C43.64,12.88,59.36,.2,77.89,0c18.19-.12,34.52,12.12,39.38,29.48,10.49,.1,20.35,4.18,27.87,11.54,7.73,7.56,12.05,17.67,12.17,28.48,.15,13.89-6.91,26.83-18.38,34.31,.68,2.88,1.04,5.79,1.07,8.72,.12,10.81-3.98,21.01-11.54,28.74-7.56,7.73-17.68,12.05-28.49,12.17-7.52,.07-14.24-1.75-20.46-5.33-6.15,3.71-13.1,5.7-20.35,5.78h-.44c-22.1,0-40.21-17.86-40.46-40.02Zm64.9,21.56c4.91,3.58,10.8,5.27,16.68,5.38,7.43-.08,14.39-3.06,19.59-8.37,5.2-5.31,8.01-12.33,7.93-19.76-.03-3.23-.66-6.47-1.86-9.61-1.17-3.09,.22-6.56,3.2-7.97,9.82-4.64,16.09-14.63,15.96-25.45-.08-7.43-3.05-14.39-8.36-19.59-5.24-5.12-12.14-7.93-19.44-7.93-1.34-.02-2.57,.12-3.82,.29-1.68,.2-3.37-.23-4.7-1.25-1.34-1.02-2.21-2.55-2.42-4.22-1.77-13.99-13.27-24.08-27.89-24.29-14.13,.15-25.89,10.86-27.34,24.91-.18,1.68-1.02,3.22-2.33,4.27-1.31,1.06-2.96,1.58-4.68,1.35-1.07-.12-2.15-.21-3.25-.21-.09,0-.23,.04-.25,0-7.43,.08-14.39,3.05-19.59,8.36-5.2,5.31-8.02,12.33-7.94,19.76,.12,10.82,6.6,20.67,16.52,25.09,3.02,1.35,4.49,4.79,3.38,7.9-1.13,3.15-1.69,6.39-1.65,9.65,.17,15.23,12.62,27.52,27.82,27.52h.3c6.02-.07,11.75-2.05,16.57-5.73,1.13-.87,2.49-1.3,3.84-1.3s2.62,.41,3.73,1.22Z"/><path class="cls-1" d="M54.27,85.06h.07c1.7,0,3.33,.71,4.51,1.93l13.24-6.49c-.05-.32-.07-.64-.08-.96,0-.31,.02-.64,.06-.96l-14.26-6.61c-1.11,.96-2.52,1.5-4.01,1.52h-.06c-3.45,0-6.27-2.78-6.3-6.23-.04-3.47,2.75-6.33,6.23-6.37h.06c3.44,0,6.27,2.78,6.31,6.23,0,.3-.01,.6-.06,.9l13.99,6.49c.83-.89,1.86-1.55,3.02-1.94l-.16-14.25c-2.38-.89-4.07-3.19-4.11-5.82-.03-3.47,2.77-6.33,6.23-6.36h.07c1.65,0,3.22,.64,4.4,1.8,1.2,1.18,1.88,2.75,1.89,4.43,.02,2.63-1.62,4.96-3.99,5.9l.16,14.25c1.16,.36,2.21,1,3.06,1.87l12.76-6.26v-.04c-.02-1.69,.62-3.27,1.8-4.48,1.17-1.2,2.75-1.87,4.43-1.89h.07c3.44,0,6.25,2.78,6.3,6.22,.04,3.47-2.75,6.33-6.23,6.37-1.79-.02-3.46-.73-4.66-2.01l-12.47,6.12c.05,.33,.07,.64,.08,.96,0,.31-.02,.64-.06,.96l12.28,5.69c1.15-1.15,2.71-1.82,4.37-1.84h.07c3.44,0,6.25,2.78,6.3,6.23,.03,3.46-2.76,6.31-6.23,6.36h-.07c-1.65,0-3.22-.64-4.4-1.8-1.2-1.17-1.88-2.75-1.89-4.43,0-.14,0-.28,.01-.42l-12.33-5.72c-.83,.89-1.86,1.56-3.02,1.94l.15,13.94c2.35,.91,3.96,3.17,4,5.78,.03,3.47-2.76,6.32-6.23,6.36h-.07c-1.65,0-3.22-.64-4.4-1.8-1.2-1.18-1.88-2.75-1.89-4.43-.02-2.69,1.66-5.04,4.1-5.94l-.15-13.87c-1.16-.36-2.21-1-3.06-1.87l-13.44,6.6v.17c.02,1.69-.62,3.27-1.8,4.47-1.17,1.2-2.75,1.87-4.43,1.89h-.07c-3.44,0-6.25-2.78-6.3-6.22-.04-3.47,2.75-6.33,6.23-6.37Z"/></g></g></svg>