<?xml version="1.0" encoding="UTF-8"?><svg id="_レイヤー_2" xmlns="http://www.w3.org/2000/svg" xmlns:xlink="http://www.w3.org/1999/xlink" viewBox="0 0 200.32 93.62"><defs><style>.cls-1{fill:url(#_名称未設定グラデーション_2-3);}.cls-2{fill:url(#_名称未設定グラデーション_2-6);}.cls-3{fill:url(#_名称未設定グラデーション_2-2);}.cls-4{fill:url(#_名称未設定グラデーション_2-4);}.cls-5{fill:url(#_名称未設定グラデーション_2-5);}.cls-6{fill:url(#_名称未設定グラデーション_2);}</style><linearGradient id="_名称未設定グラデーション_2" x1="-1387.01" y1="-912.66" x2="552.38" y2="415.17" gradientUnits="userSpaceOnUse"><stop offset=".03" stop-color="#fbe1b6"/><stop offset=".59" stop-color="#c19a3d"/><stop offset=".74" stop-color="#c89f3f"/><stop offset=".95" stop-color="#dbaf46"/><stop offset="1" stop-color="#e1b448"/></linearGradient><linearGradient id="_名称未設定グラデーション_2-2" x1="-1368.77" y1="-939.29" x2="570.61" y2="388.54" xlink:href="#_名称未設定グラデーション_2"/><linearGradient id="_名称未設定グラデーション_2-3" x1="-1370.28" y1="-937.1" x2="569.11" y2="390.73" xlink:href="#_名称未設定グラデーション_2"/><linearGradient id="_名称未設定グラデーション_2-4" x1="-1374.06" y1="-931.58" x2="565.33" y2="396.26" xlink:href="#_名称未設定グラデーション_2"/><linearGradient id="_名称未設定グラデーション_2-5" x1="-1371.67" y1="-935.07" x2="567.72" y2="392.77" xlink:href="#_名称未設定グラデーション_2"/><linearGradient id="_名称未設定グラデーション_2-6" x1="-1368.18" y1="-940.17" x2="571.21" y2="387.67" xlink:href="#_名称未設定グラデーション_2"/></defs><g id="_アートボードのガイド"><g><path class="cls-6" d="M74.98,81.47c-.55-2.38-2.23-4.46-4.67-5.41-3.94-1.54-8.4,.4-9.94,4.34-1.55,3.94,.4,8.39,4.34,9.94,2.45,.96,5.08,.57,7.11-.8l22.29,4.08-19.13-12.15Z"/><path class="cls-3" d="M114.99,70.67c2.38-.55,4.46-2.23,5.41-4.67,1.55-3.94-.4-8.39-4.34-9.94-3.94-1.55-8.4,.4-9.94,4.34-.96,2.45-.57,5.08,.8,7.11l-4.08,22.29,12.15-19.13Z"/><path class="cls-1" d="M128.68,88.44c2.07,1.29,4.72,1.58,7.13,.53,3.88-1.7,5.65-6.22,3.96-10.1-1.7-3.88-6.22-5.65-10.1-3.96-2.41,1.05-4,3.19-4.46,5.59l-18.64,12.88,22.11-4.94Z"/><path class="cls-4" d="M84.81,71.25l12.88,18.64-4.94-22.11c1.29-2.07,1.58-4.72,.53-7.13-1.7-3.88-6.22-5.65-10.1-3.96s-5.65,6.22-3.96,10.1c1.05,2.41,3.19,4,5.59,4.46Z"/><path class="cls-5" d="M100.12,40.69c28.55,0,52.21,21.04,56.46,48.41,4.02-1.45,8.17-2.64,12.42-3.54-5.85-32.75-34.48-57.7-68.88-57.7S37.37,52.56,31.32,85.06c4.27,.78,8.43,1.84,12.48,3.17,4.62-26.94,28.08-47.53,56.32-47.53Z"/><path class="cls-2" d="M100.11,18.67c41.53,0,75.96,30.61,82.14,70.43,5.85-2.11,11.89-3.84,18.08-5.15C191.81,36.31,150.16,0,100.11,0S8.81,35.93,0,83.21c6.21,1.13,12.27,2.68,18.16,4.61C24.88,48.63,59.02,18.67,100.11,18.67Z"/></g></g></svg>