<?xml version="1.0" encoding="UTF-8"?><svg id="_レイヤー_2" xmlns="http://www.w3.org/2000/svg" xmlns:xlink="http://www.w3.org/1999/xlink" viewBox="0 0 45.66 35.65"><defs><style>.cls-1{opacity:.38;}.cls-1,.cls-2{fill:none;}.cls-3{clip-path:url(#clippath);}.cls-2{stroke:#a0a0a8;stroke-miterlimit:10;stroke-width:.22px;}.cls-4{fill:#fff;}.cls-5{opacity:.35;}</style><clipPath id="clippath"><rect class="cls-1" width="45.66" height="35.65"/></clipPath></defs><g id="band"><g class="cls-5"><g class="cls-3"><rect class="cls-4" width="45.66" height="35.65"/><g><polygon class="cls-2" points="0 0 11.42 -5.94 22.83 0 22.83 11.88 11.42 17.83 0 11.88 0 0"/><polygon class="cls-2" points="22.83 0 34.25 -5.94 45.66 0 45.66 11.88 34.25 17.83 22.83 11.88 22.83 0"/></g><g><g><polygon class="cls-2" points="-11.42 17.83 0 11.88 11.42 17.83 11.42 29.71 0 35.65 -11.42 29.71 -11.42 17.83"/><polygon class="cls-2" points="11.42 17.83 22.83 11.88 34.25 17.83 34.25 29.71 22.83 35.65 11.42 29.71 11.42 17.83"/><polygon class="cls-2" points="34.25 17.83 45.66 11.88 57.08 17.83 57.08 29.71 45.66 35.65 34.25 29.71 34.25 17.83"/></g><g><polygon class="cls-2" points="0 35.65 11.42 29.71 22.83 35.65 22.83 47.54 11.42 53.48 0 47.54 0 35.65"/><polygon class="cls-2" points="22.83 35.65 34.25 29.71 45.66 35.65 45.66 47.54 34.25 53.48 22.83 47.54 22.83 35.65"/></g></g><g><g><polygon class="cls-2" points="0 -11.88 11.42 -17.83 22.83 -11.88 22.83 0 11.42 5.94 0 0 0 -11.88"/><polygon class="cls-2" points="22.83 -11.88 34.25 -17.83 45.66 -11.88 45.66 0 34.25 5.94 22.83 0 22.83 -11.88"/></g><g><g><polygon class="cls-2" points="-11.42 5.94 0 0 11.42 5.94 11.42 17.83 0 23.77 -11.42 17.83 -11.42 5.94"/><polygon class="cls-2" points="11.42 5.94 22.83 0 34.25 5.94 34.25 17.83 22.83 23.77 11.42 17.83 11.42 5.94"/><polygon class="cls-2" points="34.25 5.94 45.66 0 57.08 5.94 57.08 17.83 45.66 23.77 34.25 17.83 34.25 5.94"/></g><g><polygon class="cls-2" points="0 23.77 11.42 17.83 22.83 23.77 22.83 35.65 11.42 41.6 0 35.65 0 23.77"/><polygon class="cls-2" points="22.83 23.77 34.25 17.83 45.66 23.77 45.66 35.65 34.25 41.6 22.83 35.65 22.83 23.77"/></g></g></g></g></g></g></svg>